<svg width="191" height="191" viewBox="0 0 191 191" fill="none" xmlns="http://www.w3.org/2000/svg">
<g clip-path="url(#clip0_1_7014)">
<path fill-rule="evenodd" clip-rule="evenodd" d="M187.184 -3.70288H3.13519L-4.12402 3.56359V187.797L-0.97361 190.95V154.773H10.4585V40.7959H3.65281V0.505981H49.1478V10.8944H145.995V0.505981H190.432V40.7959H179.925V154.773H190.432V191.813L194.443 187.797V3.56359L187.184 -3.70288ZM158.788 195.063H30.6697V180.53H158.788V195.063Z" fill="white"/>
<path fill-rule="evenodd" clip-rule="evenodd" d="M187.184 -3.70288H3.13519L-4.12402 3.56359V187.797L-0.97361 190.95V154.773H10.4585V40.7959H3.65281V0.505981H49.1478V10.8944H145.995V0.505981H190.432V40.7959H179.925V154.773H190.432V191.813L194.443 187.797V3.56359L187.184 -3.70288ZM190.443 44.7959H183.925V150.773H190.443V44.7959ZM141.995 0.297119V6.89435H53.1478V0.297119H141.995ZM-0.124023 44.7959H6.45855V150.773H-0.124023V44.7959ZM158.788 195.063H30.6697V180.53H158.788V195.063ZM154.788 184.53H34.6697V191.063H154.788V184.53Z" fill="#7700D1"/>
<path fill-rule="evenodd" clip-rule="evenodd" d="M50.9849 78.2971H79.5515H109.887H138.453L145.995 70.9579V13.6363C145.995 9.58711 142.614 6.29712 138.453 6.29712C134.292 6.29712 130.912 9.58711 130.912 13.6363V63.4922H109.887H79.5515H58.5264V13.6363C58.5264 9.58711 55.1457 6.29712 50.9849 6.29712C46.824 6.29712 43.4434 9.58711 43.4434 13.6363V70.9579L50.9849 78.2971Z" fill="white"/>
<path fill-rule="evenodd" clip-rule="evenodd" d="M58.5264 63.4922V13.6363C58.5264 9.58711 55.1457 6.29712 50.9849 6.29712C46.824 6.29712 43.4434 9.58711 43.4434 13.6363V70.9579L50.9849 78.2971H138.453L145.995 70.9579V13.6363C145.995 9.58711 142.614 6.29712 138.453 6.29712C134.292 6.29712 130.912 9.58711 130.912 13.6363V63.4922H58.5264ZM141.995 69.2691V13.6363C141.995 11.8981 140.508 10.2971 138.453 10.2971C136.398 10.2971 134.912 11.8981 134.912 13.6363V67.4922H54.5264V13.6363C54.5264 11.8981 53.0398 10.2971 50.9849 10.2971C48.9299 10.2971 47.4434 11.8981 47.4434 13.6363V69.2691L52.6099 74.2971H136.828L141.995 69.2691Z" fill="#7700D1"/>
<path d="M141.919 3.29712H134.902V17.2971H141.919V3.29712Z" fill="white"/>
<path fill-rule="evenodd" clip-rule="evenodd" d="M141.919 3.29712V17.2971H134.902V3.29712H141.919Z" fill="white"/>
<path d="M54.5342 3.29712H47.38V17.2971H54.5342V3.29712Z" fill="white"/>
<path fill-rule="evenodd" clip-rule="evenodd" d="M54.5342 3.29712V17.2971H47.38V3.29712H54.5342Z" fill="white"/>
<path fill-rule="evenodd" clip-rule="evenodd" d="M134.901 7.05903H152.431C169.662 7.05903 183.631 21.0278 183.631 38.259V47.9626H190.431V38.259C190.431 17.2722 173.418 0.259033 152.431 0.259033H133.159C131.686 0.259033 130.232 0.342873 128.803 0.506042H134.901V7.05903Z" fill="white"/>
<path fill-rule="evenodd" clip-rule="evenodd" d="M183.596 135.841L183.596 153.371C183.596 170.603 169.628 184.571 152.396 184.571L144.657 184.571L144.657 191.371L152.396 191.371C173.383 191.371 190.396 174.358 190.396 153.371L190.396 134.099C190.396 132.657 190.316 131.234 190.16 129.833L190.16 135.841L183.596 135.841Z" fill="white"/>
<path fill-rule="evenodd" clip-rule="evenodd" d="M6.65547 135.841L6.65547 153.371C6.65547 170.603 20.6242 184.571 37.8555 184.571L45.595 184.571L45.595 191.371L37.8555 191.371C16.8686 191.371 -0.144529 174.358 -0.14453 153.371L-0.144531 134.099C-0.144531 132.657 -0.0641731 131.234 0.0923102 129.833L0.0923105 135.841L6.65547 135.841Z" fill="white"/>
<path fill-rule="evenodd" clip-rule="evenodd" d="M55.3861 7.05903H37.8561C20.6248 7.05903 6.65602 21.0278 6.65602 38.259V47.9626H-0.14399V38.259C-0.14399 17.2722 16.8692 0.259033 37.8561 0.259033H57.1278C58.6011 0.259033 60.0548 0.342873 61.4844 0.506042H55.3861V7.05903Z" fill="white"/>
</g>
<defs>
<clipPath id="clip0_1_7014">
<rect width="190" height="190" fill="white" transform="translate(0.28418 0.608398)"/>
</clipPath>
</defs>
</svg>
