<svg width="36" height="36" viewBox="0 0 36 36" fill="none" xmlns="http://www.w3.org/2000/svg">
<g id="Group">
<g id="Group_2">
<path id="Vector" d="M17.9997 33.7019C9.32762 33.7019 2.29746 26.6721 2.29746 18C2.29746 9.32794 9.32762 2.29778 17.9997 2.29778C26.6721 2.29778 33.7019 9.32794 33.7019 18C33.7019 18.6344 34.2168 19.1489 34.8508 19.1489C35.4848 19.1489 35.9994 18.634 35.9994 18C35.9994 8.05925 27.9405 0 17.9997 0C8.05893 0 0 8.05925 0 18C0 27.9408 8.05893 36 17.9997 36C18.634 36 19.1486 35.4852 19.1486 34.8511C19.1486 34.2171 18.634 33.7019 17.9997 33.7019Z" fill="#4C0085"/>
<path id="Vector_2" d="M17.9997 33.7019C9.32762 33.7019 2.29746 26.6721 2.29746 18C2.29746 9.32794 9.32762 2.29778 17.9997 2.29778C26.6721 2.29778 33.7019 9.32794 33.7019 18C33.7019 18.6344 34.2168 19.1489 34.8508 19.1489C35.4848 19.1489 35.9994 18.634 35.9994 18C35.9994 8.05925 27.9405 0 17.9997 0C8.05893 0 0 8.05925 0 18C0 27.9408 8.05893 36 17.9997 36C18.634 36 19.1486 35.4852 19.1486 34.8511C19.1486 34.2171 18.634 33.7019 17.9997 33.7019Z" fill="#4C0085"/>
</g>
<g id="Group_3">
<path id="Vector_3" d="M16.8508 5.74491V18.3827H10.3397C9.70595 18.3827 9.19141 18.8976 9.19141 19.5316C9.19141 20.1666 9.70627 20.6811 10.3397 20.6811H17.9997C18.634 20.6811 19.1486 20.1663 19.1486 19.5316V5.74491C19.1486 5.11025 18.6337 4.5957 17.9997 4.5957C17.3656 4.5957 16.8508 5.11057 16.8508 5.74491Z" fill="#4C0085"/>
<path id="Vector_4" d="M16.8508 5.74491V18.3827H10.3397C9.70595 18.3827 9.19141 18.8976 9.19141 19.5316C9.19141 20.1666 9.70627 20.6811 10.3397 20.6811H17.9997C18.634 20.6811 19.1486 20.1663 19.1486 19.5316V5.74491C19.1486 5.11025 18.6337 4.5957 17.9997 4.5957C17.3656 4.5957 16.8508 5.11057 16.8508 5.74491Z" fill="#4C0085"/>
</g>
<g id="Group_4">
<path id="Vector_5" d="M27.1914 18.3828C22.3264 18.3828 18.3828 22.3264 18.3828 27.1914C18.3828 32.0567 22.326 36.0003 27.1914 36.0003C32.0561 36.0003 35.9996 32.0571 35.9996 27.1914C35.9996 22.3264 32.0564 18.3828 27.1914 18.3828ZM27.298 31.1144C26.9155 31.6209 26.1941 31.7211 25.6882 31.3386L22.1751 28.6827C21.6698 28.3008 21.5693 27.5797 21.9525 27.0732C22.3347 26.5673 23.0561 26.4671 23.5613 26.849L26.1581 28.8121L29.819 23.9689C30.2016 23.4627 30.9226 23.3625 31.4285 23.745C31.9344 24.1276 32.0349 24.8486 31.652 25.3548L27.298 31.1144Z" fill="#4C0085"/>
<path id="Vector_6" d="M27.1914 18.3828C22.3264 18.3828 18.3828 22.3264 18.3828 27.1914C18.3828 32.0567 22.326 36.0003 27.1914 36.0003C32.0561 36.0003 35.9996 32.0571 35.9996 27.1914C35.9996 22.3264 32.0564 18.3828 27.1914 18.3828ZM27.298 31.1144C26.9155 31.6209 26.1941 31.7211 25.6882 31.3386L22.1751 28.6827C21.6698 28.3008 21.5693 27.5797 21.9525 27.0732C22.3347 26.5673 23.0561 26.4671 23.5613 26.849L26.1581 28.8121L29.819 23.9689C30.2016 23.4627 30.9226 23.3625 31.4285 23.745C31.9344 24.1276 32.0349 24.8486 31.652 25.3548L27.298 31.1144Z" fill="#4C0085"/>
</g>
</g>
</svg>
