<svg width="370" height="178" viewBox="0 0 370 178" fill="none" xmlns="http://www.w3.org/2000/svg">
<path d="M15.5872 153.204C39.851 122.159 98.3181 62.786 138.076 73.6509C172.815 83.1444 177.73 113.933 156.092 122.422C134.453 130.911 90.3011 91.8059 126.363 54.2938C171.251 7.59992 234.221 107.769 289.933 121.958C330.992 132.416 340.469 94.5181 339.709 85.6795" stroke="white" stroke-width="2" stroke-dasharray="6 3"/>
<g opacity="0.97">
<path opacity="0.97" d="M337.536 82.094C337.249 81.8308 330.478 75.3465 323.611 65.7518C314.255 52.6636 309.518 40.6044 309.518 29.885C309.518 13.3992 322.917 0 339.403 0C355.888 0 369.288 13.3992 369.288 29.885C369.288 40.5086 364.55 52.5679 355.194 65.68C348.327 75.2987 341.556 81.8308 341.269 82.094H337.536ZM339.403 5.43146C325.908 5.43146 314.949 16.414 314.949 29.885C314.949 49.2421 333.373 70.0108 339.403 76.2797C345.408 69.9629 363.856 49.0506 363.856 29.885C363.856 16.3901 352.897 5.43146 339.403 5.43146Z" fill="white"/>
<path opacity="0.97" d="M339.402 43.6671C331.793 43.6671 325.62 37.4939 325.62 29.8851C325.62 22.2762 331.793 16.103 339.402 16.103C347.011 16.103 353.184 22.2762 353.184 29.8851C353.184 37.4939 347.011 43.6671 339.402 43.6671ZM339.402 21.5345C334.784 21.5345 331.052 25.2671 331.052 29.8851C331.052 34.503 334.808 38.2356 339.402 38.2356C344.02 38.2356 347.753 34.4791 347.753 29.8851C347.753 25.291 344.02 21.5345 339.402 21.5345Z" fill="white"/>
</g>
</svg>
