<svg width="1234" height="463" viewBox="0 0 1234 463" fill="none" xmlns="http://www.w3.org/2000/svg">
<path d="M1202.02 82.7836C1201.73 82.5204 1194.96 76.0357 1188.09 66.4402C1178.74 53.3511 1174 41.2909 1174 30.5708C1174 14.0838 1187.4 0.683594 1203.89 0.683594C1220.37 0.683594 1233.77 14.0838 1233.77 30.5708C1233.77 41.1952 1229.04 53.2554 1219.68 66.3684C1212.81 75.9878 1206.04 82.5204 1205.75 82.7836H1202.02ZM1203.89 6.11545C1190.39 6.11545 1179.43 17.0988 1179.43 30.5708C1179.43 49.9292 1197.86 70.6995 1203.89 76.9689C1209.89 70.6516 1228.34 49.7378 1228.34 30.5708C1228.34 17.0749 1217.38 6.11545 1203.89 6.11545Z" fill="white"/>
<path d="M1203.89 44.3537C1196.28 44.3537 1190.1 38.18 1190.1 30.5706C1190.1 22.9612 1196.28 16.7876 1203.89 16.7876C1211.5 16.7876 1217.67 22.9612 1217.67 30.5706C1217.67 38.18 1211.5 44.3537 1203.89 44.3537ZM1203.89 22.2195C1199.27 22.2195 1195.54 25.9524 1195.54 30.5706C1195.54 35.1889 1199.29 38.9218 1203.89 38.9218C1208.5 38.9218 1212.24 35.165 1212.24 30.5706C1212.24 25.9763 1208.5 22.2195 1203.89 22.2195Z" fill="white"/>
<path d="M28.0217 226.784C27.7346 226.52 20.9627 220.036 14.0951 210.44C4.7389 197.351 0.000976562 185.291 0.000976562 174.571C0.000976562 158.084 13.4012 144.684 29.8882 144.684C46.3752 144.684 59.7753 158.084 59.7753 174.571C59.7753 185.195 55.0374 197.255 45.6812 210.368C38.8136 219.988 32.0418 226.52 31.7546 226.784H28.0217ZM29.8882 150.115C16.3923 150.115 5.43283 161.099 5.43283 174.571C5.43283 193.929 23.8581 214.7 29.8882 220.969C35.8943 214.652 54.3435 193.738 54.3435 174.571C54.3435 161.075 43.384 150.115 29.8882 150.115Z" fill="white"/>
<path d="M29.8875 188.354C22.2781 188.354 16.1045 182.18 16.1045 174.571C16.1045 166.961 22.2781 160.788 29.8875 160.788C37.4969 160.788 43.6706 166.961 43.6706 174.571C43.6706 182.18 37.4969 188.354 29.8875 188.354ZM29.8875 166.219C25.2693 166.219 21.5363 169.952 21.5363 174.571C21.5363 179.189 25.2932 182.922 29.8875 182.922C34.5058 182.922 38.2387 179.165 38.2387 174.571C38.2387 169.976 34.5058 166.219 29.8875 166.219Z" fill="white"/>
<path fill-rule="evenodd" clip-rule="evenodd" d="M1202.69 90.2541C1203.19 89.3834 1203.68 88.5224 1204.15 87.6717L1202.4 86.7036C1201.94 87.5426 1201.45 88.3924 1200.96 89.2524L1202.69 90.2541ZM1197.94 97.9995C1199.06 96.2675 1200.12 94.5649 1201.13 92.8952L1199.41 91.8627C1198.42 93.5139 1197.37 95.1993 1196.26 96.9153L1197.94 97.9995ZM1192.91 105.476C1194.09 103.793 1195.22 102.131 1196.31 100.493L1194.64 99.3866C1193.56 101.01 1192.44 102.659 1191.27 104.33L1192.91 105.476ZM1187.62 112.785C1188.84 111.15 1190.02 109.531 1191.17 107.93L1189.55 106.766C1188.41 108.356 1187.23 109.964 1186.02 111.588L1187.62 112.785ZM1182.11 119.946C1183.37 118.354 1184.6 116.774 1185.79 115.207L1184.2 113.995C1183.01 115.552 1181.79 117.123 1180.54 118.706L1182.11 119.946ZM1098.02 201.19C1099.62 200.005 1101.23 198.805 1102.82 197.589L1101.61 195.997C1100.02 197.207 1098.43 198.401 1096.83 199.579L1098.02 201.19ZM1090.69 206.451C1092.32 205.307 1093.95 204.146 1095.58 202.968L1094.41 201.348C1092.79 202.52 1091.17 203.675 1089.54 204.811L1090.69 206.451ZM30.7559 232.688C31.3633 233.427 32.0032 234.173 32.675 234.925L34.1667 233.593C33.512 232.859 32.8899 232.134 32.3008 231.418L30.7559 232.688ZM34.7274 237.141C36.0465 238.516 37.4672 239.913 38.9852 241.327L40.3485 239.863C38.8553 238.472 37.4617 237.102 36.171 235.756L34.7274 237.141ZM41.1915 243.334C42.6268 244.61 44.1388 245.9 45.7246 247.201L46.9935 245.656C45.4266 244.369 43.9348 243.096 42.5204 241.839L41.1915 243.334ZM972.831 249.005C974.73 248.391 976.684 247.82 978.693 247.297L978.189 245.362C976.143 245.895 974.152 246.476 972.216 247.102L972.831 249.005ZM48.0586 249.084C49.5779 250.288 51.1583 251.502 52.7979 252.723L53.9928 251.12C52.3683 249.909 50.8037 248.708 49.301 247.517L48.0586 249.084ZM964.258 252.218C966.089 251.431 967.978 250.688 969.928 249.992L969.255 248.108C967.266 248.818 965.338 249.577 963.468 250.38L964.258 252.218ZM956.046 256.237C957.792 255.27 959.6 254.346 961.473 253.468L960.624 251.657C958.711 252.554 956.863 253.499 955.077 254.487L956.046 256.237ZM55.1578 254.458C56.731 255.598 58.3544 256.745 60.0264 257.897L61.1611 256.25C59.5017 255.107 57.8914 253.969 56.3318 252.839L55.1578 254.458ZM948.296 261.068C949.934 259.923 951.638 258.817 953.41 257.755L952.382 256.04C950.57 257.126 948.827 258.257 947.15 259.429L948.296 261.068ZM62.4755 259.565C64.0884 260.651 65.7434 261.741 67.4395 262.834L68.5229 261.153C66.8378 260.067 65.1938 258.984 63.5923 257.906L62.4755 259.565ZM341.591 260.899C339.509 260.918 337.49 261.059 335.549 261.319L335.814 263.301C337.67 263.053 339.606 262.917 341.609 262.899L341.591 260.899ZM350.666 261.55C348.614 261.245 346.6 261.049 344.634 260.957L344.541 262.955C346.437 263.043 348.384 263.233 350.372 263.528L350.666 261.55ZM941.104 266.692C942.612 265.376 944.189 264.095 945.836 262.854L944.633 261.256C942.947 262.526 941.333 263.838 939.789 265.185L941.104 266.692ZM332.526 261.832C330.468 262.259 328.511 262.829 326.675 263.538L327.395 265.404C329.123 264.737 330.974 264.197 332.932 263.791L332.526 261.832ZM356.598 262.711C355.596 262.469 354.601 262.251 353.614 262.058L353.23 264.021C354.188 264.208 355.154 264.419 356.127 264.655C357.1 264.891 358.063 265.143 359.015 265.412L359.558 263.487C358.582 263.212 357.595 262.953 356.598 262.711ZM368.181 266.444C366.322 265.687 364.413 264.992 362.458 264.362L361.845 266.266C363.753 266.88 365.615 267.559 367.428 268.296L368.181 266.444ZM323.855 264.783C321.968 265.731 320.24 266.846 318.698 268.122L319.973 269.663C321.39 268.489 322.99 267.455 324.752 266.571L323.855 264.783ZM934.558 273.056C935.917 271.584 937.346 270.141 938.849 268.732L937.481 267.273C935.943 268.715 934.48 270.193 933.089 271.699L934.558 273.056ZM376.434 270.368C374.678 269.404 372.861 268.495 370.988 267.648L370.164 269.471C371.99 270.296 373.761 271.182 375.472 272.121L376.434 270.368ZM316.432 270.26C315.014 271.789 313.824 273.493 312.895 275.36L314.686 276.251C315.527 274.561 316.606 273.014 317.898 271.62L316.432 270.26ZM384.167 275.242C382.542 274.071 380.843 272.95 379.076 271.887L378.045 273.6C379.765 274.636 381.418 275.726 382.999 276.864L384.167 275.242ZM928.729 280.082C929.924 278.476 931.191 276.889 932.532 275.329L931.016 274.025C929.643 275.621 928.347 277.245 927.124 278.888L928.729 280.082ZM391.221 281.057C389.765 279.681 388.22 278.348 386.59 277.066L385.354 278.637C386.936 279.883 388.436 281.177 389.848 282.511L391.221 281.057ZM311.711 278.251C311.09 280.148 310.715 282.177 310.605 284.325L312.603 284.426C312.704 282.448 313.049 280.595 313.612 278.873L311.711 278.251ZM923.662 287.681C924.685 285.963 925.78 284.253 926.951 282.56L925.306 281.422C924.108 283.153 922.989 284.902 921.944 286.658L923.662 287.681ZM397.393 287.824C396.166 286.247 394.829 284.705 393.389 283.207L391.947 284.592C393.341 286.043 394.632 287.533 395.815 289.052L397.393 287.824ZM310.629 287.42C310.752 289.349 311.077 291.359 311.615 293.445L313.551 292.946C313.042 290.972 312.74 289.086 312.625 287.292L310.629 287.42ZM919.386 295.767C920.231 293.955 921.15 292.139 922.148 290.327L920.395 289.363C919.376 291.214 918.437 293.07 917.573 294.921L919.386 295.767ZM402.377 295.548C401.457 293.773 400.399 292.019 399.211 290.299L397.565 291.436C398.708 293.09 399.722 294.771 400.601 296.468L402.377 295.548ZM312.51 296.42C313.131 298.233 313.908 300.098 314.847 302.011L316.642 301.13C315.738 299.286 314.994 297.499 314.401 295.771L312.51 296.42ZM915.934 304.221C916.593 302.349 917.328 300.454 918.142 298.548L916.303 297.762C915.471 299.709 914.721 301.644 914.047 303.556L915.934 304.221ZM405.686 304.175C405.197 302.218 404.53 300.266 403.697 298.332L401.86 299.123C402.653 300.964 403.285 302.814 403.745 304.659L405.686 304.175ZM316.223 304.642C317.154 306.318 318.206 308.029 319.385 309.774L321.042 308.654C319.894 306.954 318.872 305.293 317.971 303.671L316.223 304.642ZM913.326 312.992C913.792 311.077 914.337 309.114 914.967 307.117L913.06 306.515C912.416 308.555 911.859 310.562 911.383 312.519L913.326 312.992ZM406.62 313.409C406.731 311.358 406.619 309.282 406.298 307.202L404.321 307.507C404.622 309.458 404.726 311.395 404.623 313.301L406.62 313.409ZM321.15 312.281C322.277 313.821 323.501 315.385 324.825 316.974L326.361 315.693C325.062 314.135 323.865 312.604 322.764 311.1L321.15 312.281ZM182.826 316.674C183.501 316.905 184.178 317.136 184.855 317.366H188.853L189.083 316.677C188.32 316.423 187.558 316.168 186.798 315.912H183.087L182.826 316.674ZM911.646 321.967C911.894 320.051 912.228 318.044 912.657 315.965L910.699 315.561C910.259 317.688 909.917 319.744 909.663 321.711L911.646 321.967ZM404.528 322.491C405.354 320.547 405.933 318.545 406.277 316.505L404.305 316.172C403.987 318.06 403.451 319.911 402.687 321.709L404.528 322.491ZM326.835 319.314C328.097 320.742 329.439 322.189 330.864 323.653L332.297 322.258C330.894 320.816 329.574 319.393 328.334 317.99L326.835 319.314ZM399.515 330.317C400.948 328.709 402.157 327.024 403.149 325.278L401.41 324.29C400.49 325.91 399.365 327.48 398.022 328.986L399.515 330.317ZM333.025 325.824C334.387 327.163 335.818 328.517 337.32 329.883L338.666 328.404C337.183 327.054 335.77 325.718 334.427 324.398L333.025 325.824ZM911.129 328.001C911.166 327.032 911.229 326.026 911.32 324.985L909.327 324.812C909.234 325.883 909.169 326.922 909.13 327.923L909.13 327.927C909.096 328.907 909.055 329.888 909.005 330.872L911.002 330.973C911.053 329.98 911.095 328.989 911.129 328.001ZM339.625 331.943C341.055 333.198 342.544 334.463 344.093 335.739L345.365 334.196C343.831 332.932 342.358 331.68 340.944 330.44L339.625 331.943ZM392.5 336.344C394.292 335.144 395.904 333.87 397.344 332.531L395.981 331.067C394.625 332.329 393.096 333.538 391.387 334.682L392.5 336.344ZM910.321 339.931C910.524 337.936 910.692 335.946 910.826 333.963L908.831 333.828C908.698 335.789 908.532 337.756 908.331 339.728L910.321 339.931ZM251.29 336.083C253.219 336.515 255.152 336.939 257.088 337.352L257.506 335.396C255.577 334.984 253.65 334.562 251.727 334.131L251.29 336.083ZM259.99 337.965C261.926 338.368 263.864 338.762 265.805 339.146L266.193 337.185C264.259 336.802 262.327 336.409 260.398 336.007L259.99 337.965ZM346.457 337.657C347.963 338.86 349.522 340.072 351.135 341.292L352.342 339.697C350.742 338.487 349.197 337.286 347.706 336.095L346.457 337.657ZM384.424 340.701C386.389 339.848 388.216 338.931 389.907 337.955L388.908 336.223C387.287 337.158 385.528 338.041 383.628 338.866L384.424 340.701ZM268.717 339.715C270.659 340.089 272.604 340.454 274.55 340.808L274.908 338.84C272.968 338.487 271.031 338.124 269.096 337.751L268.717 339.715ZM277.47 341.331C279.419 341.674 281.369 342.008 283.32 342.331L283.646 340.357C281.702 340.036 279.759 339.704 277.818 339.361L277.47 341.331ZM375.827 343.75C377.864 343.166 379.792 342.528 381.614 341.839L380.906 339.969C379.139 340.637 377.264 341.258 375.276 341.828L375.827 343.75ZM286.249 342.807C288.203 343.119 290.157 343.42 292.112 343.711L292.406 341.732C290.458 341.443 288.511 341.143 286.565 340.832L286.249 342.807ZM353.527 343.078C354.932 344.114 356.377 345.156 357.861 346.203L357.957 347.104C360.011 346.884 361.992 346.625 363.903 346.328L363.596 344.352C362.269 344.558 360.905 344.746 359.506 344.915C357.859 343.759 356.262 342.609 354.714 341.468L353.527 343.078ZM295.051 344.139C297.011 344.418 298.971 344.687 300.931 344.943L301.191 342.96C299.238 342.705 297.286 342.437 295.334 342.159L295.051 344.139ZM366.969 345.809C369.029 345.43 371.001 345.004 372.887 344.536L372.405 342.595C370.561 343.053 368.629 343.47 366.607 343.842L366.969 345.809ZM909.169 348.843C909.48 346.863 909.753 344.885 909.99 342.909L908.004 342.671C907.77 344.623 907.5 346.578 907.193 348.533L909.169 348.843ZM303.872 345.32C305.838 345.566 307.804 345.8 309.77 346.022L309.995 344.035C308.037 343.814 306.078 343.581 304.12 343.336L303.872 345.32ZM312.719 346.347C313.702 346.452 314.684 346.554 315.667 346.652C316.707 346.757 317.737 346.855 318.757 346.947L318.936 344.955C317.923 344.864 316.9 344.767 315.867 344.663C314.889 344.564 313.91 344.463 312.931 344.358L312.719 346.347ZM321.786 347.204C323.807 347.364 325.787 347.499 327.727 347.609L327.84 345.612C325.916 345.503 323.951 345.37 321.944 345.21L321.786 347.204ZM348.899 347.789C350.963 347.693 352.965 347.562 354.906 347.397L354.736 345.404C352.822 345.567 350.846 345.696 348.807 345.791L348.899 347.789ZM330.81 347.764C332.843 347.854 334.829 347.915 336.77 347.949L336.805 345.949C334.882 345.915 332.914 345.855 330.898 345.766L330.81 347.764ZM339.846 347.98C341.901 347.986 343.904 347.96 345.854 347.904L345.796 345.904C343.868 345.96 341.887 345.986 339.851 345.98L339.846 347.98ZM360.827 348.267C362.447 349.379 364.112 350.497 365.822 351.622L366.921 349.95C365.221 348.833 363.567 347.722 361.959 346.618L360.827 348.267ZM907.524 357.68C907.947 355.722 908.331 353.761 908.676 351.8L906.707 351.453C906.365 353.389 905.987 355.325 905.569 357.257L907.524 357.68ZM368.366 353.276C369.976 354.313 371.625 355.354 373.314 356.401L374.367 354.701C372.688 353.66 371.049 352.625 369.448 351.594L368.366 353.276ZM375.876 357.974C377.562 358.999 379.285 360.028 381.047 361.062L382.059 359.337C380.306 358.309 378.592 357.284 376.916 356.265L375.876 357.974ZM905.361 366.408C905.902 364.478 906.402 362.543 906.861 360.605L904.915 360.144C904.462 362.056 903.969 363.965 903.435 365.867L905.361 366.408ZM383.567 362.528C385.264 363.507 386.995 364.49 388.761 365.477L389.736 363.73C387.978 362.749 386.255 361.77 384.566 360.796L383.567 362.528ZM391.436 366.959C393.129 367.889 394.852 368.822 396.607 369.758L397.548 367.993C395.8 367.061 394.084 366.132 392.399 365.206L391.436 366.959ZM902.657 374.986C903.321 373.095 903.941 371.194 904.52 369.287L902.606 368.707C902.036 370.587 901.424 372.46 900.77 374.323L902.657 374.986ZM399.216 371.14C400.971 372.062 402.757 372.987 404.573 373.915L405.483 372.134C403.674 371.21 401.895 370.288 400.147 369.369L399.216 371.14ZM407.297 375.296C409.008 376.158 410.745 377.022 412.51 377.888L413.391 376.093C411.633 375.23 409.901 374.369 408.196 373.51L407.297 375.296ZM899.393 383.37C900.184 381.526 900.929 379.671 901.631 377.806L899.759 377.102C899.068 378.939 898.333 380.766 897.555 382.581L899.393 383.37ZM415.177 379.189C416.969 380.057 418.788 380.926 420.634 381.798L421.488 379.99C419.648 379.121 417.835 378.254 416.049 377.389L415.177 379.189ZM423.378 383.086C425.118 383.898 426.882 384.711 428.67 385.525L429.499 383.705C427.716 382.893 425.958 382.082 424.223 381.273L423.378 383.086ZM431.37 386.748C433.182 387.565 435.018 388.382 436.878 389.201L437.684 387.37C435.829 386.554 433.998 385.739 432.191 384.925L431.37 386.748ZM895.555 391.509C896.475 389.725 897.349 387.926 898.177 386.114L896.358 385.283C895.542 387.066 894.683 388.837 893.777 390.592L895.555 391.509ZM439.687 390.43C441.45 391.198 443.234 391.966 445.04 392.735L445.824 390.895C444.023 390.128 442.243 389.362 440.485 388.596L439.687 390.43ZM447.754 393.885C449.574 394.653 451.416 395.421 453.279 396.19L454.042 394.342C452.183 393.574 450.346 392.808 448.531 392.042L447.754 393.885ZM891.137 399.353C892.188 397.639 893.19 395.907 894.146 394.16L892.391 393.2C891.451 394.919 890.465 396.622 889.432 398.307L891.137 399.353ZM456.09 397.345C457.907 398.088 459.745 398.831 461.604 399.575L462.347 397.719C460.493 396.976 458.66 396.234 456.846 395.493L456.09 397.345ZM464.317 400.657C466.136 401.379 467.974 402.101 469.832 402.824L470.557 400.96C468.703 400.239 466.87 399.518 465.055 398.798L464.317 400.657ZM886.146 406.847C887.325 405.215 888.455 403.562 889.537 401.891L887.859 400.804C886.795 402.447 885.684 404.071 884.525 405.676L886.146 406.847ZM472.632 403.909C474.509 404.633 476.406 405.357 478.322 406.082L479.029 404.211C477.117 403.488 475.225 402.765 473.352 402.043L472.632 403.909ZM481.064 407.115C482.874 407.794 484.702 408.473 486.548 409.153L487.239 407.276C485.397 406.598 483.573 405.92 481.766 405.242L481.064 407.115ZM880.598 413.942C881.901 412.401 883.155 410.838 884.361 409.254L882.77 408.043C881.584 409.599 880.352 411.136 879.07 412.65L880.598 413.942ZM489.329 410.173C491.192 410.853 493.072 411.534 494.97 412.215L495.646 410.333C493.751 409.653 491.874 408.973 490.015 408.294L489.329 410.173ZM874.518 420.595C875.94 419.154 877.313 417.688 878.637 416.201L877.144 414.871C875.841 416.333 874.492 417.774 873.094 419.191L874.518 420.595ZM867.946 426.772C869.479 425.436 870.963 424.075 872.399 422.69L871.011 421.25C869.599 422.612 868.14 423.95 866.632 425.264L867.946 426.772ZM860.964 432.42C862.585 431.203 864.159 429.96 865.687 428.693L864.41 427.153C862.907 428.4 861.358 429.623 859.763 430.82L860.964 432.42ZM853.6 437.552C855.292 436.458 856.94 435.337 858.543 434.192L857.38 432.565C855.802 433.692 854.18 434.795 852.514 435.873L853.6 437.552ZM845.9 442.174C847.651 441.199 849.36 440.199 851.027 439.174L849.98 437.471C848.338 438.48 846.654 439.466 844.927 440.427L845.9 442.174ZM837.901 446.301C839.725 445.43 841.507 444.533 843.249 443.612L842.314 441.844C840.597 442.752 838.839 443.637 837.039 444.496L837.901 446.301ZM829.627 449.955C831.525 449.181 833.382 448.382 835.199 447.558L834.373 445.737C832.58 446.55 830.746 447.339 828.872 448.103L829.627 449.955ZM821.279 453.097C823.19 452.435 825.063 451.748 826.9 451.038L826.178 449.173C824.364 449.874 822.513 450.553 820.624 451.207L821.279 453.097ZM812.746 455.816C814.66 455.258 816.539 454.676 818.385 454.072L817.763 452.171C815.938 452.768 814.079 453.344 812.186 453.896L812.746 455.816ZM804.011 458.146C805.995 457.665 807.945 457.161 809.862 456.634L809.332 454.705C807.435 455.227 805.504 455.726 803.539 456.203L804.011 458.146ZM795.303 460.063C797.285 459.67 799.235 459.254 801.155 458.817L800.711 456.867C798.81 457.3 796.877 457.711 794.914 458.101L795.303 460.063ZM786.487 461.634C788.456 461.322 790.396 460.989 792.307 460.637L791.944 458.67C790.049 459.02 788.126 459.349 786.174 459.659L786.487 461.634ZM777.537 462.886C779.569 462.638 781.572 462.37 783.546 462.082L783.257 460.103C781.299 460.389 779.312 460.655 777.296 460.901L777.537 462.886Z" fill="white"/>
</svg>
