<svg width="388" height="165" viewBox="0 0 388 165" fill="none" xmlns="http://www.w3.org/2000/svg">
<path d="M387.042 105.437C368.766 105.438 330.179 123.268 297.373 47.3368C264.567 -28.5946 211.922 1.51102 215.195 47.3369C218.468 93.1629 136.453 50.4471 167.458 109.849C193.602 159.936 41.603 183.686 33.2906 142.124" stroke="white" stroke-width="2" stroke-dasharray="6 3"/>
<path opacity="0.97" d="M34.6754 136.824C34.9889 136.537 42.384 129.455 49.8835 118.977C60.1006 104.684 65.2744 91.5137 65.2744 79.8072C65.2744 61.8031 50.6413 47.1699 32.6372 47.1699C14.6332 47.1699 -3.8147e-05 61.8031 -3.8147e-05 79.8072C-3.8147e-05 91.4092 5.17384 104.579 15.3909 118.899C22.8905 129.403 30.2854 136.537 30.599 136.824H34.6754ZM32.6372 53.1016C47.3749 53.1016 59.3428 65.0956 59.3428 79.8072C59.3428 100.921 39.2221 123.628 32.6372 130.475C26.0784 123.576 5.93161 100.764 5.93161 79.8072C5.93161 65.0694 17.8995 53.1016 32.6372 53.1016Z" fill="white"/>
<path opacity="0.97" d="M32.6372 94.8584C40.9468 94.8584 47.6885 88.1167 47.6885 79.8071C47.6885 71.4976 40.9468 64.7559 32.6372 64.7559C24.3276 64.7559 17.5859 71.4976 17.5859 79.8071C17.5859 88.1167 24.3276 94.8584 32.6372 94.8584ZM32.6372 70.6875C37.6804 70.6875 41.7568 74.79 41.7568 79.8071C41.7568 84.8504 37.6543 88.9268 32.6372 88.9268C27.6201 88.9268 23.5176 84.8242 23.5176 79.8071C23.5176 74.7639 27.594 70.6875 32.6372 70.6875Z" fill="white"/>
</svg>
