<svg width="537" height="311" viewBox="0 0 537 311" fill="none" xmlns="http://www.w3.org/2000/svg">
<g clip-path="url(#clip0_1_7835)">
<path d="M89.6519 123.851H241.414L243.646 126.086V143.471L241.414 145.706H234.498V310.197L232.266 312.432H98.8394L96.6068 310.197V145.725H89.6915L87.4589 143.49V126.106L89.6519 123.851ZM101.052 307.962H229.994V299.616H101.052V307.962ZM101.052 295.146H229.994V286.8H101.052V295.146ZM101.052 282.311H229.994V273.964H101.052V282.311ZM101.052 269.495H229.994V261.148H101.052V269.495ZM101.052 256.659H229.994V248.313H101.052V256.659ZM101.052 243.843H229.994V235.497H101.052V243.843ZM101.052 231.007H229.994V222.661H101.052V231.007ZM101.052 218.191H229.994V209.845H101.052V218.191ZM101.052 205.355H229.994V197.009H101.052V205.355ZM101.052 192.539H229.994V184.193H101.052V192.539ZM101.052 179.704H229.994V171.357H101.052V179.704ZM101.052 166.888H229.994V158.541H101.052V166.888ZM101.052 154.052H229.994V145.725H101.052V154.052ZM91.8847 141.236H98.8H232.226H239.142V128.341H91.8649V141.236H91.8847Z" fill="white"/>
<path d="M256.646 123.851H408.408L410.641 126.086V143.471L408.408 145.706H401.493V191.55C401.493 192.796 400.485 193.785 399.26 193.785C398.035 193.785 397.027 192.777 397.027 191.55V171.357H268.086V310.197C268.086 311.443 267.079 312.432 265.854 312.432C264.629 312.432 263.621 311.424 263.621 310.197V145.725H256.706L254.473 143.49V126.106L256.646 123.851ZM397.008 166.888V158.541H268.066V166.888H397.008ZM268.066 154.052H397.008V145.725H268.066V154.052ZM258.899 141.236H265.814H399.24H406.156V128.341H258.879V141.236H258.899Z" fill="white"/>
<path fill-rule="evenodd" clip-rule="evenodd" d="M267.965 77.3732H35.2346L33.002 75.1383V72.8981H37.4673V72.9034H265.712V30.2032H93.8901V25.7334H267.965L270.197 27.9683V75.1383L267.965 77.3732Z" fill="white"/>
<path fill-rule="evenodd" clip-rule="evenodd" d="M465.197 72.8981V75.1383L462.965 77.3732H230.235L228.002 75.1383V27.9683L230.235 25.7334H410.923V30.2032H232.467V72.9034H460.712V72.8981H465.197Z" fill="white"/>
<path d="M35.0598 49.3086H132.665C133.909 49.3086 134.897 50.3173 134.897 51.5435C134.897 52.7895 133.89 53.7784 132.665 53.7784H37.2924V87.8357H48.1593H449.9H460.767V53.7982H365.395C364.15 53.7982 363.162 52.7895 363.162 51.5633C363.162 50.3173 364.17 49.3284 365.395 49.3284H463L465.232 51.5633V90.1101L463 92.345H452.133V191.273C452.133 192.519 451.125 193.508 449.9 193.508C448.675 193.508 447.668 192.5 447.668 191.273V92.345H50.4118V307.962H449.92C451.165 307.962 452.153 308.971 452.153 310.197C452.153 311.423 451.145 312.432 449.92 312.432H48.1791L45.9465 310.197V92.345H35.0795L32.8468 90.1101V51.5435L35.0598 49.3086Z" fill="white"/>
<rect x="32.251" y="42.1294" width="432.981" height="30.7688" fill="#7700D1"/>
<rect x="120.692" y="30.1348" width="311.664" height="29.8199" fill="#7700D1"/>
<path fill-rule="evenodd" clip-rule="evenodd" d="M133.193 72.8981V73.1899H128.843V72.8981H133.193ZM97.1365 30.1386V25.7822C96.4929 25.7498 95.8451 25.7334 95.1934 25.7334H70.8458C49.859 25.7334 32.8458 42.7466 32.8458 63.7334V73.1899H37.1958V63.7334C37.1958 45.149 52.2614 30.0834 70.8458 30.0834H95.1934C95.8456 30.0834 96.4935 30.102 97.1365 30.1386Z" fill="white"/>
<path fill-rule="evenodd" clip-rule="evenodd" d="M364.885 72.8981V73.1899H369.235V72.8981H364.885ZM400.942 30.1386V25.7822C401.585 25.7498 402.233 25.7334 402.885 25.7334H427.232C448.219 25.7334 465.232 42.7466 465.232 63.7334V73.1899H460.882V63.7334C460.882 45.149 445.817 30.0834 427.232 30.0834H402.885C402.233 30.0834 401.585 30.102 400.942 30.1386Z" fill="white"/>
<path fill-rule="evenodd" clip-rule="evenodd" d="M353.023 239.202V200.384H357.705V239.202H353.023ZM365.094 249.431V244.765H404.703V249.431H365.094ZM416.774 200.384H412.113V239.202H416.774L416.774 200.384ZM399.948 185.616H369.994V190.303H399.948V185.616Z" fill="white"/>
<path fill-rule="evenodd" clip-rule="evenodd" d="M370.716 211.942H379.888H389.627H398.798L401.219 209.586V191.183C401.219 189.883 400.134 188.827 398.798 188.827C397.462 188.827 396.377 189.883 396.377 191.183V207.189H389.627H379.888H373.137V191.183C373.137 189.883 372.052 188.827 370.716 188.827C369.38 188.827 368.295 189.883 368.295 191.183V209.586L370.716 211.942Z" fill="white"/>
<path fill-rule="evenodd" clip-rule="evenodd" d="M371.702 190.705V185.674C371.268 185.636 370.829 185.616 370.385 185.616H367.709C359.598 185.616 353.023 192.191 353.023 200.302L353.023 200.384H358.023C358.023 200.357 358.023 200.329 358.023 200.302C358.023 194.953 362.359 190.616 367.709 190.616H370.385C370.832 190.616 371.271 190.646 371.702 190.705Z" fill="white"/>
<path fill-rule="evenodd" clip-rule="evenodd" d="M398.095 190.676V185.656C398.453 185.63 398.815 185.616 399.18 185.616H402.413C410.524 185.616 417.099 192.191 417.099 200.302L417.098 200.385H412.098C412.099 200.357 412.099 200.329 412.099 200.302C412.099 194.953 407.762 190.616 402.413 190.616H399.18C398.813 190.616 398.451 190.637 398.095 190.676Z" fill="white"/>
<path fill-rule="evenodd" clip-rule="evenodd" d="M394.609 244.731V249.431H404.145C411.12 249.431 416.775 243.776 416.775 236.801L416.774 236.73H412.074C412.074 236.754 412.075 236.777 412.075 236.801C412.075 241.181 408.524 244.731 404.145 244.731H394.609Z" fill="white"/>
<path fill-rule="evenodd" clip-rule="evenodd" d="M375.188 244.731V249.431H365.653C358.678 249.431 353.023 243.776 353.023 236.801L353.023 236.73H357.724C357.723 236.754 357.723 236.777 357.723 236.801C357.723 241.181 361.273 244.731 365.653 244.731H375.188Z" fill="white"/>
<path fill-rule="evenodd" clip-rule="evenodd" d="M322.483 302.202V263.384H327.165V302.202H322.483ZM334.554 312.431V307.765H374.163V312.431H334.554ZM386.234 263.384H381.573V302.202H386.234L386.234 263.384ZM369.408 248.616H339.454V253.303H369.408V248.616Z" fill="white"/>
<path fill-rule="evenodd" clip-rule="evenodd" d="M340.176 274.942H349.347H359.087H368.258L370.679 272.586V254.183C370.679 252.883 369.594 251.827 368.258 251.827C366.922 251.827 365.837 252.883 365.837 254.183V270.189H359.087H349.347H342.597V254.183C342.597 252.883 341.512 251.827 340.176 251.827C338.84 251.827 337.755 252.883 337.755 254.183V272.586L340.176 274.942Z" fill="white"/>
<path fill-rule="evenodd" clip-rule="evenodd" d="M341.162 253.705V248.674C340.728 248.636 340.289 248.616 339.845 248.616H337.169C329.058 248.616 322.483 255.191 322.483 263.302L322.483 263.384H327.483C327.483 263.357 327.483 263.329 327.483 263.302C327.483 257.953 331.819 253.616 337.169 253.616H339.845C340.292 253.616 340.731 253.646 341.162 253.705Z" fill="white"/>
<path fill-rule="evenodd" clip-rule="evenodd" d="M367.555 253.675V248.655C367.909 248.629 368.268 248.616 368.629 248.616H371.888C379.999 248.616 386.574 255.191 386.574 263.302L386.573 263.385H381.573C381.574 263.357 381.574 263.329 381.574 263.302C381.574 257.953 377.237 253.616 371.888 253.616H368.629C368.266 253.616 367.907 253.636 367.555 253.675Z" fill="white"/>
<path fill-rule="evenodd" clip-rule="evenodd" d="M364.068 307.731V312.431H373.604C380.579 312.431 386.234 306.776 386.234 299.801L386.233 299.73H381.533C381.533 299.754 381.534 299.777 381.534 299.801C381.534 304.181 377.983 307.731 373.604 307.731H364.068Z" fill="white"/>
<path fill-rule="evenodd" clip-rule="evenodd" d="M344.648 307.731V312.431H335.113C328.138 312.431 322.483 306.776 322.483 299.801L322.483 299.73H327.184C327.183 299.754 327.183 299.777 327.183 299.801C327.183 304.181 330.733 307.731 335.113 307.731H344.648Z" fill="white"/>
<path fill-rule="evenodd" clip-rule="evenodd" d="M412.473 239.202V200.384H417.154V239.202H412.473ZM424.543 249.431V244.765H464.153V249.431H424.543ZM476.223 200.384H471.562V239.202H476.223L476.223 200.384ZM459.397 185.616H429.443V190.303H459.397V185.616Z" fill="white"/>
<path fill-rule="evenodd" clip-rule="evenodd" d="M430.165 211.942H439.337H449.076H458.247L460.669 209.586V191.183C460.669 189.883 459.583 188.827 458.247 188.827C456.911 188.827 455.826 189.883 455.826 191.183V207.189H449.076H439.337H432.587V191.183C432.587 189.883 431.501 188.827 430.165 188.827C428.83 188.827 427.744 189.883 427.744 191.183V209.586L430.165 211.942Z" fill="white"/>
<path fill-rule="evenodd" clip-rule="evenodd" d="M431.151 190.674V185.654C430.8 185.629 430.446 185.616 430.088 185.616H426.803C418.692 185.616 412.117 192.191 412.117 200.302L412.117 200.385H417.117C417.117 200.357 417.117 200.329 417.117 200.302C417.117 194.953 421.453 190.616 426.803 190.616H430.088C430.448 190.616 430.802 190.636 431.151 190.674Z" fill="white"/>
<path fill-rule="evenodd" clip-rule="evenodd" d="M457.544 190.705V185.674C457.978 185.636 458.417 185.616 458.861 185.616H461.537C469.648 185.616 476.223 192.191 476.223 200.302L476.223 200.384H471.223C471.223 200.357 471.223 200.329 471.223 200.302C471.223 194.953 466.887 190.616 461.537 190.616H458.861C458.414 190.616 457.975 190.646 457.544 190.705Z" fill="white"/>
<path fill-rule="evenodd" clip-rule="evenodd" d="M454.058 244.731V249.431H463.593C470.568 249.431 476.223 243.776 476.223 236.801L476.223 236.73H471.523C471.523 236.754 471.523 236.777 471.523 236.801C471.523 241.181 467.973 244.731 463.593 244.731H454.058Z" fill="white"/>
<path fill-rule="evenodd" clip-rule="evenodd" d="M434.638 244.731V249.431H425.102C418.127 249.431 412.472 243.776 412.472 236.801L412.473 236.73H417.173C417.173 236.754 417.172 236.777 417.172 236.801C417.172 241.181 420.723 244.731 425.102 244.731H434.638Z" fill="white"/>
<rect x="437.973" y="190.236" width="16.8584" height="16.9554" fill="#7700D1"/>
<rect x="437.973" y="211.942" width="22.6959" height="32.6528" fill="#7700D1"/>
<path fill-rule="evenodd" clip-rule="evenodd" d="M381.933 302.202V263.384H386.614V302.202H381.933ZM394.003 312.431V307.765H433.613V312.431H394.003ZM445.683 263.384H441.022V302.202H445.683L445.683 263.384ZM428.857 248.616H398.903V253.303H428.857V248.616Z" fill="white"/>
<path fill-rule="evenodd" clip-rule="evenodd" d="M399.625 274.942H408.797H418.536H427.707L430.128 272.586V254.183C430.128 252.883 429.043 251.827 427.707 251.827C426.371 251.827 425.286 252.883 425.286 254.183V270.189H418.536H408.797H402.047V254.183C402.047 252.883 400.961 251.827 399.625 251.827C398.289 251.827 397.204 252.883 397.204 254.183V272.586L399.625 274.942Z" fill="white"/>
<path fill-rule="evenodd" clip-rule="evenodd" d="M400.611 253.705V248.674C400.177 248.636 399.738 248.616 399.294 248.616H396.317C388.206 248.616 381.631 255.191 381.631 263.302L381.631 263.384H386.631C386.631 263.357 386.631 263.329 386.631 263.302C386.631 257.953 390.967 253.616 396.317 253.616H399.294C399.741 253.616 400.181 253.646 400.611 253.705Z" fill="white"/>
<path fill-rule="evenodd" clip-rule="evenodd" d="M427.004 253.705V248.674C427.438 248.636 427.877 248.616 428.321 248.616H431.334C439.445 248.616 446.02 255.191 446.02 263.302L446.019 263.384H441.019C441.02 263.357 441.02 263.329 441.02 263.302C441.02 257.953 436.683 253.616 431.334 253.616H428.321C427.874 253.616 427.435 253.646 427.004 253.705Z" fill="white"/>
<path fill-rule="evenodd" clip-rule="evenodd" d="M423.518 307.731V312.431H433.053C440.028 312.431 445.683 306.776 445.683 299.801L445.683 299.73H440.982C440.983 299.754 440.983 299.777 440.983 299.801C440.983 304.181 437.433 307.731 433.053 307.731H423.518Z" fill="white"/>
<path fill-rule="evenodd" clip-rule="evenodd" d="M404.098 307.731V312.431H394.562C387.587 312.431 381.932 306.776 381.932 299.801L381.933 299.73H386.633C386.633 299.754 386.632 299.777 386.632 299.801C386.632 304.181 390.183 307.731 394.562 307.731H404.098Z" fill="white"/>
<path fill-rule="evenodd" clip-rule="evenodd" d="M441.943 302.202V263.384H446.625V302.202H441.943ZM454.014 312.431V307.765H493.623V312.431H454.014ZM505.694 263.384H501.033V302.202H505.694L505.694 263.384ZM488.868 248.616H458.914V253.303H488.868V248.616Z" fill="white"/>
<path fill-rule="evenodd" clip-rule="evenodd" d="M459.636 274.942H468.807H478.547H487.718L490.139 272.586V254.183C490.139 252.883 489.054 251.827 487.718 251.827C486.382 251.827 485.297 252.883 485.297 254.183V270.189H478.547H468.807H462.057V254.183C462.057 252.883 460.972 251.827 459.636 251.827C458.3 251.827 457.215 252.883 457.215 254.183V272.586L459.636 274.942Z" fill="white"/>
<path fill-rule="evenodd" clip-rule="evenodd" d="M460.622 253.705V248.674C460.188 248.636 459.749 248.616 459.305 248.616H456.331C448.221 248.616 441.646 255.191 441.646 263.302L441.646 263.384H446.646C446.646 263.357 446.646 263.329 446.646 263.302C446.646 257.953 450.982 253.616 456.331 253.616H459.305C459.752 253.616 460.191 253.646 460.622 253.705Z" fill="white"/>
<path fill-rule="evenodd" clip-rule="evenodd" d="M487.015 253.705V248.674C487.449 248.636 487.888 248.616 488.332 248.616H491.008C499.119 248.616 505.694 255.191 505.694 263.302L505.694 263.384H500.693C500.694 263.357 500.694 263.329 500.694 263.302C500.694 257.953 496.357 253.616 491.008 253.616H488.332C487.885 253.616 487.445 253.646 487.015 253.705Z" fill="white"/>
<path fill-rule="evenodd" clip-rule="evenodd" d="M483.528 307.731V312.431H493.064C500.039 312.431 505.694 306.776 505.694 299.801L505.693 299.73H500.993C500.993 299.754 500.994 299.777 500.994 299.801C500.994 304.181 497.443 307.731 493.064 307.731H483.528Z" fill="white"/>
<path fill-rule="evenodd" clip-rule="evenodd" d="M464.108 307.731V312.431H454.573C447.598 312.431 441.943 306.776 441.943 299.801L441.943 299.73H446.643C446.643 299.754 446.643 299.777 446.643 299.801C446.643 304.181 450.193 307.731 454.573 307.731H464.108Z" fill="white"/>
</g>
<defs>
<clipPath id="clip0_1_7835">
<rect width="537" height="311" fill="white" transform="matrix(-1 0 0 1 537 0)"/>
</clipPath>
</defs>
</svg>
