<svg width="360" height="177" viewBox="0 0 360 177" fill="none" xmlns="http://www.w3.org/2000/svg">
<g clip-path="url(#clip0_1_7721)">
<rect x="76.4814" y="4.41797" width="159.599" height="117.65" fill="#7700D1"/>
<path d="M206.627 42.0132L281.717 44.7275L309.375 71.2193L347.77 108.926L354.138 118.402L356.686 129.037L354.138 146.597L339.042 148.691L335.054 149.887L206.627 152.942V42.0132Z" fill="#7700D1"/>
<path d="M23.9235 69.7605H2.53983C1.14702 69.7605 0 68.6099 0 67.2128C0 65.8156 1.14702 64.665 2.53983 64.665H23.9235C25.3163 64.665 26.4634 65.8156 26.4634 67.2128C26.4634 68.651 25.3163 69.7605 23.9235 69.7605Z" fill="white"/>
<path d="M46.4948 42.9681H25.1111C23.7183 42.9681 22.5713 41.8175 22.5713 40.4203C22.5713 39.0232 23.7183 37.8726 25.1111 37.8726H46.4948C47.8876 37.8726 49.0346 39.0232 49.0346 40.4203C49.0346 41.8175 47.8876 42.9681 46.4948 42.9681Z" fill="white"/>
<path d="M46.4948 96.594H25.1111C23.7183 96.594 22.5713 95.4434 22.5713 94.0463C22.5713 92.6491 23.7183 91.4985 25.1111 91.4985H46.4948C47.8876 91.4985 49.0346 92.6491 49.0346 94.0463C49.0346 95.4434 47.8876 96.594 46.4948 96.594Z" fill="white"/>
<path d="M356.477 127.66C356.395 127.66 356.313 127.66 356.231 127.66C340.787 126.016 330.464 107.525 330.014 106.744L332.103 103.21H348.571C349.882 103.21 350.947 104.278 350.947 105.593C350.947 106.908 349.882 107.977 348.571 107.977H336.445C340.009 113.072 347.506 121.948 356.723 122.934C358.034 123.058 358.976 124.249 358.853 125.564C358.689 126.756 357.665 127.66 356.477 127.66Z" fill="white"/>
<path d="M345.335 151.165H334.971C333.66 151.165 332.595 150.097 332.595 148.782C332.595 147.467 333.66 146.398 334.971 146.398H345.335C350.783 146.398 355.207 141.96 355.207 136.495V122.729C355.207 116.688 351.152 108.511 346.4 104.854L346.236 104.73L284.42 48.1046C281.061 45.598 279.054 45.598 274.343 45.6802C273.523 45.6802 272.622 45.7213 271.68 45.7213H239.522C238.212 45.7213 237.146 44.6528 237.146 43.3379C237.146 42.0229 238.212 40.9545 239.522 40.9545H271.68C272.622 40.9545 273.482 40.9545 274.302 40.9134C279.34 40.8312 282.659 40.7901 287.37 44.3652L287.533 44.4885L349.349 101.073C355.289 105.676 359.959 115.168 359.959 122.688V136.454C360 144.549 353.405 151.165 345.335 151.165Z" fill="white"/>
<path d="M284.215 151.165H238.457C237.146 151.165 236.081 150.097 236.081 148.782C236.081 147.467 237.146 146.398 238.457 146.398H284.215C285.526 146.398 286.591 147.467 286.591 148.782C286.591 150.097 285.526 151.165 284.215 151.165Z" fill="white"/>
<path d="M309.573 176.683C294.293 176.683 281.84 164.191 281.84 148.864C281.84 133.536 294.293 121.044 309.573 121.044C324.853 121.044 337.306 133.536 337.306 148.864C337.347 164.191 324.894 176.683 309.573 176.683ZM309.573 125.811C296.915 125.811 286.592 136.166 286.592 148.864C286.592 161.561 296.915 171.917 309.573 171.917C322.231 171.917 332.554 161.561 332.554 148.864C332.554 136.166 322.272 125.811 309.573 125.811Z" fill="white"/>
<path d="M309.573 162.547C302.035 162.547 295.932 156.425 295.932 148.864C295.932 141.302 302.035 135.18 309.573 135.18C317.111 135.18 323.214 141.302 323.214 148.864C323.214 156.425 317.111 162.547 309.573 162.547ZM309.573 139.946C304.657 139.946 300.684 143.932 300.684 148.864C300.684 153.795 304.657 157.781 309.573 157.781C314.489 157.781 318.462 153.795 318.462 148.864C318.462 143.932 314.489 139.946 309.573 139.946Z" fill="white"/>
<path d="M285.69 125.811H252.263C250.952 125.811 249.887 124.742 249.887 123.427C249.887 122.112 250.952 121.044 252.263 121.044H285.69C287.001 121.044 288.066 122.112 288.066 123.427C288.066 124.742 287.001 125.811 285.69 125.811Z" fill="white"/>
<path d="M317.643 92.4026H252.263L249.887 90.0192V54.5562L252.263 52.1729H280.037L281.676 52.8303L319.281 88.2933L317.643 92.4026ZM254.639 87.6358H311.662L279.095 56.9396H254.639V87.6358Z" fill="white"/>
<path d="M238.335 149.768C237.024 149.768 235.959 148.7 235.959 147.385V43.6256C235.959 42.3106 237.024 41.2422 238.335 41.2422C239.646 41.2422 240.711 42.3106 240.711 43.6256V147.385C240.711 148.7 239.646 149.768 238.335 149.768Z" fill="white"/>
<path d="M256.523 151.165H162.386C161.075 151.165 160.01 150.097 160.01 148.782C160.01 147.467 161.075 146.398 162.386 146.398H256.523C257.834 146.398 258.899 147.467 258.899 148.782C258.899 150.097 257.834 151.165 256.523 151.165Z" fill="white"/>
<path d="M111.671 151.165H108.148C100.528 151.165 94.3428 144.96 94.3428 137.317V123.427C94.3428 122.112 95.4079 121.044 96.7187 121.044C98.0296 121.044 99.0947 122.112 99.0947 123.427V137.317C99.0947 142.33 103.15 146.398 108.148 146.398H111.671C112.982 146.398 114.047 147.467 114.047 148.782C114.047 150.096 112.982 151.165 111.671 151.165Z" fill="white"/>
<path d="M137.028 176.683C121.748 176.683 109.295 164.191 109.295 148.864C109.295 133.536 121.748 121.044 137.028 121.044C152.308 121.044 164.762 133.536 164.762 148.864C164.762 164.191 152.308 176.683 137.028 176.683ZM137.028 125.811C124.37 125.811 114.047 136.166 114.047 148.864C114.047 161.561 124.37 171.917 137.028 171.917C149.686 171.917 160.01 161.561 160.01 148.864C160.01 136.166 149.686 125.811 137.028 125.811Z" fill="white"/>
<path d="M137.028 162.547C129.49 162.547 123.387 156.425 123.387 148.864C123.387 141.303 129.49 135.18 137.028 135.18C144.566 135.18 150.669 141.303 150.669 148.864C150.669 156.425 144.525 162.547 137.028 162.547ZM137.028 139.946C132.112 139.946 128.139 143.932 128.139 148.864C128.139 153.795 132.112 157.781 137.028 157.781C141.944 157.781 145.917 153.795 145.917 148.864C145.917 143.932 141.903 139.946 137.028 139.946Z" fill="white"/>
<rect x="334.895" y="150.16" width="2.75615" height="8.71269" transform="rotate(-90 334.895 150.16)" fill="white"/>
<rect x="254.569" y="150.16" width="2.75615" height="28.6644" transform="rotate(-90 254.569 150.16)" fill="white"/>
<rect x="162.656" y="150.16" width="2.75615" height="28.6644" transform="rotate(-90 162.656 150.16)" fill="white"/>
<path d="M266.436 74.6505C265.904 74.6505 265.33 74.445 264.88 74.0752C263.897 73.2122 263.774 71.7329 264.634 70.7056L279.054 53.7343C279.914 52.7481 281.389 52.6248 282.413 53.4877C283.396 54.3507 283.519 55.83 282.658 56.8573L268.239 73.8286C267.788 74.4039 267.092 74.6505 266.436 74.6505Z" fill="white"/>
<path d="M267.297 92.4027C266.764 92.4027 266.191 92.1972 265.74 91.8274C264.757 90.9644 264.634 89.4851 265.494 88.4578L281.798 69.2675C282.659 68.2813 284.133 68.158 285.157 69.0209C286.141 69.8839 286.263 71.3632 285.403 72.3905L269.14 91.5808C268.649 92.115 267.993 92.4027 267.297 92.4027Z" fill="white"/>
<path d="M263.282 98.854H252.263V103.621H263.282V98.854Z" fill="white"/>
<path fill-rule="evenodd" clip-rule="evenodd" d="M74.0576 36.2972V123.427L76.4336 125.811H238.778L241.154 123.427V36.2972H236.402V121.044H78.8096V36.2972H74.0576ZM118.91 5.45035H194V0.683594H118.91V5.45035Z" fill="white"/>
<rect x="350.488" y="104.217" width="2.75615" height="5.30178" transform="rotate(90 350.488 104.217)" fill="white"/>
<rect x="358.243" y="123.72" width="2.78785" height="3.15145" transform="rotate(90 358.243 123.72)" fill="white"/>
<rect x="273.75" y="88.6494" width="2.75342" height="8.83124" transform="rotate(90 273.75 88.6494)" fill="white"/>
<path d="M112.429 54.4042C113.881 54.4042 114.979 54.7978 115.724 55.585C116.482 56.3588 116.861 57.4996 116.861 59.0072V63.8103C116.861 65.318 116.482 66.4654 115.724 67.2526C114.979 68.0264 113.881 68.4133 112.429 68.4133H104.914V54.4042H112.429ZM113.393 59.0072C113.393 57.8064 112.815 57.2061 111.658 57.2061H108.383V65.6115H111.658C112.815 65.6115 113.393 65.0111 113.393 63.8103V59.0072Z" fill="white"/>
<path d="M128.033 58.2067C128.033 57.4062 127.647 57.0059 126.876 57.0059H123.601C122.83 57.0059 122.444 57.4062 122.444 58.2067V64.6109C122.444 65.4114 122.83 65.8116 123.601 65.8116H126.876C127.647 65.8116 128.033 65.4114 128.033 64.6109V58.2067ZM131.501 64.6109C131.501 66.0118 131.193 67.0324 130.576 67.6728C129.972 68.2999 128.996 68.6135 127.647 68.6135H122.83C121.481 68.6135 120.498 68.2999 119.881 67.6728C119.278 67.0324 118.976 66.0118 118.976 64.6109V58.2067C118.976 56.8058 119.278 55.7918 119.881 55.1647C120.498 54.5243 121.481 54.2041 122.83 54.2041H127.647C128.996 54.2041 129.972 54.5243 130.576 55.1647C131.193 55.7918 131.501 56.8058 131.501 58.2067V64.6109Z" fill="white"/>
<path d="M133.611 65.5114C137.131 65.7116 139.514 65.8116 140.76 65.8116C141.055 65.8116 141.286 65.7249 141.453 65.5515C141.633 65.3647 141.723 65.1179 141.723 64.811V63.0098H137.291C135.942 63.0098 134.959 62.6963 134.343 62.0692C133.739 61.4288 133.437 60.4081 133.437 59.0072V58.4068C133.437 57.0059 133.739 55.9919 134.343 55.3649C134.959 54.7244 135.942 54.4042 137.291 54.4042H144.055V57.2061H138.062C137.291 57.2061 136.906 57.6063 136.906 58.4068V58.8071C136.906 59.6076 137.291 60.0079 138.062 60.0079H141.53C142.789 60.0079 143.714 60.3147 144.305 60.9285C144.896 61.5422 145.192 62.5028 145.192 63.8103V64.811C145.192 66.1185 144.896 67.0791 144.305 67.6929C143.714 68.3066 142.789 68.6135 141.53 68.6135C140.875 68.6135 140.182 68.6001 139.449 68.5734L137.676 68.4934C136.366 68.4267 135.011 68.3333 133.611 68.2132V65.5114Z" fill="white"/>
<path d="M153.095 68.4133H149.626V57.2061H145.579V54.4042H157.141V57.2061H153.095V68.4133Z" fill="white"/>
<path d="M160.124 68.4133H156.367L161.473 54.4042H165.327L170.434 68.4133H166.676L165.809 65.9117H160.991L160.124 68.4133ZM161.859 63.31H164.942L163.4 58.607L161.859 63.31Z" fill="white"/>
<path d="M176.304 64.2106L179.58 54.4042H183.338L178.231 68.4133H174.377L169.271 54.4042H173.028L176.304 64.2106Z" fill="white"/>
<path d="M195.573 68.4133H184.878V54.4042H195.573V57.2061H188.347V59.9078H194.032V62.7096H188.347V65.6115H195.573V68.4133Z" fill="white"/>
<path d="M197.688 54.4042H205.782C207.131 54.4042 208.107 54.7244 208.711 55.3649C209.327 55.9919 209.636 57.0059 209.636 58.4068V60.208C209.636 61.3154 209.456 62.1759 209.096 62.7897C208.749 63.4034 208.19 63.8103 207.42 64.0105L209.828 68.4133H206.071L203.855 64.2106H201.157V68.4133H197.688V54.4042ZM206.167 58.4068C206.167 57.6063 205.782 57.2061 205.011 57.2061H201.157V61.4088H205.011C205.782 61.4088 206.167 61.0085 206.167 60.208V58.4068Z" fill="white"/>
<rect x="244.92" y="41.9531" width="2.75621" height="7.53412" transform="rotate(90 244.92 41.9531)" fill="white"/>
<rect x="236.971" y="122.595" width="2.75615" height="25.9179" fill="white"/>
<path fill-rule="evenodd" clip-rule="evenodd" d="M177.429 5.48359H204.126C221.837 5.48359 236.215 19.7549 236.387 37.4253H241.188C241.015 17.1039 224.488 0.683594 204.126 0.683594H177.429C175.801 0.683594 174.197 0.788592 172.624 0.992188H176.506V5.49655C176.812 5.48793 177.12 5.48359 177.429 5.48359Z" fill="white"/>
<path fill-rule="evenodd" clip-rule="evenodd" d="M137.816 5.48359H111.119C93.4076 5.48359 79.0298 19.7549 78.8577 37.4253H74.0574C74.2298 17.1039 90.7567 0.683594 111.119 0.683594H137.816C139.445 0.683594 141.048 0.788592 142.621 0.992188H138.74V5.49655C138.433 5.48793 138.125 5.48359 137.816 5.48359Z" fill="white"/>
</g>
<defs>
<clipPath id="clip0_1_7721">
<rect width="360" height="176" fill="white" transform="translate(0 0.683594)"/>
</clipPath>
</defs>
</svg>
