<svg width="41" height="54" viewBox="0 0 41 54" fill="none" xmlns="http://www.w3.org/2000/svg">
<g id="Group 140">
<path id="Vector" d="M19.3177 53.9148C19.1294 53.7426 14.69 49.4987 10.1879 43.2191C4.05426 34.6531 0.948242 26.7605 0.948242 19.7448C0.948242 8.95513 9.73291 0.185547 20.5412 0.185547C31.3495 0.185547 40.1342 8.95513 40.1342 19.7448C40.1342 26.6978 37.0282 34.5905 30.8946 43.1721C26.3925 49.4674 21.953 53.7426 21.7648 53.9148H19.3177ZM20.5412 3.74035C11.6938 3.74035 4.50918 10.9283 4.50918 19.7448C4.50918 32.4137 16.5882 46.0065 20.5412 50.1095C24.4787 45.9753 36.5733 32.2884 36.5733 19.7448C36.5733 10.9126 29.3887 3.74035 20.5412 3.74035Z" fill="white"/>
<path id="Vector_2" d="M20.5405 28.7649C15.5521 28.7649 11.5049 24.7246 11.5049 19.7447C11.5049 14.7649 15.5521 10.7246 20.5405 10.7246C25.529 10.7246 29.5763 14.7649 29.5763 19.7447C29.5763 24.7246 25.529 28.7649 20.5405 28.7649ZM20.5405 14.2794C17.5129 14.2794 15.0658 16.7224 15.0658 19.7447C15.0658 22.7671 17.5287 25.21 20.5405 25.21C23.5681 25.21 26.0153 22.7515 26.0153 19.7447C26.0153 16.738 23.5681 14.2794 20.5405 14.2794Z" fill="white"/>
</g>
</svg>
