<svg xmlns="http://www.w3.org/2000/svg" width="1920" height="761" fill="none"><g fill="#fff" clip-path="url(#a)" opacity=".05"><path d="M1299.3 753.628c-1.5 0-2.7-1.209-2.7-2.714V644.186c0-1.505 1.2-2.713 2.7-2.713 1.5 0 2.7 1.208 2.7 2.713v106.728c0 1.505-1.2 2.714-2.7 2.714Z"/><path d="M1314.71 646.9h-30.82c-4.43 0-8.04-3.626-8.04-8.073v-20c0-4.447 3.61-8.073 8.04-8.073h30.82c4.43 0 8.04 3.626 8.04 8.073v20c0 4.47-3.61 8.073-8.04 8.073Zm-30.82-30.695a2.612 2.612 0 0 0-2.61 2.622v20c0 1.46 1.18 2.623 2.61 2.623h30.82c1.46 0 2.61-1.186 2.61-2.623v-20a2.616 2.616 0 0 0-2.61-2.622h-30.82Z"/><path d="M1310.49 626.421h-11.46c-1.5 0-2.7-1.208-2.7-2.714 0-1.505 1.2-2.713 2.7-2.713h11.46c1.5 0 2.7 1.208 2.7 2.713 0 1.483-1.2 2.714-2.7 2.714ZM1291.24 626.421h-3.13c-1.5 0-2.7-1.208-2.7-2.714 0-1.505 1.2-2.713 2.7-2.713h3.13c1.5 0 2.7 1.208 2.7 2.713.02 1.483-1.2 2.714-2.7 2.714ZM1310.49 636.683h-11.46c-1.5 0-2.7-1.208-2.7-2.713 0-1.505 1.2-2.714 2.7-2.714h11.46c1.5 0 2.7 1.209 2.7 2.714s-1.2 2.713-2.7 2.713ZM1291.24 636.683h-3.13c-1.5 0-2.7-1.208-2.7-2.713 0-1.505 1.2-2.714 2.7-2.714h3.13c1.5 0 2.7 1.209 2.7 2.714s-1.2 2.713-2.7 2.713ZM1273.63 597.39l-1.57-4.926H1001.9l-1.57 4.926 18.23 13.158v141.026l2.7 2.714h231.41l2.7-2.714V610.548l18.26-13.158Zm-9.97.501-11.85 8.552h-229.67l-11.85-8.552h253.37Zm-164.01 13.98v98.654h-31.9l-2.7 2.714v11.927l2.7 2.714h31.92v20.981h-63.84v-136.99h63.82Zm69.23 0v98.654h-63.81v-98.654h63.81Zm2.77 110.559H1070.45v-6.477h133.05v6.477h-31.85Zm-66.58 5.45h63.84v20.981h-63.84V727.88Zm69.22 0h31.91l2.7-2.714v-11.927l-2.7-2.714h-31.91v-98.654h63.83v136.99h-63.83V727.88Zm-150.33-116.009h6.45v136.99h-6.45v-136.99Zm226.03 136.967h-6.47V611.871h6.45v136.967h.02Z"/><path d="M1470.08 759.184h-394.53a2.43 2.43 0 0 1-2.43-2.448 2.43 2.43 0 0 1 2.43-2.448h394.53c1.35 0 2.44 1.09 2.44 2.448a2.439 2.439 0 0 1-2.44 2.448ZM1077 548.795c-1.28 0-2.3-1.031-2.3-2.316v-13.797a2.298 2.298 0 0 1 2.3-2.316c1.28 0 2.31 1.031 2.31 2.316v13.797a2.307 2.307 0 0 1-2.31 2.316ZM1077 576.722c-1.28 0-2.3-1.031-2.3-2.316v-13.798a2.299 2.299 0 0 1 2.3-2.316c1.28 0 2.31 1.032 2.31 2.316v13.798a2.307 2.307 0 0 1-2.31 2.316ZM1077 520.888c-1.28 0-2.3-1.031-2.3-2.316v-13.798a2.299 2.299 0 0 1 2.3-2.316c1.28 0 2.31 1.032 2.31 2.316v13.798a2.32 2.32 0 0 1-2.31 2.316ZM1096.4 548.795a2.307 2.307 0 0 1-2.31-2.316v-13.797a2.307 2.307 0 0 1 2.31-2.316c1.28 0 2.31 1.031 2.31 2.316v13.797a2.307 2.307 0 0 1-2.31 2.316ZM1096.4 576.722a2.307 2.307 0 0 1-2.31-2.316v-13.798a2.307 2.307 0 0 1 2.31-2.316c1.28 0 2.31 1.032 2.31 2.316v13.798a2.307 2.307 0 0 1-2.31 2.316ZM1096.4 520.888a2.307 2.307 0 0 1-2.31-2.316v-13.798a2.307 2.307 0 0 1 2.31-2.316c1.28 0 2.31 1.032 2.31 2.316v13.798a2.32 2.32 0 0 1-2.31 2.316ZM1115.79 548.795a2.307 2.307 0 0 1-2.31-2.316v-13.797a2.307 2.307 0 0 1 2.31-2.316c1.28 0 2.31 1.031 2.31 2.316v13.797a2.307 2.307 0 0 1-2.31 2.316ZM1115.79 576.722a2.307 2.307 0 0 1-2.31-2.316v-13.798a2.307 2.307 0 0 1 2.31-2.316c1.28 0 2.31 1.032 2.31 2.316v13.798a2.307 2.307 0 0 1-2.31 2.316ZM1115.79 520.888a2.307 2.307 0 0 1-2.31-2.316v-13.798a2.307 2.307 0 0 1 2.31-2.316c1.28 0 2.31 1.032 2.31 2.316v13.798a2.32 2.32 0 0 1-2.31 2.316Z"/><path d="M1137.45 590.753c-1.28 0-2.3-1.031-2.3-2.315v-96.897h-77.5v96.897a2.306 2.306 0 0 1-2.31 2.315 2.306 2.306 0 0 1-2.31-2.315v-99.213l2.31-2.316h82.11l2.31 2.316v99.213a2.306 2.306 0 0 1-2.31 2.315Z"/></g><g fill="#fff" clip-path="url(#b)" opacity=".05"><path d="M1828.55 590.753a2.306 2.306 0 0 1-2.31-2.315V438.315h-110.58v150.123a2.306 2.306 0 0 1-2.31 2.315c-1.28 0-2.3-1.031-2.3-2.315V435.999l2.3-2.316h115.22l2.31 2.316v152.439a2.323 2.323 0 0 1-2.33 2.315Z"/><path d="M1777.84 458.437h-13.75a2.306 2.306 0 0 1-2.31-2.315 2.307 2.307 0 0 1 2.31-2.316h13.75c1.28 0 2.31 1.031 2.31 2.316a2.318 2.318 0 0 1-2.31 2.315ZM1777.84 477.003h-13.75a2.307 2.307 0 0 1-2.31-2.316 2.306 2.306 0 0 1 2.31-2.315h13.75c1.28 0 2.31 1.031 2.31 2.315a2.307 2.307 0 0 1-2.31 2.316ZM1777.84 495.569h-13.75a2.307 2.307 0 0 1-2.31-2.316 2.306 2.306 0 0 1 2.31-2.315h13.75c1.28 0 2.31 1.031 2.31 2.315a2.307 2.307 0 0 1-2.31 2.316ZM1777.84 514.135h-13.75a2.307 2.307 0 0 1-2.31-2.316 2.307 2.307 0 0 1 2.31-2.316h13.75c1.28 0 2.31 1.032 2.31 2.316a2.307 2.307 0 0 1-2.31 2.316ZM1777.84 532.701h-13.75a2.307 2.307 0 0 1-2.31-2.316 2.307 2.307 0 0 1 2.31-2.316h13.75c1.28 0 2.31 1.032 2.31 2.316a2.307 2.307 0 0 1-2.31 2.316ZM1777.84 551.266h-13.75a2.306 2.306 0 0 1-2.31-2.315 2.307 2.307 0 0 1 2.31-2.316h13.75c1.28 0 2.31 1.031 2.31 2.316a2.306 2.306 0 0 1-2.31 2.315ZM1777.84 569.832h-13.75a2.306 2.306 0 0 1-2.31-2.315 2.307 2.307 0 0 1 2.31-2.316h13.75c1.28 0 2.31 1.031 2.31 2.316a2.306 2.306 0 0 1-2.31 2.315ZM1810.32 458.437h-13.75a2.306 2.306 0 0 1-2.31-2.315 2.307 2.307 0 0 1 2.31-2.316h13.75c1.28 0 2.31 1.031 2.31 2.316a2.318 2.318 0 0 1-2.31 2.315ZM1810.32 477.003h-13.75a2.307 2.307 0 0 1-2.31-2.316 2.306 2.306 0 0 1 2.31-2.315h13.75c1.28 0 2.31 1.031 2.31 2.315a2.307 2.307 0 0 1-2.31 2.316ZM1810.32 495.569h-13.75a2.307 2.307 0 0 1-2.31-2.316 2.306 2.306 0 0 1 2.31-2.315h13.75c1.28 0 2.31 1.031 2.31 2.315a2.307 2.307 0 0 1-2.31 2.316ZM1810.32 514.135h-13.75a2.307 2.307 0 0 1-2.31-2.316 2.307 2.307 0 0 1 2.31-2.316h13.75c1.28 0 2.31 1.032 2.31 2.316a2.307 2.307 0 0 1-2.31 2.316ZM1810.32 532.701h-13.75a2.307 2.307 0 0 1-2.31-2.316 2.307 2.307 0 0 1 2.31-2.316h13.75c1.28 0 2.31 1.032 2.31 2.316a2.307 2.307 0 0 1-2.31 2.316ZM1810.32 551.266h-13.75a2.306 2.306 0 0 1-2.31-2.315 2.307 2.307 0 0 1 2.31-2.316h13.75c1.28 0 2.31 1.031 2.31 2.316a2.306 2.306 0 0 1-2.31 2.315ZM1810.32 569.832h-13.75a2.306 2.306 0 0 1-2.31-2.315 2.307 2.307 0 0 1 2.31-2.316h13.75c1.28 0 2.31 1.031 2.31 2.316a2.306 2.306 0 0 1-2.31 2.315ZM1881.01 548.795a2.307 2.307 0 0 1-2.31-2.316v-13.797a2.307 2.307 0 0 1 2.31-2.316c1.28 0 2.31 1.031 2.31 2.316v13.797a2.307 2.307 0 0 1-2.31 2.316ZM1881.01 576.722a2.307 2.307 0 0 1-2.31-2.316v-13.798a2.307 2.307 0 0 1 2.31-2.316c1.28 0 2.31 1.032 2.31 2.316v13.798a2.307 2.307 0 0 1-2.31 2.316ZM1881.01 520.888a2.307 2.307 0 0 1-2.31-2.316v-13.798a2.307 2.307 0 0 1 2.31-2.316c1.28 0 2.31 1.032 2.31 2.316v13.798a2.32 2.32 0 0 1-2.31 2.316ZM1900.41 548.795a2.307 2.307 0 0 1-2.31-2.316v-13.797a2.307 2.307 0 0 1 2.31-2.316c1.28 0 2.3 1.031 2.3 2.316v13.797a2.298 2.298 0 0 1-2.3 2.316ZM1900.41 576.722a2.307 2.307 0 0 1-2.31-2.316v-13.798a2.307 2.307 0 0 1 2.31-2.316c1.28 0 2.3 1.032 2.3 2.316v13.798a2.298 2.298 0 0 1-2.3 2.316ZM1900.41 520.888a2.307 2.307 0 0 1-2.31-2.316v-13.798a2.307 2.307 0 0 1 2.31-2.316c1.28 0 2.3 1.032 2.3 2.316v13.798c0 1.265-1.02 2.316-2.3 2.316ZM1919.8 548.795a2.307 2.307 0 0 1-2.31-2.316v-13.797a2.307 2.307 0 0 1 2.31-2.316c1.28 0 2.31 1.031 2.31 2.316v13.797a2.307 2.307 0 0 1-2.31 2.316ZM1919.8 576.722a2.307 2.307 0 0 1-2.31-2.316v-13.798a2.307 2.307 0 0 1 2.31-2.316c1.28 0 2.31 1.032 2.31 2.316v13.798a2.307 2.307 0 0 1-2.31 2.316ZM1919.8 520.888a2.307 2.307 0 0 1-2.31-2.316v-13.798a2.307 2.307 0 0 1 2.31-2.316c1.28 0 2.31 1.032 2.31 2.316v13.798a2.32 2.32 0 0 1-2.31 2.316ZM2078.81 758.683h-899.62c-1.28 0-2.3-1.031-2.3-2.316a2.299 2.299 0 0 1 2.3-2.316h899.6c1.28 0 2.31 1.032 2.31 2.316a2.302 2.302 0 0 1-2.29 2.316Z"/><path d="M1941.46 590.753a2.306 2.306 0 0 1-2.31-2.315v-96.897h-77.49v96.897a2.306 2.306 0 0 1-2.31 2.315 2.306 2.306 0 0 1-2.31-2.315v-99.213l2.31-2.316h82.11l2.31 2.316v99.213a2.306 2.306 0 0 1-2.31 2.315Z"/><path d="M1994.6 586.122h-477.49a31.834 31.834 0 0 0-16.47 4.963 32.055 32.055 0 0 0-9.91 9.964h-12.43c-15.01 0-27.23 12.26-27.23 27.323 0 3.834 3.13 6.967 6.95 6.967 3.82 0 6.94-3.133 6.94-6.967 0-7.376 5.97-13.389 13.34-13.389h5.96c-7.97 20.22-11.45 41.491-15.07 63.813-.25 1.576-.51 3.133-.78 4.709-.02.117-.06.409-.06 1.46v15.549c-.71 1.285-2.03 4.223-2.44 9.264-.45 5.585 1.57 10.022 2.44 11.618v8.466c0 7.881 6.4 14.303 14.26 14.303h99.7a28.153 28.153 0 0 0 22.75 11.502c9.31 0 17.57-4.534 22.73-11.502h210.44c5.16 6.968 13.42 11.502 22.73 11.502 9.37 0 17.69-4.593 22.82-11.638.26.098.51.136.8.136h97.96c14.5 0 26.31-11.851 26.31-26.408V600.426c0-7.901-6.4-14.304-14.25-14.304Zm-476.87 4.632h476.87c5.31 0 9.64 4.34 9.64 9.672v.623h-507.86c5.1-6.461 12.88-10.295 21.35-10.295Zm429.59 72.629a2.303 2.303 0 0 0-3.26.253l-15.22 17.923h-27.85V605.68h40.14l-14.8 17.418c-.83.973-.71 2.433.26 3.27.42.369.97.544 1.49.544.66 0 1.3-.272 1.76-.817l17.36-20.415h6.5l-37.88 44.566c-.83.973-.71 2.433.26 3.27.42.37.96.545 1.49.545.66 0 1.3-.273 1.76-.818l39.93-46.979c.16-.175.28-.389.37-.603h8.58v75.879h-33.3l12.66-14.907a2.3 2.3 0 0 0-.25-3.25Zm-79.48 18.176 12.67-14.907c.83-.973.71-2.433-.25-3.269a2.303 2.303 0 0 0-3.26.253l-15.23 17.923h-25.54V605.68h41.91l-28 32.929c-.84.973-.72 2.432.25 3.269.43.37.97.545 1.49.545.66 0 1.3-.272 1.77-.817l30.54-35.945h12.16v75.879h-28.51v.019Zm-96.71 0V605.68h44.37l-28 32.929c-.84.973-.72 2.432.25 3.269.42.37.97.545 1.49.545.66 0 1.3-.272 1.77-.817l30.54-35.945h10.05v75.879h-60.47v.019Zm-27.75-20.22a2.304 2.304 0 0 0-3.26.253l-16.97 19.948h-6.5l37.49-44.099c.83-.973.72-2.433-.25-3.27a2.304 2.304 0 0 0-3.26.253l-39.93 46.999c-.04.039-.06.078-.1.136h-11.31V605.68h67.22v75.879h-37.27l14.41-16.95c.81-.973.69-2.433-.27-3.27Zm-142.82 20.22 12.66-14.907c.84-.973.72-2.433-.25-3.269a2.303 2.303 0 0 0-3.26.253l-15.22 17.923h-24.86V605.68h37.14l-14.8 17.418c-.83.973-.72 2.433.25 3.27.43.369.97.544 1.49.544.66 0 1.3-.272 1.77-.817l17.36-20.415h6.49l-37.87 44.566c-.84.973-.72 2.433.25 3.27.43.37.97.545 1.49.545.66 0 1.3-.273 1.77-.818l39.93-46.979c.15-.175.27-.389.37-.603h4.19v75.879h-28.9v.019Zm-54.88 0V605.68h19.33v75.879h-19.33Zm-18.89-15.608a2.304 2.304 0 0 0-3.26.253l-13.03 15.336h-6.5l24.8-29.192c.84-.973.72-2.433-.25-3.269a2.304 2.304 0 0 0-3.26.253l-26.86 31.604c-.15.176-.27.39-.37.604h-.25v-75.86h39.55l-28.03 32.929c-.83.973-.71 2.432.25 3.269.43.37.97.545 1.5.545.66 0 1.3-.272 1.76-.817l28.22-33.162v73.115h-24.49l10.47-12.319c.83-.992.72-2.452-.25-3.289Zm107.3-60.271h47.24l-28 32.929c-.83.973-.72 2.432.25 3.269.43.37.97.545 1.5.545.66 0 1.3-.272 1.76-.817l30.55-35.945h7.27v75.879h-60.59v-75.86h.02Zm338.71 0h18.15v69.574c0 3.483-2.83 6.305-6.28 6.305h-11.87V605.68Zm-494.5 4.652c-9.89 0-17.96 8.076-17.96 18.021a2.332 2.332 0 0 1-2.32 2.335 2.34 2.34 0 0 1-2.33-2.335c0-12.514 10.14-22.692 22.59-22.692h9.99c-.74 1.557-1.43 3.114-2.11 4.671h-7.86Zm14.86-4.146.02-.038v75.411h-19.78c.11-.681.21-1.362.33-2.024 4.24-26 8.24-50.54 19.43-73.349Zm-21.66 110.909c-.62-1.693-1.21-4.165-.99-6.947.29-3.659 1.12-5.878 1.63-6.909l11.81-2.394c-2.47 4.379-6.85 11.288-12.45 16.25Zm1.47 12.767v-7.941c10.43-8.329 17.09-22.73 17.38-23.353l-2.56-3.23-14.82 3.016V686.21h20.23v53.343h-10.61c-5.31-.019-9.62-4.359-9.62-9.691Zm132.07 21.173c-8.11 0-15.55-4.087-19.96-10.937a23.76 23.76 0 0 1-3.74-12.825c0-13.117 10.63-23.762 23.68-23.762 13.05 0 23.68 10.665 23.68 23.762.04 13.098-10.59 23.762-23.66 23.762Zm255.9 0c-13.07 0-23.68-10.664-23.68-23.762 0-13.117 10.63-23.762 23.68-23.762 13.05 0 23.68 10.665 23.68 23.762.02 13.098-10.61 23.762-23.68 23.762Zm121.6-11.501h-96.06a28.352 28.352 0 0 0 2.77-12.28c0-15.666-12.7-28.413-28.31-28.413s-28.32 12.747-28.32 28.413c0 4.398 1.01 8.563 2.78 12.28h-204.82c1.79-3.717 2.77-7.882 2.77-12.28 0-15.666-12.7-28.413-28.31-28.413s-28.31 12.747-28.31 28.413c0 4.281.95 8.465 2.77 12.28h-81.73v-53.343h486.88c6.01 0 10.92-4.904 10.92-10.957V605.68h8.63v112.077c.02 12.007-9.7 21.777-21.66 21.777Z"/><path d="M1860.94 713.358c-7.64 0-13.87 6.247-13.87 13.915 0 7.668 6.23 13.915 13.87 13.915 7.64 0 13.87-6.247 13.87-13.915 0-7.687-6.23-13.915-13.87-13.915Zm0 23.159c-5.1 0-9.23-4.165-9.23-9.263 0-5.119 4.15-9.264 9.23-9.264s9.23 4.165 9.23 9.264c.02 5.118-4.13 9.263-9.23 9.263ZM1881.01 548.795a2.307 2.307 0 0 1-2.31-2.316v-13.797a2.307 2.307 0 0 1 2.31-2.316c1.28 0 2.31 1.031 2.31 2.316v13.797a2.307 2.307 0 0 1-2.31 2.316ZM1881.01 576.722a2.307 2.307 0 0 1-2.31-2.316v-13.798a2.307 2.307 0 0 1 2.31-2.316c1.28 0 2.31 1.032 2.31 2.316v13.798a2.307 2.307 0 0 1-2.31 2.316ZM1881.01 520.888a2.307 2.307 0 0 1-2.31-2.316v-13.798a2.307 2.307 0 0 1 2.31-2.316c1.28 0 2.31 1.032 2.31 2.316v13.798a2.32 2.32 0 0 1-2.31 2.316ZM1900.41 548.795a2.307 2.307 0 0 1-2.31-2.316v-13.797a2.307 2.307 0 0 1 2.31-2.316c1.28 0 2.3 1.031 2.3 2.316v13.797a2.298 2.298 0 0 1-2.3 2.316ZM1900.41 576.722a2.307 2.307 0 0 1-2.31-2.316v-13.798a2.307 2.307 0 0 1 2.31-2.316c1.28 0 2.3 1.032 2.3 2.316v13.798a2.298 2.298 0 0 1-2.3 2.316ZM1900.41 520.888a2.307 2.307 0 0 1-2.31-2.316v-13.798a2.307 2.307 0 0 1 2.31-2.316c1.28 0 2.3 1.032 2.3 2.316v13.798c0 1.265-1.02 2.316-2.3 2.316ZM1919.8 548.795a2.307 2.307 0 0 1-2.31-2.316v-13.797a2.307 2.307 0 0 1 2.31-2.316c1.28 0 2.31 1.031 2.31 2.316v13.797a2.307 2.307 0 0 1-2.31 2.316ZM1919.8 576.722a2.307 2.307 0 0 1-2.31-2.316v-13.798a2.307 2.307 0 0 1 2.31-2.316c1.28 0 2.31 1.032 2.31 2.316v13.798a2.307 2.307 0 0 1-2.31 2.316ZM1919.8 520.888a2.307 2.307 0 0 1-2.31-2.316v-13.798a2.307 2.307 0 0 1 2.31-2.316c1.28 0 2.31 1.032 2.31 2.316v13.798a2.32 2.32 0 0 1-2.31 2.316Z"/><path d="M1941.46 590.753a2.306 2.306 0 0 1-2.31-2.315v-96.897h-77.49v96.897a2.306 2.306 0 0 1-2.31 2.315 2.306 2.306 0 0 1-2.31-2.315v-99.213l2.31-2.316h82.11l2.31 2.316v99.213a2.306 2.306 0 0 1-2.31 2.315Z"/></g><g clip-path="url(#c)" opacity=".05"><path fill="#fff" stroke="#7700D1" stroke-width="11" d="M622.404 508.55c0 4.844 3.933 8.777 8.779 8.777h35.116c4.845 0 8.778-3.933 8.778-8.777v-52.662c0-4.845-3.933-8.777-8.778-8.777h-35.115c-4.846 0-8.779 3.932-8.779 8.777v52.662h-.001Zm17.558-43.885h17.558v35.108h-17.558v-35.108ZM850.653 719.2c0 4.844 3.933 8.777 8.779 8.777h35.115c4.845 0 8.778-3.933 8.778-8.777v-52.663c0-4.844-3.933-8.776-8.778-8.776h-35.115c-4.846 0-8.779 3.932-8.779 8.776V719.2Zm17.558-43.885h17.558v35.108h-17.558v-35.108ZM859.432 517.328h35.115c4.845 0 8.778-3.933 8.778-8.777v-52.662c0-4.845-3.933-8.777-8.778-8.777h-35.115c-4.846 0-8.779 3.932-8.779 8.777v52.662c0 4.844 3.933 8.777 8.779 8.777Zm8.779-52.663h17.558v35.108h-17.558v-35.108ZM710.193 508.55c0 4.844 3.933 8.777 8.779 8.777h35.115c4.845 0 8.778-3.933 8.778-8.777v-52.662c0-4.845-3.933-8.777-8.778-8.777h-35.115c-4.846 0-8.779 3.932-8.779 8.777v52.662Zm17.557-43.885h17.558v35.108H727.75v-35.108Z"/><path fill="#fff" fill-rule="evenodd" d="M841.875 394.449h105.346c4.845 0 8.778 3.932 8.778 8.776v386.191c0 14.518-11.816 26.332-26.336 26.332h-70.229c-14.52 0-26.336-11.814-26.336-26.332 0-14.517 11.816-26.331 26.336-26.331 1.519 0 3.029.132 4.512.395 6.058-10.91 17.584-17.949 30.603-17.949 13.019 0 24.545 7.039 30.603 17.949a25.849 25.849 0 0 1 4.512-.395c3.099 0 6.022.632 8.778 1.615V434.956h13.662v-36.775h-34.277v13.821h-75.952c-4.845 0-8.778-3.932-8.778-8.777 0-4.844 3.933-8.776 8.778-8.776Zm17.557 403.744h70.231c4.837 0 8.778-3.94 8.779-8.777 0-6.521-7.821-11.032-13.536-7.346a8.807 8.807 0 0 1-8.059.755 8.75 8.75 0 0 1-5.25-6.152c-1.853-7.996-8.867-13.588-17.049-13.588-8.182 0-15.196 5.592-17.049 13.588a8.752 8.752 0 0 1-5.249 6.152 8.806 8.806 0 0 1-8.06-.755c-1.475-.948-3.073-1.43-4.758-1.43-4.837 0-8.778 3.94-8.778 8.776 0 4.837 3.941 8.777 8.778 8.777Z" clip-rule="evenodd"/><path fill="#7700D1" d="m863.946 763.48-.961 5.416 3.865.686 1.905-3.432-4.809-2.67Zm61.206 0-4.809 2.67 1.906 3.432 3.864-.686-.961-5.416Zm13.29 1.22-1.848 5.18 7.348 2.622V764.7h-5.5Zm0-329.744v-5.5h-5.5v5.5h5.5Zm13.662 0v5.5h5.5v-5.5h-5.5Zm0-36.775h5.5v-5.5h-5.5v5.5Zm-34.277 0v-5.5h-5.5v5.5h5.5Zm0 13.821v5.5h5.5v-5.5h-5.5Zm20.615 377.414 5.5.002v-.002h-5.5Zm-13.536-7.346 2.971 4.629.01-.007-2.981-4.622Zm-8.059.755 2.065-5.097-.006-.002-2.059 5.099Zm-5.25-6.152 5.359-1.235-.001-.007-5.358 1.242Zm-34.098 0-5.358-1.242-.001.007 5.359 1.235Zm-13.309 5.397-2.974 4.627.002.001 2.972-4.628Zm83.031-393.121H841.875v11h105.346v-11Zm14.278 14.276c0-7.883-6.396-14.276-14.278-14.276v11a3.28 3.28 0 0 1 3.278 3.276h11Zm0 386.191V403.225h-11v386.191h11Zm-31.836 31.832c17.557 0 31.836-14.276 31.836-31.832h-11c0 11.479-9.353 20.832-20.836 20.832v11Zm-70.229 0h70.229v-11h-70.229v11Zm-31.836-31.832c0 17.556 14.28 31.832 31.836 31.832v-11c-11.483 0-20.836-9.353-20.836-20.832h-11Zm31.836-31.831c-17.556 0-31.836 14.276-31.836 31.831h11c0-11.478 9.353-20.831 20.836-20.831v-11Zm5.474.48a31.28 31.28 0 0 0-5.474-.48v11c1.201 0 2.389.104 3.551.311l1.923-10.831Zm29.641-18.034c-15.046 0-28.398 8.148-35.411 20.779l9.617 5.34c5.101-9.188 14.802-15.119 25.794-15.119v-11Zm35.411 20.779c-7.013-12.631-20.365-20.779-35.411-20.779v11c10.992 0 20.693 5.931 25.794 15.119l9.617-5.34Zm-.296-3.225a31.26 31.26 0 0 0-5.473.48l1.922 10.831a20.245 20.245 0 0 1 3.551-.311v-11Zm10.627 1.935c-3.214-1.147-6.769-1.935-10.627-1.935v11c2.34 0 4.632.475 6.93 1.295l3.697-10.36Zm-7.349-324.564V764.7h11V434.956h-11Zm19.162-5.5h-13.662v11h13.662v-11Zm-5.5-31.275v36.775h11v-36.775h-11Zm-28.777 5.5h34.277v-11h-34.277v11Zm5.5 8.321v-13.821h-11v13.821h11Zm-81.452 5.5h75.952v-11h-75.952v11Zm-14.278-14.277c0 7.884 6.396 14.277 14.278 14.277v-11a3.28 3.28 0 0 1-3.278-3.277h-11Zm14.278-14.276c-7.882 0-14.278 6.393-14.278 14.276h11a3.28 3.28 0 0 1 3.278-3.276v-11Zm87.788 403.744h-70.231v11h70.231v-11Zm3.279-3.278a3.293 3.293 0 0 1-3.279 3.278v11c7.874 0 14.278-6.402 14.279-14.275l-11-.003Zm-5.055-2.723c.894-.576 2.078-.624 3.261.032 1.217.676 1.794 1.746 1.794 2.692h11c0-10.755-12.542-18.08-22.017-11.967l5.962 9.243Zm-13.106 1.231a14.308 14.308 0 0 0 13.096-1.224l-5.942-9.257a3.308 3.308 0 0 1-3.023.286l-4.131 10.195Zm-8.544-10.016a14.255 14.255 0 0 0 8.55 10.018l4.119-10.199a3.258 3.258 0 0 1-1.95-2.288l-10.719 2.469Zm-11.689-9.322c5.61 0 10.413 3.814 11.691 9.329l10.716-2.483c-2.428-10.477-11.653-17.846-22.407-17.846v11Zm-11.691 9.329c1.278-5.515 6.081-9.329 11.691-9.329v-11c-10.754 0-19.979 7.369-22.407 17.846l10.716 2.483Zm-8.548 10.011a14.255 14.255 0 0 0 8.55-10.018l-10.719-2.469a3.258 3.258 0 0 1-1.95 2.288l4.119 10.199Zm-13.091-1.227a14.304 14.304 0 0 0 13.091 1.227l-4.119-10.199a3.31 3.31 0 0 1-3.028-.283l-5.944 9.255Zm-1.786-.558c.58 0 1.152.151 1.784.557l5.948-9.253c-2.318-1.491-4.941-2.304-7.732-2.304v11Zm-3.278 3.276a3.291 3.291 0 0 1 3.278-3.276v-11c-7.874 0-14.278 6.402-14.278 14.276h11Zm3.278 3.277a3.291 3.291 0 0 1-3.278-3.277h-11c0 7.875 6.404 14.277 14.278 14.277v-11Z"/><path fill="#fff" stroke="#7700D1" stroke-width="11" d="M718.972 412.003h35.115c4.845 0 8.778-3.932 8.778-8.776v-52.663c0-4.844-3.933-8.776-8.778-8.776h-35.115c-4.846 0-8.779 3.932-8.779 8.776v52.663c0 4.844 3.933 8.776 8.779 8.776Zm8.778-52.662h17.558v35.108H727.75v-35.108ZM710.193 613.875c0 4.845 3.933 8.777 8.779 8.777h35.115c4.845 0 8.778-3.932 8.778-8.777v-52.662c0-4.845-3.933-8.777-8.778-8.777h-35.115c-4.846 0-8.779 3.932-8.779 8.777v52.662Zm17.557-43.885h17.558v35.108H727.75V569.99ZM631.184 412.003h35.115c4.845 0 8.778-3.932 8.778-8.776v-52.663c0-4.844-3.933-8.776-8.778-8.776h-35.115c-4.846 0-8.779 3.932-8.779 8.776v52.663c-.001 4.844 3.932 8.776 8.779 8.776Zm8.778-52.662h17.558v35.108h-17.558v-35.108ZM686.402 712.968c-1.581 1.668-2.547 3.95-2.547 6.232 0 2.283.966 4.564 2.547 6.232 1.667 1.58 3.95 2.546 6.233 2.546 2.283 0 4.565-.966 6.233-2.546 1.58-1.667 2.546-3.949 2.546-6.232 0-2.282-.966-4.563-2.546-6.232-3.336-3.248-9.13-3.248-12.466 0ZM622.404 613.875c0 4.845 3.933 8.777 8.779 8.777h35.116c4.845 0 8.778-3.932 8.778-8.777v-52.662c0-4.845-3.933-8.777-8.778-8.777h-35.115c-4.846 0-8.779 3.932-8.779 8.777v52.662h-.001Zm17.558-43.885h17.558v35.108h-17.558V569.99Z"/><path fill="#fff" stroke="#7700D1" stroke-width="11" d="M604.848 666.537c0 4.845 3.933 8.777 8.778 8.777h26.337v78.994c0 4.844 3.933 8.776 8.778 8.776 4.846 0 8.779-3.932 8.779-8.776v-78.994h70.23v78.994c0 4.844 3.933 8.776 8.779 8.776 4.845 0 8.778-3.932 8.778-8.776v-78.994h26.337c4.845 0 8.778-3.932 8.778-8.777 0-4.844-3.933-8.776-8.778-8.776H613.626c-4.845 0-8.778 3.932-8.778 8.776ZM850.653 613.875c0 4.845 3.933 8.777 8.779 8.777h35.115c4.845 0 8.778-3.932 8.778-8.777v-52.662c0-4.845-3.933-8.777-8.778-8.777h-35.115c-4.846 0-8.779 3.932-8.779 8.777v52.662Zm17.558-43.885h17.558v35.108h-17.558V569.99Z"/><path fill="#fff" fill-rule="evenodd" d="M578.511 289.124H770.98v17.553H622.405v-15.933H573.43a8.737 8.737 0 0 1 5.081-1.62Zm-6.09 46.733h14.868v418.451c0 4.844-3.933 8.776-8.778 8.776-4.846 0-8.779-3.932-8.779-8.776V297.901a8.753 8.753 0 0 1 2.689-6.32v44.276Zm225.56.828v417.623c0 4.844 3.933 8.776 8.778 8.776 4.846 0 8.779-3.932 8.779-8.776V336.685h-17.557ZM584.32 482.399h-11.135v152.217h11.135V482.399Z" clip-rule="evenodd"/><path fill="#7700D1" d="M770.98 289.124h5v-5h-5v5Zm0 17.553v5h5v-5h-5Zm-148.575 0h-5v5h5v-5Zm0-15.933h5v-5h-5v5Zm-48.975 0-2.898-4.074-12.759 9.074h15.657v-5Zm13.859 45.113h5v-5h-5v5Zm-14.868 0h-5v5h5v-5Zm0-44.276h5v-11.76l-8.469 8.159 3.469 3.601Zm225.56 45.104v-5h-5v5h5Zm17.557 0h5v-5h-5v5ZM573.185 482.399v-5h-5v5h5Zm11.135 0h5v-5h-5v5Zm-11.135 152.217h-5v5h5v-5Zm11.135 0v5h5v-5h-5Zm186.66-350.492H578.511v10H770.98v-10Zm5 22.553v-17.553h-10v17.553h10Zm-153.575 5H770.98v-10H622.405v10Zm-5-20.933v15.933h10v-15.933h-10Zm-43.975 5h48.975v-10H573.43v10Zm5.081-11.62c-2.966 0-5.727.944-7.979 2.546l5.796 8.149a3.734 3.734 0 0 1 2.183-.695v-10Zm8.778 46.733h-14.868v10h14.868v-10Zm5 423.451V335.857h-10v418.451h10Zm-13.778 13.776c7.606 0 13.778-6.169 13.778-13.776h-10a3.78 3.78 0 0 1-3.778 3.776v10Zm-13.779-13.776c0 7.607 6.173 13.776 13.779 13.776v-10a3.781 3.781 0 0 1-3.779-3.776h-10Zm0-456.407v456.407h10V297.901h-10Zm4.22-9.921a13.754 13.754 0 0 0-4.22 9.921h10a3.75 3.75 0 0 1 1.159-2.719l-6.939-7.202Zm8.469 47.877v-44.276h-10v44.276h10Zm225.56 418.451V336.685h-10v417.623h10Zm3.778 3.776a3.78 3.78 0 0 1-3.778-3.776h-10c0 7.607 6.172 13.776 13.778 13.776v-10Zm3.779-3.776a3.781 3.781 0 0 1-3.779 3.776v10c7.606 0 13.779-6.169 13.779-13.776h-10Zm0-417.623v417.623h10V336.685h-10Zm-12.557 5h17.557v-10h-17.557v10ZM573.185 487.399h11.135v-10h-11.135v10Zm5 147.217V482.399h-10v152.217h10Zm6.135-5h-11.135v10h11.135v-10Zm-5-147.217v152.217h10V482.399h-10Z"/><path fill="#fff" fill-rule="evenodd" d="M890.972 407.348v-7h21.281c20.987 0 38 17.013 38 38v8.763h-7v-8.763c0-17.121-13.879-31-31-31h-21.281ZM750.451 302.172v-7h21.392c20.987 0 38 17.014 38 38v8.616h-7v-8.616c0-17.12-13.879-31-31-31h-21.392ZM634.497 301.459v-7h-21.282c-20.986 0-38 17.014-38 38v9.329h7v-9.329c0-17.12 13.88-31 31-31h21.282Z" clip-rule="evenodd"/></g><g clip-path="url(#d)"><path fill="#7700D1" d="M857.481 583.418h159.599v117.65H857.481z"/><path fill="#7700D1" d="m987.627 621.013 75.093 2.715 27.66 26.491 38.39 37.707 6.37 9.476 2.55 10.635-2.55 17.56-15.1 2.094-3.99 1.196-128.423 3.055V621.013Z"/><path fill="#fff" d="M804.924 648.761H783.54a2.557 2.557 0 0 1-2.54-2.548 2.557 2.557 0 0 1 2.54-2.548h21.384a2.557 2.557 0 0 1 2.539 2.548 2.53 2.53 0 0 1-2.539 2.548ZM827.495 621.968h-21.384a2.557 2.557 0 0 1-2.54-2.548 2.556 2.556 0 0 1 2.54-2.547h21.384c1.393 0 2.54 1.15 2.54 2.547a2.557 2.557 0 0 1-2.54 2.548ZM827.495 675.594h-21.384a2.557 2.557 0 0 1-2.54-2.548 2.556 2.556 0 0 1 2.54-2.547h21.384c1.393 0 2.54 1.15 2.54 2.547a2.557 2.557 0 0 1-2.54 2.548ZM1137.48 706.66h-.25c-15.44-1.644-25.77-20.135-26.22-20.916l2.09-3.534h16.47c1.31 0 2.38 1.068 2.38 2.383a2.386 2.386 0 0 1-2.38 2.384h-12.12c3.56 5.095 11.06 13.971 20.27 14.957 1.31.124 2.26 1.315 2.13 2.63-.16 1.192-1.18 2.096-2.37 2.096Z"/><path fill="#fff" d="M1126.33 730.165h-10.36a2.385 2.385 0 0 1-2.38-2.383 2.386 2.386 0 0 1 2.38-2.384h10.36c5.45 0 9.88-4.438 9.88-9.903v-13.766c0-6.041-4.06-14.218-8.81-17.875l-.16-.124-61.82-56.625c-3.36-2.507-5.37-2.507-10.08-2.425-.82 0-1.72.041-2.66.041h-32.16a2.377 2.377 0 0 1-2.37-2.383 2.377 2.377 0 0 1 2.37-2.384h32.16c.94 0 1.8 0 2.62-.041 5.04-.082 8.36-.123 13.07 3.452l.16.123 61.82 56.585c5.94 4.603 10.61 14.095 10.61 21.615v13.766c.04 8.095-6.55 14.711-14.63 14.711ZM1065.21 730.165h-45.75a2.385 2.385 0 0 1-2.38-2.383 2.386 2.386 0 0 1 2.38-2.384h45.75a2.38 2.38 0 0 1 2.38 2.384 2.379 2.379 0 0 1-2.38 2.383Z"/><path fill="#fff" d="M1090.57 755.683c-15.28 0-27.73-12.492-27.73-27.819 0-15.328 12.45-27.82 27.73-27.82 15.28 0 27.74 12.492 27.74 27.82.04 15.327-12.42 27.819-27.74 27.819Zm0-50.872c-12.66 0-22.98 10.355-22.98 23.053 0 12.697 10.32 23.053 22.98 23.053s22.98-10.356 22.98-23.053c0-12.698-10.28-23.053-22.98-23.053Z"/><path fill="#fff" d="M1090.57 741.547c-7.53 0-13.64-6.122-13.64-13.683 0-7.562 6.11-13.684 13.64-13.684 7.54 0 13.64 6.122 13.64 13.684 0 7.561-6.1 13.683-13.64 13.683Zm0-22.601c-4.91 0-8.89 3.986-8.89 8.918 0 4.931 3.98 8.917 8.89 8.917 4.92 0 8.89-3.986 8.89-8.917 0-4.932-3.97-8.918-8.89-8.918ZM1066.69 704.811h-33.43a2.377 2.377 0 0 1-2.37-2.384 2.377 2.377 0 0 1 2.37-2.383h33.43c1.31 0 2.38 1.068 2.38 2.383a2.386 2.386 0 0 1-2.38 2.384ZM1098.64 671.403h-65.38l-2.37-2.384v-35.463l2.37-2.383h27.78l1.64.657 37.6 35.463-1.64 4.11Zm-63-4.767h57.02l-32.57-30.696h-24.45v30.696ZM1019.33 728.768a2.377 2.377 0 0 1-2.37-2.383V622.626a2.377 2.377 0 0 1 2.37-2.384 2.38 2.38 0 0 1 2.38 2.384v103.759a2.379 2.379 0 0 1-2.38 2.383Z"/><path fill="#fff" d="M1037.52 730.165h-94.134a2.381 2.381 0 0 1-2.376-2.383 2.382 2.382 0 0 1 2.376-2.384h94.134c1.31 0 2.38 1.069 2.38 2.384a2.385 2.385 0 0 1-2.38 2.383ZM892.671 730.165h-3.523c-7.62 0-13.805-6.205-13.805-13.848v-13.89a2.381 2.381 0 0 1 2.376-2.383 2.381 2.381 0 0 1 2.376 2.383v13.89c0 5.013 4.055 9.081 9.053 9.081h3.523a2.382 2.382 0 0 1 2.376 2.384 2.382 2.382 0 0 1-2.376 2.383Z"/><path fill="#fff" d="M918.028 755.683c-15.28 0-27.733-12.492-27.733-27.819 0-15.328 12.453-27.82 27.733-27.82 15.28 0 27.734 12.492 27.734 27.82 0 15.327-12.454 27.819-27.734 27.819Zm0-50.872c-12.658 0-22.981 10.355-22.981 23.053 0 12.697 10.323 23.053 22.981 23.053 12.658 0 22.982-10.356 22.982-23.053 0-12.698-10.324-23.053-22.982-23.053Z"/><path fill="#fff" d="M918.028 741.547c-7.538 0-13.641-6.122-13.641-13.683s6.103-13.684 13.641-13.684 13.641 6.123 13.641 13.684c0 7.561-6.144 13.683-13.641 13.683Zm0-22.601c-4.916 0-8.889 3.986-8.889 8.918 0 4.931 3.973 8.917 8.889 8.917 4.916 0 8.889-3.986 8.889-8.917 0-4.932-4.014-8.918-8.889-8.918ZM1115.89 729.16v-2.756h8.713v2.756zM1035.57 729.16v-2.756h28.664v2.756zM943.656 729.16v-2.756h28.664v2.756zM1047.44 653.65c-.54 0-1.11-.205-1.56-.575a2.406 2.406 0 0 1-.25-3.369l14.42-16.972a2.387 2.387 0 0 1 3.36-.246c.99.863 1.11 2.342.25 3.369l-14.42 16.972c-.45.575-1.15.821-1.8.821ZM1048.3 671.403c-.54 0-1.11-.206-1.56-.576a2.406 2.406 0 0 1-.25-3.369l16.31-19.191c.86-.986 2.33-1.109 3.36-.246.98.863 1.1 2.342.24 3.37l-16.26 19.19c-.49.534-1.15.822-1.84.822ZM1044.28 677.854h-11.02v4.767h11.02v-4.767Z"/><path fill="#fff" fill-rule="evenodd" d="M855.058 615.297v87.13l2.376 2.384h162.346l2.37-2.384v-87.13h-4.75v84.747H859.81v-84.747h-4.752Zm44.852-30.847H975v-4.766h-75.09v4.766Z" clip-rule="evenodd"/><path fill="#fff" d="M1131.49 683.217v2.756h-5.302v-2.756zM1139.24 702.72v2.788h-3.151v-2.788zM1054.75 667.649v2.753h-8.831v-2.753zM893.429 633.404c1.452 0 2.55.394 3.295 1.181.758.774 1.137 1.915 1.137 3.422v4.803c0 1.508-.379 2.655-1.137 3.443-.745.773-1.843 1.16-3.295 1.16h-7.515v-14.009h7.515Zm.964 4.603c0-1.201-.578-1.801-1.735-1.801h-3.275v8.406h3.275c1.157 0 1.735-.601 1.735-1.802v-4.803ZM909.033 637.207c0-.801-.386-1.201-1.157-1.201h-3.275c-.771 0-1.157.4-1.157 1.201v6.404c0 .8.386 1.201 1.157 1.201h3.275c.771 0 1.157-.401 1.157-1.201v-6.404Zm3.468 6.404c0 1.401-.308 2.421-.925 3.062-.604.627-1.58.94-2.929.94h-4.817c-1.349 0-2.332-.313-2.949-.94-.603-.641-.905-1.661-.905-3.062v-6.404c0-1.401.302-2.415.905-3.042.617-.641 1.6-.961 2.949-.961h4.817c1.349 0 2.325.32 2.929.961.617.627.925 1.641.925 3.042v6.404ZM914.611 644.511c3.52.201 5.903.301 7.149.301.295 0 .526-.087.693-.261.18-.186.27-.433.27-.74v-1.801h-4.432c-1.349 0-2.332-.314-2.948-.941-.604-.64-.906-1.661-.906-3.062v-.6c0-1.401.302-2.415.906-3.042.616-.641 1.599-.961 2.948-.961h6.764v2.802h-5.993c-.771 0-1.156.4-1.156 1.201v.4c0 .801.385 1.201 1.156 1.201h3.468c1.259 0 2.184.307 2.775.92.591.614.887 1.575.887 2.882v1.001c0 1.308-.296 2.268-.887 2.882-.591.614-1.516.92-2.775.92-.655 0-1.348-.013-2.081-.04l-1.773-.08c-1.31-.066-2.665-.16-4.065-.28v-2.702ZM934.095 647.413h-3.469v-11.207h-4.047v-2.802h11.562v2.802h-4.046v11.207ZM941.124 647.413h-3.757l5.106-14.009h3.854l5.107 14.009h-3.758l-.867-2.501h-4.818l-.867 2.501Zm1.735-5.103h3.083l-1.542-4.703-1.541 4.703ZM957.304 643.211l3.276-9.807h3.758l-5.107 14.009h-3.854l-5.106-14.009h3.757l3.276 9.807ZM976.573 647.413h-10.695v-14.009h10.695v2.802h-7.226v2.702h5.685v2.802h-5.685v2.902h7.226v2.801ZM978.688 633.404h8.094c1.349 0 2.325.32 2.929.961.616.627.925 1.641.925 3.042v1.801c0 1.107-.18 1.968-.54 2.582-.347.613-.906 1.02-1.676 1.22l2.408 4.403h-3.757l-2.216-4.202h-2.698v4.202h-3.469v-14.009Zm8.479 4.003c0-.801-.385-1.201-1.156-1.201h-3.854v4.203h3.854c.771 0 1.156-.4 1.156-1.201v-1.801ZM1025.92 620.953v2.756h-7.534v-2.756zM1017.97 701.595h2.756v25.918h-2.756z"/><path fill="#fff" fill-rule="evenodd" d="M958.429 584.484h26.697c17.714 0 32.094 14.271 32.264 31.941h4.8c-.17-20.321-16.7-36.741-37.064-36.741h-26.697c-1.628 0-3.232.105-4.805.308h3.882v4.505c.306-.009.614-.013.923-.013ZM918.816 584.484h-26.697c-17.711 0-32.089 14.271-32.261 31.941h-4.801c.173-20.321 16.7-36.741 37.062-36.741h26.697c1.629 0 3.232.105 4.805.308h-3.881v4.505a31.534 31.534 0 0 0-.924-.013Z" clip-rule="evenodd"/></g><g clip-path="url(#e)"><path fill="#fff" stroke="#7700D1" stroke-width="10" d="M1653.8 737.6H1448a7.351 7.351 0 0 0-7.35 7.35v14.7a7.351 7.351 0 0 0 14.7 0v-7.35h198.45a7.35 7.35 0 0 0 0-14.7ZM1499.45 509.75a7.35 7.35 0 0 0 7.35 7.349h29.4a7.35 7.35 0 0 0 7.35-7.349v-44.1c0-4.057-3.29-7.35-7.35-7.35h-29.4a7.351 7.351 0 0 0-7.35 7.35v44.1Zm14.7-36.75h14.7v29.4h-14.7V473Z"/><path fill="#fff" fill-rule="evenodd" d="M1345.1 414.2h88.2a7.35 7.35 0 0 1 0 14.7h-58.55v-12.038h-34.08v34.44h11.78V568.55a7.351 7.351 0 0 1-14.7 0v-147c0-4.057 3.29-7.35 7.35-7.35Z" clip-rule="evenodd"/><path fill="#7700D1" d="M1374.75 428.9h-5v5h5v-5Zm0-12.038h5v-5h-5v5Zm-34.08 0v-5h-5v5h5Zm0 34.44h-5v5h5v-5Zm11.78 0h5v-5h-5v5Zm80.85-42.102h-88.2v10h88.2v-10Zm12.35 12.351c0-6.817-5.53-12.351-12.35-12.351v10c1.29 0 2.35 1.054 2.35 2.351h10ZM1433.3 433.9c6.82 0 12.35-5.531 12.35-12.349h-10a2.35 2.35 0 0 1-2.35 2.349v10Zm-58.55 0h58.55v-10h-58.55v10Zm-5-17.038V428.9h10v-12.038h-10Zm-29.08 5h34.08v-10h-34.08v10Zm5 29.44v-34.44h-10v34.44h10Zm6.78-5h-11.78v10h11.78v-10Zm5 122.248V451.302h-10V568.55h10Zm-12.35 12.35c6.82 0 12.35-5.532 12.35-12.35h-10a2.35 2.35 0 0 1-2.35 2.35v10Zm-12.35-12.35c0 6.818 5.53 12.35 12.35 12.35v-10a2.35 2.35 0 0 1-2.35-2.35h-10Zm0-147v147h10v-147h-10Zm12.35-12.35c-6.82 0-12.35 5.532-12.35 12.35h10a2.35 2.35 0 0 1 2.35-2.35v-10Z"/><path fill="#fff" fill-rule="evenodd" d="M1392.21 423.941v-4.8h-11.63c-20.99 0-38 17.013-38 38v1.159h4.8v-1.159c0-18.336 14.86-33.2 33.2-33.2h11.63Z" clip-rule="evenodd"/><path fill="#fff" stroke="#7700D1" stroke-width="10" d="M1690.55 686.15c0 4.057 3.29 7.35 7.35 7.35h29.4c4.06 0 7.35-3.293 7.35-7.35v-44.1c0-4.057-3.29-7.35-7.35-7.35h-29.4a7.351 7.351 0 0 0-7.35 7.35v44.1Zm14.7-36.749h14.7V678.8h-14.7v-29.399ZM1374.5 590.6c-36.33 0-36.75 94.595-36.75 95.55 0 17.75 12.65 32.59 29.4 36.008v37.492a7.351 7.351 0 0 0 14.7 0v-37.492c16.75-3.418 29.4-18.258 29.4-36.008 0-.955-.42-95.55-36.75-95.55Zm0 117.6c-12.16 0-22.05-9.893-22.05-22.05 0-36.618 9.83-80.85 22.05-80.85s22.05 44.232 22.05 80.85c0 12.157-9.89 22.05-22.05 22.05ZM1418.6 546.5h-29.4a7.351 7.351 0 0 0-7.35 7.35v14.7a7.351 7.351 0 0 0 14.7 0v-7.35h14.7v36.751a7.35 7.35 0 0 0 14.7 0v-44.1a7.351 7.351 0 0 0-7.35-7.351ZM1697.9 517.1h29.4a7.35 7.35 0 0 0 7.35-7.349V465.65a7.35 7.35 0 0 0-7.35-7.349h-29.4a7.35 7.35 0 0 0-7.35 7.349v44.101a7.35 7.35 0 0 0 7.35 7.349Zm7.35-44.1h14.7v29.4h-14.7V473ZM1418.6 458.3h-29.4a7.351 7.351 0 0 0-7.35 7.35v44.1a7.35 7.35 0 0 0 7.35 7.349h29.4a7.35 7.35 0 0 0 7.35-7.349v-44.1c0-4.057-3.29-7.35-7.35-7.35Zm-7.35 44.1h-14.7V473h14.7v29.4ZM1572.95 509.75a7.35 7.35 0 0 0 7.35 7.349h29.4a7.35 7.35 0 0 0 7.35-7.349v-44.1c0-4.057-3.29-7.35-7.35-7.35h-29.4a7.351 7.351 0 0 0-7.35 7.35v44.1Zm14.7-36.75h14.7v29.4h-14.7V473Z"/><path fill="#fff" fill-rule="evenodd" d="M1683.2 414.2h88.2c1.81 0 3.48.659 4.76 1.75h-31.69v12.95h-61.27a7.351 7.351 0 0 1 0-14.7Zm80.85 38.525v271.527c-2.31-.823-4.75-1.352-7.35-1.352-1.27 0-2.53.11-3.78.331-5.07-9.136-14.72-15.031-25.62-15.031s-20.55 5.895-25.62 15.031a21.585 21.585 0 0 0-3.78-.331c-12.16 0-22.05 9.893-22.05 22.05s9.89 22.05 22.05 22.05h58.8c12.16 0 22.05-9.893 22.05-22.05V452.725h-14.7ZM1697.9 752.3h58.8c4.05 0 7.35-3.3 7.35-7.35 0-5.461-6.55-9.238-11.33-6.151a7.385 7.385 0 0 1-6.75.632 7.345 7.345 0 0 1-4.4-5.153c-1.55-6.696-7.42-11.378-14.27-11.378s-12.72 4.682-14.27 11.378a7.345 7.345 0 0 1-4.4 5.153 7.382 7.382 0 0 1-6.75-.632c-1.23-.795-2.57-1.199-3.98-1.199-4.05 0-7.35 3.3-7.35 7.35s3.3 7.35 7.35 7.35Z" clip-rule="evenodd"/><path fill="#7700D1" d="M1776.16 415.95v5h13.59l-10.35-8.808-3.24 3.808Zm-31.69 0v-5h-5v5h5Zm0 12.95v5h5v-5h-5Zm19.58 23.825v-5h-5v5h5Zm0 271.527-1.68 4.71 6.68 2.384v-7.094h-5Zm-11.13-1.021-4.37 2.427 1.73 3.12 3.52-.624-.88-4.923Zm-51.24 0-.87 4.923 3.51.624 1.73-3.12-4.37-2.427Zm77.07-270.506h5v-5h-5v5Zm-14.7 292.225 5 .001v-.001h-5Zm-11.33-6.151 2.7 4.207.01-.006-2.71-4.201Zm-6.75.632 1.88-4.634-.01-.002-1.87 4.636Zm-4.4-5.153 4.88-1.122v-.006l-4.88 1.128Zm-28.54 0-4.87-1.128-.01.006 4.88 1.122Zm-11.15 4.521-2.7 4.205v.001l2.7-4.206ZM1771.4 409.2h-88.2v10h88.2v-10Zm8 2.942a12.312 12.312 0 0 0-8-2.942v10c.58 0 1.11.207 1.52.558l6.48-7.616Zm-34.93 8.808h31.69v-10h-31.69v10Zm5 7.95v-12.95h-10v12.95h10Zm-66.27 5h61.27v-10h-61.27v10Zm-12.35-12.35c0 6.818 5.53 12.35 12.35 12.35v-10a2.35 2.35 0 0 1-2.35-2.35h-10Zm12.35-12.35c-6.82 0-12.35 5.532-12.35 12.35h10a2.35 2.35 0 0 1 2.35-2.35v-10Zm75.85 43.525v271.527h10V452.725h-10Zm6.68 266.818c-2.72-.972-5.74-1.643-9.03-1.643v10c1.91 0 3.78.387 5.67 1.062l3.36-9.419Zm-9.03-1.643c-1.56 0-3.12.135-4.65.408l1.75 9.846c.95-.169 1.92-.254 2.9-.254v-10Zm.59 2.904c-5.94-10.701-17.25-17.604-29.99-17.604v10c9.06 0 17.05 4.886 21.25 12.458l8.74-4.854ZM1727.3 703.2c-12.74 0-24.05 6.903-29.99 17.604l8.74 4.854c4.2-7.572 12.19-12.458 21.25-12.458v-10Zm-24.75 15.108a26.503 26.503 0 0 0-4.65-.408v10c.98 0 1.96.085 2.91.254l1.74-9.846Zm-4.65-.408c-14.92 0-27.05 12.132-27.05 27.05h10c0-9.395 7.66-17.05 17.05-17.05v-10Zm-27.05 27.05c0 14.918 12.13 27.05 27.05 27.05v-10c-9.39 0-17.05-7.654-17.05-17.05h-10ZM1697.9 772h58.8v-10h-58.8v10Zm58.8 0c14.92 0 27.05-12.132 27.05-27.05h-10c0 9.396-7.65 17.05-17.05 17.05v10Zm27.05-27.05V452.725h-10V744.95h10Zm-5-297.225h-14.7v10h14.7v-10ZM1756.7 747.3h-58.8v10h58.8v-10Zm2.35-2.351c0 1.29-1.06 2.351-2.35 2.351v10c6.81 0 12.35-5.538 12.35-12.349l-10-.002Zm-3.62-1.949c.6-.391 1.44-.45 2.32.04.92.508 1.3 1.283 1.3 1.91h10c0-9.309-10.84-15.647-19.04-10.353l5.42 8.403Zm-11.34 1.065a12.384 12.384 0 0 0 11.33-1.059l-5.4-8.415c-.66.418-1.47.491-2.17.206l-3.76 9.268Zm-7.39-8.664a12.33 12.33 0 0 0 7.4 8.666l3.74-9.272a2.325 2.325 0 0 1-1.39-1.639l-9.75 2.245Zm-9.4-7.501c4.51 0 8.37 3.065 9.4 7.507l9.75-2.257c-2.08-8.951-9.96-15.25-19.15-15.25v10Zm-9.4 7.507c1.03-4.442 4.89-7.507 9.4-7.507v-10c-9.19 0-17.07 6.299-19.14 15.25l9.74 2.257Zm-7.4 8.66a12.33 12.33 0 0 0 7.4-8.666l-9.75-2.245a2.325 2.325 0 0 1-1.39 1.639l3.74 9.272Zm-11.32-1.062a12.364 12.364 0 0 0 11.32 1.062l-3.74-9.272c-.72.289-1.53.213-2.17-.203l-5.41 8.413Zm-1.28-.405c.41 0 .81.103 1.28.404l5.41-8.411c-2-1.287-4.27-1.993-6.69-1.993v10Zm-2.35 2.35c0-1.288 1.06-2.35 2.35-2.35v-10c-6.81 0-12.35 5.539-12.35 12.35h10Zm2.35 2.35a2.36 2.36 0 0 1-2.35-2.35h-10c0 6.812 5.54 12.35 12.35 12.35v-10Z"/><path fill="#fff" stroke="#7700D1" stroke-width="10" d="M1580.3 428.901h29.4c4.06 0 7.35-3.293 7.35-7.35v-44.1c0-4.057-3.29-7.35-7.35-7.35h-29.4a7.351 7.351 0 0 0-7.35 7.35v44.1c0 4.057 3.29 7.35 7.35 7.35Zm7.35-44.101h14.7v29.4h-14.7v-29.4ZM1572.95 597.95a7.35 7.35 0 0 0 7.35 7.349h29.4a7.35 7.35 0 0 0 7.35-7.349v-44.1c0-4.057-3.29-7.35-7.35-7.35h-29.4a7.351 7.351 0 0 0-7.35 7.35v44.1Zm14.7-36.75h14.7v29.4h-14.7v-29.4ZM1506.8 428.901h29.4c4.06 0 7.35-3.293 7.35-7.35v-44.1c0-4.057-3.29-7.35-7.35-7.35h-29.4a7.351 7.351 0 0 0-7.35 7.35v44.1c0 4.057 3.29 7.35 7.35 7.35Zm7.35-44.101h14.7v29.4h-14.7v-29.4ZM1553.03 680.932c-1.32 1.396-2.13 3.307-2.13 5.218 0 1.912.81 3.822 2.13 5.219 1.4 1.323 3.31 2.132 5.22 2.132 1.91 0 3.82-.809 5.22-2.132 1.32-1.396 2.13-3.307 2.13-5.219 0-1.911-.81-3.821-2.13-5.218-2.79-2.72-7.65-2.72-10.44 0ZM1499.45 597.95a7.35 7.35 0 0 0 7.35 7.349h29.4a7.35 7.35 0 0 0 7.35-7.349v-44.1c0-4.057-3.29-7.35-7.35-7.35h-29.4a7.351 7.351 0 0 0-7.35 7.35v44.1Zm14.7-36.75h14.7v29.4h-14.7v-29.4Z"/><path fill="#fff" stroke="#7700D1" stroke-width="10" d="M1484.75 642.05c0 4.057 3.29 7.35 7.35 7.35h22.05v66.15a7.35 7.35 0 0 0 14.7 0V649.4h58.8v66.15a7.35 7.35 0 0 0 14.7 0V649.4h22.05a7.351 7.351 0 0 0 0-14.7h-132.3a7.351 7.351 0 0 0-7.35 7.35ZM1690.55 597.95a7.35 7.35 0 0 0 7.35 7.349h29.4a7.35 7.35 0 0 0 7.35-7.349v-44.1c0-4.057-3.29-7.35-7.35-7.35h-29.4a7.351 7.351 0 0 0-7.35 7.35v44.1Zm14.7-36.75h14.7v29.4h-14.7v-29.4Z"/><path fill="#fff" fill-rule="evenodd" d="M1653.8 326h-191.1c-2.29 0-4.34 1.05-5.69 2.695h42.44v12.004h124.09v-12.004h35.95a7.347 7.347 0 0 0-5.69-2.695Zm-183.75 38.339h-14.7v351.21a7.351 7.351 0 0 0 14.7 0v-351.21Zm176.4 351.21v-351.21h14.7v351.21a7.351 7.351 0 0 1-14.7 0Z" clip-rule="evenodd"/><path fill="#7700D1" d="m1457.01 328.695-3.86-3.17-6.7 8.17h10.56v-5Zm42.44 0h5v-5h-5v5Zm0 12.004h-5v5h5v-5Zm124.09 0v5h5v-5h-5Zm0-12.004v-5h-5v5h5Zm35.95 0v5h10.56l-6.7-8.17-3.86 3.17Zm-189.44 35.644h5v-5h-5v5Zm-14.7 0v-5h-5v5h5Zm191.1 0v-5h-5v5h5Zm14.7 0h5v-5h-5v5ZM1462.7 331h191.1v-10h-191.1v10Zm-1.82.865a2.332 2.332 0 0 1 1.82-.865v-10c-3.85 0-7.3 1.773-9.55 4.525l7.73 6.34Zm-3.87 1.83h42.44v-10h-42.44v10Zm37.44-5v12.004h10v-12.004h-10Zm129.09 7.004h-124.09v10h124.09v-10Zm-5-7.004v12.004h10v-12.004h-10Zm40.95-5h-35.95v10h35.95v-10ZM1653.8 331c.73 0 1.38.328 1.82.865l7.73-6.34a12.327 12.327 0 0 0-9.55-4.525v10Zm-183.75 28.339h-14.7v10h14.7v-10Zm-9.7 356.21v-351.21h-10v351.21h10Zm2.35 2.35a2.35 2.35 0 0 1-2.35-2.35h-10c0 6.819 5.53 12.35 12.35 12.35v-10Zm2.35-2.35a2.35 2.35 0 0 1-2.35 2.35v10c6.82 0 12.35-5.531 12.35-12.35h-10Zm0-351.21v351.21h10v-351.21h-10Zm176.4 0v351.21h10v-351.21h-10Zm19.7-5h-14.7v10h14.7v-10Zm5 356.21v-351.21h-10v351.21h10Zm-12.35 12.35c6.82 0 12.35-5.531 12.35-12.35h-10a2.35 2.35 0 0 1-2.35 2.35v10Zm-12.35-12.35c0 6.819 5.53 12.35 12.35 12.35v-10a2.35 2.35 0 0 1-2.35-2.35h-10Z"/><path fill="#fff" fill-rule="evenodd" d="M1724.31 423.941v-4.8h11.63c20.99 0 38 17.013 38 38v1.159h-4.8v-1.159c0-18.336-14.87-33.2-33.2-33.2h-11.63ZM1606.66 335.741v-4.8h11.63c20.99 0 38 17.014 38 38v1.16h-4.8v-1.16c0-18.335-14.86-33.2-33.2-33.2h-11.63ZM1509.57 335.741v-4.8h-11.63c-20.99 0-38 17.014-38 38v1.16h4.8v-1.16c0-18.335 14.87-33.2 33.2-33.2h11.63Z" clip-rule="evenodd"/></g><g clip-path="url(#f)"><path fill="#fff" d="M224.652 571.851h151.762l2.232 2.235v17.385l-2.232 2.235h-6.916v164.491l-2.232 2.235H233.839l-2.232-2.235V593.725h-6.916l-2.232-2.235v-17.384l2.193-2.255Zm11.4 184.111h128.942v-8.346H236.052v8.346Zm0-12.816h128.942V734.8H236.052v8.346Zm0-12.835h128.942v-8.347H236.052v8.347Zm0-12.816h128.942v-8.347H236.052v8.347Zm0-12.836h128.942v-8.346H236.052v8.346Zm0-12.816h128.942v-8.346H236.052v8.346Zm0-12.836h128.942v-8.346H236.052v8.346Zm0-12.816h128.942v-8.346H236.052v8.346Zm0-12.836h128.942v-8.346H236.052v8.346Zm0-12.816h128.942v-8.346H236.052v8.346Zm0-12.835h128.942v-8.347H236.052v8.347Zm0-12.816h128.942v-8.347H236.052v8.347Zm0-12.836h128.942v-8.327H236.052v8.327Zm-9.167-12.816H374.142v-12.895H226.865v12.895h.02ZM391.646 571.851h151.762l2.233 2.235v17.385l-2.233 2.235h-6.915v45.844a2.232 2.232 0 0 1-2.233 2.235 2.244 2.244 0 0 1-2.233-2.235v-20.193H403.086v138.84a2.231 2.231 0 0 1-2.232 2.235 2.244 2.244 0 0 1-2.233-2.235V593.725h-6.915l-2.233-2.235v-17.384l2.173-2.255Zm140.362 43.037v-8.347H403.066v8.347h128.942Zm-128.942-12.836h128.942v-8.327H403.066v8.327Zm-9.167-12.816H541.156v-12.895H393.879v12.895h.02Z"/><path fill="#fff" fill-rule="evenodd" d="M402.965 525.373h-232.73l-2.233-2.235v-2.24h4.465v.005h228.245v-42.7H228.89v-4.47h174.075l2.232 2.235v47.17l-2.232 2.235Z" clip-rule="evenodd"/><path fill="#fff" fill-rule="evenodd" d="M600.197 520.898v2.24l-2.232 2.235h-232.73l-2.233-2.235v-47.17l2.233-2.235h180.688v4.47H367.467v42.7h228.245v-.005h4.485Z" clip-rule="evenodd"/><path fill="#fff" d="M170.06 497.309h97.605a2.23 2.23 0 0 1 2.232 2.234 2.231 2.231 0 0 1-2.232 2.235h-95.373v34.058h423.475v-34.038h-95.372a2.232 2.232 0 0 1-2.233-2.235 2.232 2.232 0 0 1 2.233-2.235H598l2.232 2.235v38.547L598 540.345h-10.867v98.928a2.232 2.232 0 0 1-2.233 2.235 2.243 2.243 0 0 1-2.232-2.235v-98.928H185.412v215.617H584.92a2.232 2.232 0 0 1 2.233 2.235 2.245 2.245 0 0 1-2.233 2.235H183.179l-2.233-2.235V540.345H170.08l-2.233-2.235v-38.567l2.213-2.234Z"/><path fill="#7700D1" d="M167.251 490.129h432.981v30.769H167.251z"/><path fill="#7700D1" d="M255.692 478.135h311.664v29.82H255.692z"/><path fill="#fff" fill-rule="evenodd" d="M268.193 520.898v.292h-4.35v-.292h4.35Zm-36.057-42.759v-4.357a39.091 39.091 0 0 0-1.943-.049h-24.347c-20.987 0-38 17.014-38 38v9.457h4.35v-9.457c0-18.584 15.065-33.65 33.65-33.65h24.347c.653 0 1.3.019 1.943.056ZM499.885 520.898v.292h4.35v-.292h-4.35Zm36.057-42.759v-4.357a39.091 39.091 0 0 1 1.943-.049h24.347c20.987 0 38 17.014 38 38v9.457h-4.35v-9.457c0-18.584-15.065-33.65-33.65-33.65h-24.347c-.652 0-1.3.019-1.943.056ZM488.023 687.202v-38.818h4.682v38.818h-4.682Zm12.071 10.229v-4.666h39.609v4.666h-39.609Zm51.68-49.047h-4.661v38.818h4.661v-38.818Zm-16.826-14.768h-29.954v4.687h29.954v-4.687Z" clip-rule="evenodd"/><path fill="#fff" fill-rule="evenodd" d="M505.716 659.942h28.082l2.421-2.356v-18.403c0-1.3-1.085-2.356-2.421-2.356-1.336 0-2.421 1.056-2.421 2.356v16.006H508.137v-16.006c0-1.3-1.085-2.356-2.421-2.356-1.336 0-2.421 1.056-2.421 2.356v18.403l2.421 2.356Z" clip-rule="evenodd"/><path fill="#fff" fill-rule="evenodd" d="M506.702 638.705v-5.031a15.091 15.091 0 0 0-1.317-.058h-2.676c-8.111 0-14.686 6.575-14.686 14.686v.082h5v-.082c0-5.349 4.336-9.686 9.686-9.686h2.676a9.7 9.7 0 0 1 1.317.089ZM533.095 638.676v-5.02c.358-.026.72-.04 1.085-.04h3.233c8.111 0 14.686 6.575 14.686 14.686l-.001.083h-5l.001-.083c0-5.349-4.337-9.686-9.686-9.686h-3.233a9.96 9.96 0 0 0-1.085.06ZM529.609 692.731v4.7h9.536c6.975 0 12.63-5.655 12.63-12.63l-.001-.071h-4.7l.001.071a7.93 7.93 0 0 1-7.93 7.93h-9.536ZM510.188 692.731v4.7h-9.535c-6.975 0-12.63-5.655-12.63-12.63v-.071h4.701l-.001.071a7.93 7.93 0 0 0 7.93 7.93h9.535Z" clip-rule="evenodd"/><path fill="#fff" fill-rule="evenodd" d="M457.483 750.202v-38.818h4.682v38.818h-4.682Zm12.071 10.229v-4.666h39.609v4.666h-39.609Zm51.68-49.047h-4.661v38.818h4.661v-38.818Zm-16.826-14.768h-29.954v4.687h29.954v-4.687Z" clip-rule="evenodd"/><path fill="#fff" fill-rule="evenodd" d="M475.176 722.942h28.082l2.421-2.356v-18.403c0-1.3-1.085-2.356-2.421-2.356-1.336 0-2.421 1.056-2.421 2.356v16.006H477.597v-16.006c0-1.3-1.085-2.356-2.421-2.356-1.336 0-2.421 1.056-2.421 2.356v18.403l2.421 2.356Z" clip-rule="evenodd"/><path fill="#fff" fill-rule="evenodd" d="M476.162 701.705v-5.031a15.091 15.091 0 0 0-1.317-.058h-2.676c-8.111 0-14.686 6.575-14.686 14.686v.082h5v-.082c0-5.349 4.336-9.686 9.686-9.686h2.676a9.7 9.7 0 0 1 1.317.089ZM502.555 701.675v-5.02c.354-.026.713-.039 1.074-.039h3.259c8.111 0 14.686 6.575 14.686 14.686l-.001.083h-5l.001-.083c0-5.349-4.337-9.686-9.686-9.686h-3.259c-.363 0-.722.02-1.074.059ZM499.068 755.731v4.7h9.536c6.975 0 12.63-5.655 12.63-12.63l-.001-.071h-4.7l.001.071a7.93 7.93 0 0 1-7.93 7.93h-9.536ZM479.648 755.731v4.7h-9.535c-6.975 0-12.63-5.655-12.63-12.63v-.071h4.701l-.001.071a7.93 7.93 0 0 0 7.93 7.93h9.535ZM547.473 687.202v-38.818h4.681v38.818h-4.681Zm12.07 10.229v-4.666h39.61v4.666h-39.61Zm51.68-49.047h-4.661v38.818h4.661v-38.818Zm-16.826-14.768h-29.954v4.687h29.954v-4.687Z" clip-rule="evenodd"/><path fill="#fff" fill-rule="evenodd" d="M565.165 659.942h28.082l2.422-2.356v-18.403c0-1.3-1.086-2.356-2.422-2.356s-2.421 1.056-2.421 2.356v16.006h-23.239v-16.006c0-1.3-1.086-2.356-2.422-2.356-1.335 0-2.421 1.056-2.421 2.356v18.403l2.421 2.356Z" clip-rule="evenodd"/><path fill="#fff" fill-rule="evenodd" d="M566.151 638.674v-5.02a14.95 14.95 0 0 0-1.063-.038h-3.285c-8.111 0-14.686 6.575-14.686 14.686v.083h5v-.083c0-5.349 4.336-9.686 9.686-9.686h3.285c.36 0 .714.02 1.063.058ZM592.544 638.705v-5.031c.434-.038.873-.058 1.317-.058h2.676c8.111 0 14.686 6.575 14.686 14.686v.082h-5v-.082c0-5.349-4.336-9.686-9.686-9.686h-2.676a9.7 9.7 0 0 0-1.317.089ZM589.058 692.731v4.7h9.535c6.975 0 12.63-5.655 12.63-12.63v-.071h-4.7v.071a7.93 7.93 0 0 1-7.93 7.93h-9.535ZM569.638 692.731v4.7h-9.536c-6.975 0-12.63-5.655-12.63-12.63l.001-.071h4.7l-.001.071a7.93 7.93 0 0 0 7.93 7.93h9.536Z" clip-rule="evenodd"/><path fill="#7700D1" d="M572.973 638.236h16.858v16.955h-16.858zM572.973 659.942h22.696v32.653h-22.696z"/><path fill="#fff" fill-rule="evenodd" d="M516.933 750.202v-38.818h4.681v38.818h-4.681Zm12.07 10.229v-4.666h39.61v4.666h-39.61Zm51.68-49.047h-4.661v38.818h4.661v-38.818Zm-16.826-14.768h-29.954v4.687h29.954v-4.687Z" clip-rule="evenodd"/><path fill="#fff" fill-rule="evenodd" d="M534.625 722.942h28.082l2.421-2.356v-18.403c0-1.3-1.085-2.356-2.421-2.356-1.336 0-2.421 1.056-2.421 2.356v16.006h-23.239v-16.006c0-1.3-1.086-2.356-2.422-2.356s-2.421 1.056-2.421 2.356v18.403l2.421 2.356Z" clip-rule="evenodd"/><path fill="#fff" fill-rule="evenodd" d="M535.611 701.705v-5.031a15.091 15.091 0 0 0-1.317-.058h-2.977c-8.111 0-14.686 6.575-14.686 14.686v.082h5v-.082c0-5.349 4.336-9.686 9.686-9.686h2.977c.447 0 .887.03 1.317.089ZM562.004 701.705v-5.031c.434-.038.873-.058 1.317-.058h3.013c8.111 0 14.686 6.575 14.686 14.686l-.001.082h-5l.001-.082c0-5.349-4.337-9.686-9.686-9.686h-3.013a9.7 9.7 0 0 0-1.317.089ZM558.518 755.731v4.7h9.535c6.975 0 12.63-5.655 12.63-12.63v-.071h-4.701l.001.071a7.93 7.93 0 0 1-7.93 7.93h-9.535ZM539.098 755.731v4.7h-9.536c-6.975 0-12.63-5.655-12.63-12.63l.001-.071h4.7l-.001.071a7.93 7.93 0 0 0 7.93 7.93h9.536Z" clip-rule="evenodd"/><path fill="#fff" fill-rule="evenodd" d="M576.943 750.202v-38.818h4.682v38.818h-4.682Zm12.071 10.229v-4.666h39.609v4.666h-39.609Zm51.68-49.047h-4.661v38.818h4.661v-38.818Zm-16.826-14.768h-29.954v4.687h29.954v-4.687Z" clip-rule="evenodd"/><path fill="#fff" fill-rule="evenodd" d="M594.636 722.942h28.082l2.421-2.356v-18.403c0-1.3-1.085-2.356-2.421-2.356-1.336 0-2.421 1.056-2.421 2.356v16.006H597.057v-16.006c0-1.3-1.085-2.356-2.421-2.356-1.336 0-2.421 1.056-2.421 2.356v18.403l2.421 2.356Z" clip-rule="evenodd"/><path fill="#fff" fill-rule="evenodd" d="M595.622 701.705v-5.031a15.091 15.091 0 0 0-1.317-.058h-2.974c-8.11 0-14.685 6.575-14.685 14.686v.082h5v-.082c0-5.349 4.336-9.686 9.685-9.686h2.974a9.7 9.7 0 0 1 1.317.089ZM622.015 701.705v-5.031c.434-.038.873-.058 1.317-.058h2.676c8.111 0 14.686 6.575 14.686 14.686v.082h-5.001l.001-.082c0-5.349-4.337-9.686-9.686-9.686h-2.676c-.447 0-.887.03-1.317.089ZM618.528 755.731v4.7h9.536c6.975 0 12.63-5.655 12.63-12.63l-.001-.071h-4.7l.001.071a7.93 7.93 0 0 1-7.93 7.93h-9.536ZM599.108 755.731v4.7h-9.535c-6.975 0-12.63-5.655-12.63-12.63v-.071h4.7v.071a7.93 7.93 0 0 0 7.93 7.93h9.535Z" clip-rule="evenodd"/></g><path fill="#fff" d="M1556.02 289.784c-.29-.264-7.06-6.748-13.93-16.344-9.35-13.089-14.09-25.149-14.09-35.869 0-16.487 13.4-29.887 29.89-29.887 16.48 0 29.88 13.4 29.88 29.887 0 10.624-4.73 22.684-14.09 35.797-6.87 9.62-13.64 16.152-13.93 16.416h-3.73Zm1.87-76.669c-13.5 0-24.46 10.984-24.46 24.456 0 19.358 18.43 40.129 24.46 46.398 6-6.317 24.45-27.231 24.45-46.398 0-13.496-10.96-24.456-24.45-24.456Z"/><path fill="#fff" d="M1557.89 251.354c-7.61 0-13.79-6.174-13.79-13.783 0-7.61 6.18-13.783 13.79-13.783 7.61 0 13.78 6.173 13.78 13.783 0 7.609-6.17 13.783-13.78 13.783Zm0-22.135a8.342 8.342 0 0 0-8.35 8.352c0 4.618 3.75 8.351 8.35 8.351 4.61 0 8.35-3.757 8.35-8.351 0-4.595-3.74-8.352-8.35-8.352ZM382.022 433.784c-.287-.264-7.059-6.748-13.927-16.344-9.356-13.089-14.094-25.149-14.094-35.869 0-16.487 13.4-29.887 29.887-29.887 16.487 0 29.887 13.4 29.887 29.887 0 10.624-4.738 22.684-14.094 35.797-6.867 9.62-13.639 16.152-13.926 16.416h-3.733Zm1.866-76.669c-13.496 0-24.455 10.984-24.455 24.456 0 19.358 18.425 40.129 24.455 46.398 6.006-6.317 24.455-27.231 24.455-46.398 0-13.496-10.959-24.456-24.455-24.456Z"/><path fill="#fff" d="M383.888 395.354c-7.61 0-13.784-6.174-13.784-13.783 0-7.61 6.174-13.783 13.784-13.783 7.609 0 13.783 6.173 13.783 13.783 0 7.609-6.174 13.783-13.783 13.783Zm0-22.135a8.344 8.344 0 0 0-8.352 8.352c0 4.618 3.757 8.351 8.352 8.351 4.618 0 8.351-3.757 8.351-8.351 0-4.595-3.733-8.352-8.351-8.352Z"/><path fill="#fff" fill-rule="evenodd" d="M1556.69 297.254c.5-.871.99-1.732 1.46-2.582l-1.75-.968c-.46.839-.95 1.688-1.44 2.548l1.73 1.002Zm-4.75 7.746c1.12-1.733 2.18-3.435 3.19-5.105l-1.72-1.032c-.99 1.651-2.04 3.336-3.15 5.052l1.68 1.085Zm-5.03 7.476c1.18-1.683 2.31-3.345 3.4-4.983l-1.67-1.106c-1.08 1.623-2.2 3.272-3.37 4.943l1.64 1.146Zm-5.29 7.309c1.22-1.635 2.4-3.254 3.55-4.855l-1.62-1.164a327.03 327.03 0 0 1-3.53 4.822l1.6 1.197Zm-5.51 7.161c1.26-1.592 2.49-3.172 3.68-4.739l-1.59-1.212a377.431 377.431 0 0 1-3.66 4.711l1.57 1.24Zm-84.09 81.244c1.6-1.185 3.21-2.385 4.8-3.601l-1.21-1.592c-1.59 1.21-3.18 2.404-4.78 3.582l1.19 1.611Zm-7.33 5.261c1.63-1.144 3.26-2.305 4.89-3.483l-1.17-1.62a338.799 338.799 0 0 1-4.87 3.463l1.15 1.64ZM384.756 439.688a70.843 70.843 0 0 0 1.919 2.237l1.492-1.332a71.335 71.335 0 0 1-1.866-2.175l-1.545 1.27Zm3.971 4.453c1.32 1.375 2.74 2.772 4.258 4.186l1.364-1.464a103.773 103.773 0 0 1-4.178-4.107l-1.444 1.385Zm6.465 6.193a149.808 149.808 0 0 0 4.533 3.867l1.269-1.545a152 152 0 0 1-4.474-3.817l-1.328 1.495Zm931.638 5.671c1.9-.614 3.85-1.185 5.86-1.708l-.5-1.935a104.92 104.92 0 0 0-5.97 1.74l.61 1.903Zm-924.771.079a197.619 197.619 0 0 0 4.739 3.639l1.195-1.603a199.583 199.583 0 0 1-4.692-3.603l-1.242 1.567Zm916.201 3.134a96.22 96.22 0 0 1 5.67-2.226l-.68-1.884c-1.98.71-3.91 1.469-5.78 2.272l.79 1.838Zm-8.21 4.019a89.238 89.238 0 0 1 5.42-2.769l-.85-1.811a92.046 92.046 0 0 0-5.54 2.83l.97 1.75Zm-900.892-1.779a250.212 250.212 0 0 0 4.868 3.439l1.135-1.647a247.479 247.479 0 0 1-4.829-3.411l-1.174 1.619Zm893.142 6.61a84.81 84.81 0 0 1 5.11-3.313l-1.03-1.715a90.638 90.638 0 0 0-5.23 3.389l1.15 1.639Zm-885.825-1.503a295.834 295.834 0 0 0 4.964 3.269l1.084-1.681a298.176 298.176 0 0 1-4.931-3.247l-1.117 1.659Zm279.116 1.334c-2.082.019-4.101.16-6.042.42l.265 1.982a46.972 46.972 0 0 1 5.795-.402l-.018-2Zm9.075.651a60.184 60.184 0 0 0-6.032-.593l-.093 1.998c1.896.088 3.843.278 5.831.573l.294-1.978Zm590.434 5.142a84.724 84.724 0 0 1 4.74-3.838l-1.21-1.598a87.541 87.541 0 0 0-4.84 3.929l1.31 1.507Zm-608.574-4.86a37.249 37.249 0 0 0-5.851 1.706l.72 1.866a35.252 35.252 0 0 1 5.537-1.613l-.406-1.959Zm24.072.879a69.647 69.647 0 0 0-2.984-.653l-.384 1.963c.958.187 1.924.398 2.897.634.973.236 1.936.488 2.888.757l.543-1.925a83.806 83.806 0 0 0-2.96-.776Zm11.583 3.733a81.268 81.268 0 0 0-5.723-2.082l-.613 1.904a79.477 79.477 0 0 1 5.583 2.03l.753-1.852Zm-44.326-1.661a27.265 27.265 0 0 0-5.157 3.339l1.275 1.541a25.137 25.137 0 0 1 4.779-3.092l-.897-1.788Zm610.705 8.273a86.05 86.05 0 0 1 4.29-4.324l-1.37-1.459a85.49 85.49 0 0 0-4.39 4.426l1.47 1.357Zm-558.126-2.688a78.73 78.73 0 0 0-5.446-2.72l-.824 1.823a76.527 76.527 0 0 1 5.308 2.65l.962-1.753Zm-60.002-.108a21.712 21.712 0 0 0-3.537 5.1l1.791.891a19.734 19.734 0 0 1 3.212-4.631l-1.466-1.36Zm67.735 4.982a73.648 73.648 0 0 0-5.091-3.355l-1.031 1.713a72.602 72.602 0 0 1 4.954 3.264l1.168-1.622Zm544.563 4.84a84.636 84.636 0 0 1 3.8-4.753l-1.51-1.304a88.486 88.486 0 0 0-3.9 4.863l1.61 1.194Zm-537.509.975a67.444 67.444 0 0 0-4.631-3.991l-1.236 1.571a66.083 66.083 0 0 1 4.494 3.874l1.373-1.454Zm-79.51-2.806a23.293 23.293 0 0 0-1.106 6.074l1.998.101a21.305 21.305 0 0 1 1.009-5.553l-1.901-.622Zm611.949 9.43a88.414 88.414 0 0 1 3.29-5.121l-1.64-1.138a92.56 92.56 0 0 0-3.37 5.236l1.72 1.023Zm-526.267.143a58.572 58.572 0 0 0-4.004-4.617l-1.442 1.385a56.993 56.993 0 0 1 3.868 4.46l1.578-1.228Zm-86.764-.404c.123 1.929.448 3.939.986 6.025l1.936-.499a30.454 30.454 0 0 1-.926-5.654l-1.996.128Zm608.761 8.347a86.95 86.95 0 0 1 2.76-5.44l-1.75-.964a97.024 97.024 0 0 0-2.83 5.558l1.82.846Zm-517.013-.219a48.61 48.61 0 0 0-3.166-5.249l-1.646 1.137a46.413 46.413 0 0 1 3.036 5.032l1.776-.92Zm-89.867.872a48.046 48.046 0 0 0 2.337 5.591l1.795-.881a46.448 46.448 0 0 1-2.241-5.359l-1.891.649Zm603.42 7.801c.66-1.872 1.4-3.767 2.21-5.673l-1.84-.786a94.37 94.37 0 0 0-2.25 5.794l1.88.665Zm-510.244-.046a38.186 38.186 0 0 0-1.989-5.843l-1.837.791a36.07 36.07 0 0 1 1.885 5.536l1.941-.484Zm-89.463.467a69.227 69.227 0 0 0 3.162 5.132l1.657-1.12a67.426 67.426 0 0 1-3.071-4.983l-1.748.971Zm597.107 8.35a87.532 87.532 0 0 1 1.64-5.875l-1.91-.602c-.64 2.04-1.2 4.047-1.68 6.004l1.95.473Zm-506.71.417a30.031 30.031 0 0 0-.322-6.207l-1.977.305c.301 1.951.405 3.888.302 5.794l1.997.108Zm-85.47-1.128a94.813 94.813 0 0 0 3.675 4.693l1.536-1.281a92.523 92.523 0 0 1-3.597-4.593l-1.614 1.181Zm-138.324 4.393 2.029.692h3.998l.23-.689c-.763-.254-1.525-.509-2.285-.765h-3.711l-.261.762Zm728.824 5.293a77.01 77.01 0 0 1 1.01-6.002l-1.96-.404a85.978 85.978 0 0 0-1.04 6.15l1.99.256Zm-507.122.524a26.57 26.57 0 0 0 1.749-5.986l-1.972-.333a24.552 24.552 0 0 1-1.618 5.537l1.841.782Zm-77.693-3.177a123.062 123.062 0 0 0 4.029 4.339l1.433-1.395a121.677 121.677 0 0 1-3.963-4.268l-1.499 1.324Zm72.68 11.003a29.42 29.42 0 0 0 3.634-5.039l-1.739-.988a27.344 27.344 0 0 1-3.388 4.696l1.493 1.331Zm-66.49-4.493a152.074 152.074 0 0 0 4.295 4.059l1.346-1.479a152.475 152.475 0 0 1-4.239-4.006l-1.402 1.426Zm578.105 2.177c.04-.969.1-1.975.19-3.016l-1.99-.173c-.1 1.071-.16 2.11-.2 3.111v.004c-.03.98-.08 1.961-.12 2.945l1.99.101c.05-.993.09-1.984.13-2.972Zm-571.505 3.942c1.43 1.255 2.919 2.52 4.468 3.796l1.272-1.543a188.807 188.807 0 0 1-4.421-3.756l-1.319 1.503Zm52.875 4.401a38.787 38.787 0 0 0 4.844-3.813l-1.363-1.464a36.657 36.657 0 0 1-4.594 3.615l1.113 1.662Zm517.82 3.587c.2-1.995.37-3.985.51-5.968l-2-.135c-.13 1.961-.3 3.928-.5 5.9l1.99.203Zm-659.03-3.848c1.929.432 3.862.856 5.798 1.269l.418-1.956a587.887 587.887 0 0 1-5.779-1.265l-.437 1.952Zm8.7 1.882c1.936.403 3.874.797 5.815 1.181l.388-1.961a594.265 594.265 0 0 1-5.795-1.178l-.408 1.958Zm86.467-.308a223.97 223.97 0 0 0 4.678 3.635l1.207-1.595c-1.6-1.21-3.145-2.411-4.636-3.602l-1.249 1.562Zm37.967 3.044a53.886 53.886 0 0 0 5.483-2.746l-.999-1.732a52.063 52.063 0 0 1-5.28 2.643l.796 1.835Zm-115.707-.986c1.942.374 3.887.739 5.833 1.093l.358-1.968a566.37 566.37 0 0 1-5.812-1.089l-.379 1.964Zm8.753 1.616c1.949.343 3.899.677 5.85 1l.326-1.974a525.107 525.107 0 0 1-5.828-.996l-.348 1.97Zm98.357 2.419a74.079 74.079 0 0 0 5.787-1.911l-.708-1.87a72.168 72.168 0 0 1-5.63 1.859l.551 1.922Zm-89.578-.943c1.954.312 3.908.613 5.863.904l.294-1.979a528.054 528.054 0 0 1-5.841-.9l-.316 1.975Zm67.278.271a255.239 255.239 0 0 0 4.334 3.125l.096.901c2.054-.22 4.035-.479 5.946-.776l-.307-1.976a122.25 122.25 0 0 1-4.09.563 254.505 254.505 0 0 1-4.792-3.447l-1.187 1.61Zm-58.476 1.061c1.96.279 3.92.548 5.88.804l.26-1.983a508.162 508.162 0 0 1-5.857-.801l-.283 1.98Zm71.918 1.67a98.81 98.81 0 0 0 5.918-1.273l-.482-1.941a96.475 96.475 0 0 1-5.798 1.247l.362 1.967Zm542.201 3.034c.31-1.98.58-3.958.82-5.934l-1.99-.238c-.23 1.952-.5 3.907-.81 5.862l1.98.31Zm-605.298-3.523c1.966.246 3.932.48 5.898.702l.225-1.987a489.603 489.603 0 0 1-5.875-.699l-.248 1.984Zm8.847 1.027a420.507 420.507 0 0 0 6.038.6l.179-1.992a286.764 286.764 0 0 1-3.069-.292c-.978-.099-1.957-.2-2.936-.305l-.212 1.989Zm9.067.857c2.021.16 4.001.295 5.941.405l.113-1.997a257.328 257.328 0 0 1-5.896-.402l-.158 1.994Zm27.113.585c2.064-.096 4.066-.227 6.007-.392l-.17-1.993c-1.914.163-3.89.292-5.929.387l.092 1.998Zm-18.089-.025a223.1 223.1 0 0 0 5.96.185l.035-2a223.46 223.46 0 0 1-5.907-.183l-.088 1.998Zm9.036.216c2.055.006 4.058-.02 6.008-.076l-.058-2a185.9 185.9 0 0 1-5.945.076l-.005 2Zm20.981.287c1.62 1.112 3.285 2.23 4.995 3.355l1.099-1.672a294.03 294.03 0 0 1-4.962-3.332l-1.132 1.649Zm546.693 9.413c.43-1.958.81-3.919 1.16-5.88l-1.97-.347a147.13 147.13 0 0 1-1.14 5.804l1.95.423Zm-539.154-4.404a338.433 338.433 0 0 0 4.948 3.125l1.053-1.7a339.844 339.844 0 0 1-4.919-3.107l-1.082 1.682Zm7.51 4.698a387.045 387.045 0 0 0 5.171 3.088l1.012-1.725a376.641 376.641 0 0 1-5.143-3.072l-1.04 1.709Zm529.484 8.434c.54-1.93 1.04-3.865 1.5-5.803l-1.94-.461a165.76 165.76 0 0 1-1.48 5.723l1.92.541Zm-521.793-3.88c1.697.979 3.428 1.962 5.194 2.949l.975-1.747a421.142 421.142 0 0 1-5.17-2.934l-.999 1.732Zm7.869 4.431c1.693.93 3.416 1.863 5.171 2.799l.941-1.765a462.362 462.362 0 0 1-5.149-2.787l-.963 1.753Zm511.224 8.027a147.88 147.88 0 0 0 1.86-5.699l-1.91-.58a143.18 143.18 0 0 1-1.84 5.616l1.89.663Zm-503.444-3.846c1.755.922 3.541 1.847 5.357 2.775l.91-1.781a509.573 509.573 0 0 1-5.336-2.765l-.931 1.771Zm8.081 4.156c1.711.862 3.448 1.726 5.213 2.592l.881-1.795a560.57 560.57 0 0 1-5.195-2.583l-.899 1.786Zm492.093 8.074c.79-1.844 1.54-3.699 2.24-5.564l-1.87-.704c-.69 1.837-1.43 3.664-2.21 5.479l1.84.789Zm-484.213-4.181c1.792.868 3.611 1.737 5.457 2.609l.854-1.808a615.376 615.376 0 0 1-5.439-2.601l-.872 1.8Zm8.201 3.897c1.74.812 3.504 1.625 5.292 2.439l.829-1.82a647.69 647.69 0 0 1-5.276-2.432l-.845 1.813Zm7.992 3.662c1.812.817 3.648 1.634 5.508 2.453l.806-1.831a681.104 681.104 0 0 1-5.493-2.445l-.821 1.823Zm464.18 4.761c.92-1.784 1.8-3.583 2.63-5.395l-1.82-.831c-.82 1.783-1.68 3.554-2.58 5.309l1.77.917Zm-455.863-1.079c1.763.768 3.547 1.536 5.353 2.305l.784-1.84a700.104 700.104 0 0 1-5.339-2.299l-.798 1.834Zm8.067 3.455a764.13 764.13 0 0 0 5.525 2.305l.763-1.848a787.155 787.155 0 0 1-5.511-2.3l-.777 1.843Zm443.386 5.468c1.05-1.714 2.05-3.446 3.01-5.193l-1.76-.96c-.94 1.719-1.92 3.422-2.96 5.107l1.71 1.046Zm-435.05-2.008c1.817.743 3.655 1.486 5.514 2.23l.743-1.856a892.638 892.638 0 0 1-5.501-2.226l-.756 1.852Zm8.227 3.312c1.819.722 3.657 1.444 5.515 2.167l.725-1.864a873.69 873.69 0 0 1-5.502-2.162l-.738 1.859Zm421.833 6.19c1.18-1.632 2.3-3.285 3.39-4.956l-1.68-1.087a121.527 121.527 0 0 1-3.34 4.872l1.63 1.171Zm-413.518-2.938c1.877.724 3.774 1.448 5.69 2.173l.707-1.871a948.364 948.364 0 0 1-5.677-2.168l-.72 1.866Zm8.432 3.206c1.81.679 3.638 1.358 5.484 2.038l.691-1.877a931.988 931.988 0 0 1-5.473-2.034l-.702 1.873Zm399.536 6.827a123.98 123.98 0 0 0 3.76-4.688l-1.59-1.211a120.656 120.656 0 0 1-3.7 4.607l1.53 1.292Zm-391.271-3.769a1093.3 1093.3 0 0 0 5.641 2.042l.676-1.882c-1.895-.68-3.772-1.36-5.631-2.039l-.686 1.879Zm385.191 10.422c1.42-1.441 2.79-2.907 4.12-4.394l-1.5-1.33c-1.3 1.462-2.65 2.903-4.05 4.32l1.43 1.404Zm-6.57 6.177c1.53-1.336 3.01-2.697 4.45-4.082l-1.39-1.44a114.3 114.3 0 0 1-4.38 4.014l1.32 1.508Zm-6.99 5.648c1.62-1.217 3.2-2.46 4.73-3.727l-1.28-1.54c-1.5 1.247-3.05 2.47-4.65 3.667l1.2 1.6Zm-7.36 5.132a128.24 128.24 0 0 0 4.94-3.36l-1.16-1.627c-1.58 1.127-3.2 2.23-4.87 3.308l1.09 1.679Zm-7.7 4.622c1.75-.975 3.46-1.975 5.13-3l-1.05-1.703a139.474 139.474 0 0 1-5.05 2.956l.97 1.747Zm-8 4.127c1.82-.871 3.61-1.768 5.35-2.689l-.94-1.768c-1.71.908-3.47 1.793-5.27 2.652l.86 1.805Zm-8.27 3.654c1.89-.774 3.75-1.573 5.57-2.397l-.83-1.821c-1.79.813-3.62 1.602-5.5 2.366l.76 1.852Zm-8.35 3.142a172.69 172.69 0 0 0 5.62-2.059l-.72-1.865c-1.82.701-3.67 1.38-5.56 2.034l.66 1.89Zm-8.53 2.719c1.91-.558 3.79-1.14 5.64-1.744l-.63-1.901a177.94 177.94 0 0 1-5.57 1.725l.56 1.92Zm-8.74 2.33c1.98-.481 3.94-.985 5.85-1.512l-.53-1.929c-1.9.522-3.83 1.021-5.79 1.498l.47 1.943Zm-8.71 1.917c1.98-.393 3.94-.809 5.85-1.246l-.44-1.95c-1.9.433-3.83.844-5.8 1.234l.39 1.962Zm-8.81 1.571c1.97-.312 3.91-.645 5.82-.997l-.37-1.967c-1.89.35-3.81.679-5.77.989l.32 1.975Zm-8.95 1.252c2.03-.248 4.03-.516 6.01-.804l-.29-1.979c-1.96.286-3.95.552-5.96.798l.24 1.985Z" clip-rule="evenodd"/><g fill="#fff" stroke="#7700D1" opacity=".2"><path d="m1195.68 524.147-.49.208-.18-.502a16.78 16.78 0 0 0-4.97-7.241v-.002a16.973 16.973 0 0 0-11.03-4.092c-9.37 0-16.99 7.628-16.99 17.003 0 .968.78 1.735 1.73 1.735s1.74-.784 1.74-1.735c0-7.455 6.05-13.513 13.5-13.513 6.53 0 12.07 4.635 13.26 11.044l2.98 1.27a10.976 10.976 0 0 1 6.04-1.812c6.11 0 11.05 4.971 11.05 11.061 0 6.111-4.96 11.061-11.05 11.061h-48.29c-.96 0-1.73.782-1.73 1.735 0 .948.8 1.755 1.77 1.755h48.27c8.02 0 14.54-6.52 14.54-14.551s-6.52-14.551-14.54-14.551c-1.95 0-3.86.383-5.61 1.127Z"/><path d="M1139.23 542.945h43.67c.96 0 1.73-.782 1.73-1.735a1.73 1.73 0 0 0-1.73-1.735h-43.67c-.96 0-1.73.782-1.73 1.735 0 .967.78 1.735 1.73 1.735Z"/></g><g fill="#fff" opacity=".2"><path d="M1346.9 284.11h43.67c1.24 0 2.23-1.008 2.23-2.234 0-1.246-1-2.235-2.23-2.235h-43.67a2.232 2.232 0 0 0-2.23 2.235 2.245 2.245 0 0 0 2.23 2.234Z"/><path d="M1365.66 293.287h48.28c8.3 0 15.04-6.744 15.04-15.051 0-8.306-6.74-15.05-15.04-15.05-2.01 0-3.99.395-5.8 1.166a17.379 17.379 0 0 0-5.12-7.456 17.466 17.466 0 0 0-11.36-4.212c-5.87 0-11.28 2.986-14.5 7.713-1.8-1.998-4.83-4.055-9.63-4.055-7.21 0-13.06 5.874-13.06 13.074a2.234 2.234 0 0 0 2.24 2.234c1.24 0 2.23-1.008 2.23-2.234 0-4.747 3.85-8.584 8.57-8.584 5.93 0 7.65 4.588 7.71 4.786v-.02l4.23.06c1.87-5.083 6.77-8.485 12.21-8.485 6.38 0 11.77 4.589 12.82 10.898l3.48 1.483c1.78-1.226 3.83-1.879 5.98-1.879 5.83 0 10.56 4.747 10.56 10.561 0 5.835-4.75 10.562-10.56 10.562h-48.28a2.234 2.234 0 0 0-2.24 2.235 2.226 2.226 0 0 0 2.24 2.254Z"/></g><g fill="#fff" opacity=".2"><path d="M213.235 413.7H256.9a2.231 2.231 0 0 0 2.233-2.235 2.232 2.232 0 0 0-2.233-2.235h-43.665a2.232 2.232 0 0 0-2.233 2.235 2.244 2.244 0 0 0 2.233 2.235Z"/><path d="M231.986 422.877h48.289c8.298 0 15.036-6.744 15.036-15.051 0-8.306-6.738-15.051-15.036-15.051a14.87 14.87 0 0 0-5.809 1.167 17.34 17.34 0 0 0-5.118-7.456 17.471 17.471 0 0 0-11.36-4.213c-5.869 0-11.282 2.987-14.503 7.714-1.798-1.998-4.821-4.055-9.622-4.055-7.212 0-13.06 5.874-13.06 13.073a2.232 2.232 0 1 0 4.465 0c0-4.746 3.853-8.583 8.575-8.583 5.928 0 7.647 4.588 7.706 4.786v-.02l4.228.06c1.877-5.083 6.777-8.485 12.211-8.485 6.381 0 11.775 4.588 12.823 10.898l3.477 1.483a10.476 10.476 0 0 1 5.987-1.879c5.828 0 10.55 4.747 10.55 10.561 0 5.835-4.741 10.562-10.55 10.562h-48.289a2.231 2.231 0 0 0-2.233 2.235 2.223 2.223 0 0 0 2.233 2.254Z"/></g><path fill="#fff" d="M-5.037 759.375H1967c2.23 0 4-1.058 4-2.345 0-1.287-1.8-2.345-4-2.345H-5.001c-2.23 0-3.998 1.058-3.998 2.345 0 1.287 1.769 2.345 3.962 2.345Z"/><path fill="#fff" d="M92.695 643.232c-5.693-10.986-11.324-18.268-11.57-18.577h-3.85c-.246.309-5.857 7.591-11.57 18.577-5.283 10.203-11.611 25.612-11.611 41.102 0 8.311 2.56 15.985 7.208 21.56 4.116 4.957 9.522 7.94 15.461 8.578v41.37a2.435 2.435 0 0 0 2.437 2.448 2.435 2.435 0 0 0 2.437-2.448v-41.37c5.918-.638 11.344-3.641 15.46-8.578 4.649-5.596 7.209-13.249 7.209-21.56-.021-15.49-6.328-30.899-11.611-41.102Zm-11.058 66.323v-35.054a2.435 2.435 0 0 0-2.437-2.448 2.435 2.435 0 0 0-2.437 2.448v35.054c-10.28-1.419-17.775-11.787-17.775-25.221 0-14.462 5.98-29.047 10.997-38.737 3.522-6.809 7.085-12.219 9.215-15.243 5.385 7.714 20.212 31.063 20.212 54.001 0 13.413-7.495 23.781-17.775 25.2Z" opacity=".05"/><g fill="#7700D1" opacity=".3"><path d="M1201 14.684c-.55 0-1-.657-1-1.454V2.138c0-.798.45-1.454 1-1.454s1 .656 1 1.454V13.23c0 .797-.45 1.454-1 1.454Z"/><path d="M1206.55 8.399h-11.1c-.79 0-1.45-.493-1.45-1.08 0-.585.66-1.078 1.45-1.078h11.1c.79 0 1.45.493 1.45 1.079s-.66 1.079-1.45 1.079Z"/></g><g fill="#fff" opacity=".2"><path d="M682.001 683.684c-.548 0-1-.657-1-1.454v-11.092c0-.798.452-1.454 1-1.454s1 .656 1 1.454v11.092c0 .797-.452 1.454-1 1.454Z"/><path d="M687.547 677.399h-11.092c-.797 0-1.454-.493-1.454-1.079s.657-1.079 1.454-1.079h11.092c.797 0 1.454.493 1.454 1.079s-.657 1.079-1.454 1.079Z"/></g><g fill="#fff" opacity=".2"><path d="M1191 708.684c-.55 0-1-.657-1-1.454v-11.092c0-.798.45-1.454 1-1.454s1 .656 1 1.454v11.092c0 .797-.45 1.454-1 1.454Z"/><path d="M1196.55 702.399h-11.1c-.79 0-1.45-.493-1.45-1.079s.66-1.079 1.45-1.079h11.1c.79 0 1.45.493 1.45 1.079s-.66 1.079-1.45 1.079Z"/></g><g fill="#fff" opacity=".2"><path d="M353 166.684c-.548 0-1-.657-1-1.454v-11.092c0-.798.452-1.454 1-1.454s1 .656 1 1.454v11.092c0 .797-.452 1.454-1 1.454Z"/><path d="M358.546 160.399h-11.092c-.797 0-1.454-.493-1.454-1.079s.657-1.079 1.454-1.079h11.092c.797 0 1.454.493 1.454 1.079s-.657 1.079-1.454 1.079Z"/></g><path fill="#fff" fill-opacity=".2" stroke="#7700D1" d="m1720.57 304.752-.05.443h-12.29c-.96 0-1.73.765-1.73 1.735 0 .953.77 1.735 1.73 1.735h12.29l.05.444a18.55 18.55 0 0 0 3.92 9.476l.28.349-.32.315-8.37 8.386a1.735 1.735 0 1 0 2.45 2.457l8.38-8.385.31-.316.35.277a18.66 18.66 0 0 0 9.47 3.93l.44.051v12.293c0 .95.79 1.734 1.73 1.734.96 0 1.74-.767 1.74-1.734V325.648l.44-.05c3.56-.404 6.79-1.81 9.47-3.93l.35-.277.31.316 8.38 8.385c.34.337.78.506 1.23.506a1.735 1.735 0 0 0 1.22-2.963l-8.37-8.386-.32-.315.28-.349c2.11-2.678 3.52-5.934 3.92-9.477l.05-.443h12.29c.95 0 1.73-.768 1.73-1.735 0-.953-.77-1.735-1.73-1.735h-12.29l-.05-.444a18.55 18.55 0 0 0-3.92-9.476l-.28-.349.32-.315 8.37-8.386a1.735 1.735 0 1 0-2.45-2.457l-8.38 8.385-.31.316-.35-.277a18.66 18.66 0 0 0-9.47-3.93l-.44-.05V275.918c0-.95-.79-1.734-1.74-1.734s-1.73.767-1.73 1.734V288.212l-.44.05c-3.56.404-6.79 1.81-9.47 3.93l-.35.277-.31-.316-8.38-8.385a1.735 1.735 0 0 0-2.45 2.457l8.37 8.386.32.315-.28.349a18.618 18.618 0 0 0-3.92 9.477Zm33.98 2.178c0 8.464-6.88 15.333-15.32 15.333-8.43 0-15.31-6.889-15.31-15.333 0-8.464 6.86-15.333 15.31-15.333 8.46 0 15.32 6.89 15.32 15.333Z"/><g fill="#fff" opacity=".2"><path d="M980.906 523.138c-.548 0-1-.657-1-1.454v-11.092c0-.798.452-1.454 1-1.454.549 0 1 .656 1 1.454v11.092c0 .797-.451 1.454-1 1.454Z"/><path d="M986.452 516.853H975.36c-.797 0-1.454-.493-1.454-1.079s.657-1.079 1.454-1.079h11.092c.798 0 1.454.493 1.454 1.079s-.656 1.079-1.454 1.079Z"/></g><path stroke="#fff" stroke-width="2" d="M959.695 150.095c.086 1.726-.96 3.669-3.527 5.807-2.545 2.118-6.409 4.275-11.514 6.424-10.197 4.294-25.112 8.465-43.678 12.276-37.115 7.619-88.644 13.763-145.782 16.617-57.138 2.854-109.023 1.876-146.713-2.005-18.853-1.942-34.109-4.606-44.684-7.862-5.293-1.63-9.354-3.391-12.097-5.245-2.767-1.871-4.002-3.701-4.088-5.427-.086-1.725.96-3.669 3.527-5.806 2.545-2.119 6.409-4.275 11.514-6.424 10.198-4.294 25.112-8.466 43.678-12.277 37.115-7.618 88.644-13.762 145.783-16.616 57.138-2.855 109.022-1.877 146.712 2.005 18.853 1.942 34.11 4.606 44.684 7.862 5.294 1.63 9.354 3.391 12.097 5.245 2.767 1.871 4.002 3.7 4.088 5.426Z" opacity=".12"/><defs><clipPath id="a"><path fill="#fff" d="M999.262 457.683h341v303h-341z"/></clipPath><clipPath id="b"><path fill="#fff" d="M1770 433.683h396v325h-396z"/></clipPath><clipPath id="c"><path fill="#fff" d="M565 101h391v657H565z"/></clipPath><clipPath id="d"><path fill="#fff" d="M781 579.684h360v176H781z"/></clipPath><clipPath id="e"><path fill="#fff" d="M1322.75 176h456v582h-456z"/></clipPath><clipPath id="f"><path fill="#fff" d="M672 448H135v311h537z"/></clipPath></defs></svg>