<svg width="732" height="358" viewBox="0 0 732 358" fill="none" xmlns="http://www.w3.org/2000/svg">
<g clip-path="url(#clip0_1_6416)">
<rect x="155.513" y="7.59546" width="324.519" height="239.312" fill="#7700D1"/>
<path d="M420.142 84.0681L572.825 89.5894L629.064 143.476L707.132 220.176L720.081 239.449L725.261 261.082L720.081 296.801L689.386 301.06L681.276 303.494L420.142 309.708V84.0681Z" fill="#7700D1"/>
<path d="M48.6445 140.509H5.16431C2.33227 140.509 0 138.168 0 135.326C0 132.484 2.33227 130.144 5.16431 130.144H48.6445C51.4766 130.144 53.8088 132.484 53.8088 135.326C53.8088 138.252 51.4766 140.509 48.6445 140.509Z" fill="white"/>
<path d="M94.54 86.0103H51.0598C48.2278 86.0103 45.8955 83.6699 45.8955 80.8279C45.8955 77.986 48.2278 75.6456 51.0598 75.6456H94.54C97.3721 75.6456 99.7043 77.986 99.7043 80.8279C99.7043 83.6699 97.3721 86.0103 94.54 86.0103Z" fill="white"/>
<path d="M94.54 195.09H51.0598C48.2278 195.09 45.8955 192.75 45.8955 189.908C45.8955 187.066 48.2278 184.726 51.0598 184.726H94.54C97.3721 184.726 99.7043 187.066 99.7043 189.908C99.7043 192.75 97.3721 195.09 94.54 195.09Z" fill="white"/>
<path d="M724.836 258.282C724.67 258.282 724.503 258.282 724.336 258.282C692.934 254.938 671.944 217.325 671.027 215.736L675.275 208.548H708.76C711.426 208.548 713.591 210.721 713.591 213.396C713.591 216.071 711.426 218.244 708.76 218.244H684.105C691.351 228.609 706.594 246.663 725.336 248.669C728.001 248.92 729.917 251.344 729.667 254.019C729.334 256.443 727.252 258.282 724.836 258.282Z" fill="white"/>
<path d="M702.181 306.093H681.107C678.441 306.093 676.276 303.92 676.276 301.245C676.276 298.57 678.441 296.397 681.107 296.397H702.181C713.259 296.397 722.255 287.37 722.255 276.253V248.251C722.255 235.964 714.008 219.33 704.346 211.891L704.013 211.641L578.32 96.4586C571.49 91.3598 567.409 91.3598 557.83 91.527C556.164 91.527 554.331 91.6106 552.415 91.6106H487.028C484.363 91.6106 482.197 89.4373 482.197 86.7626C482.197 84.0878 484.363 81.9146 487.028 81.9146H552.415C554.331 81.9146 556.08 81.9146 557.746 81.831C567.992 81.6638 574.738 81.5802 584.317 88.8522L584.651 89.103L710.343 204.201C722.421 213.563 731.917 232.871 731.917 248.168V276.169C732 292.636 718.59 306.093 702.181 306.093Z" fill="white"/>
<path d="M577.903 306.093H484.862C482.197 306.093 480.031 303.92 480.031 301.245C480.031 298.57 482.197 296.397 484.862 296.397H577.903C580.569 296.397 582.734 298.57 582.734 301.245C582.734 303.92 580.569 306.093 577.903 306.093Z" fill="white"/>
<path d="M629.463 358C598.394 358 573.072 332.589 573.072 301.412C573.072 270.234 598.394 244.824 629.463 244.824C660.532 244.824 685.854 270.234 685.854 301.412C685.938 332.589 660.616 358 629.463 358ZM629.463 254.52C603.725 254.52 582.735 275.584 582.735 301.412C582.735 327.24 603.725 348.304 629.463 348.304C655.202 348.304 676.192 327.24 676.192 301.412C676.192 275.584 655.285 254.52 629.463 254.52Z" fill="white"/>
<path d="M629.463 329.246C614.137 329.246 601.726 316.791 601.726 301.411C601.726 286.032 614.137 273.577 629.463 273.577C644.789 273.577 657.2 286.032 657.2 301.411C657.2 316.791 644.789 329.246 629.463 329.246ZM629.463 283.273C619.468 283.273 611.388 291.381 611.388 301.411C611.388 311.442 619.468 319.55 629.463 319.55C639.458 319.55 647.538 311.442 647.538 301.411C647.538 291.381 639.458 283.273 629.463 283.273Z" fill="white"/>
<path d="M580.903 254.52H512.934C510.268 254.52 508.103 252.347 508.103 249.672C508.103 246.997 510.268 244.824 512.934 244.824H580.903C583.568 244.824 585.734 246.997 585.734 249.672C585.734 252.347 583.568 254.52 580.903 254.52Z" fill="white"/>
<path d="M645.872 186.565H512.933L508.102 181.717V109.582L512.933 104.734H569.407L572.739 106.071L649.204 178.206L645.872 186.565ZM517.764 176.869H633.711L567.491 114.43H517.764V176.869Z" fill="white"/>
<path d="M484.612 303.251C481.947 303.251 479.781 301.078 479.781 298.403V87.3478C479.781 84.673 481.947 82.4998 484.612 82.4998C487.278 82.4998 489.443 84.673 489.443 87.3478V298.403C489.443 301.078 487.278 303.251 484.612 303.251Z" fill="white"/>
<path d="M521.596 306.093H330.183C327.517 306.093 325.352 303.92 325.352 301.245C325.352 298.571 327.517 296.397 330.183 296.397H521.596C524.261 296.397 526.427 298.571 526.427 301.245C526.427 303.92 524.261 306.093 521.596 306.093Z" fill="white"/>
<path d="M227.063 306.093H219.9C204.407 306.093 191.829 293.471 191.829 277.924V249.672C191.829 246.997 193.995 244.824 196.66 244.824C199.326 244.824 201.491 246.997 201.491 249.672V277.924C201.491 288.122 209.738 296.397 219.9 296.397H227.063C229.729 296.397 231.894 298.57 231.894 301.245C231.894 303.919 229.729 306.093 227.063 306.093Z" fill="white"/>
<path d="M278.622 358C247.553 358 222.231 332.589 222.231 301.412C222.231 270.234 247.553 244.824 278.622 244.824C309.692 244.824 335.014 270.234 335.014 301.412C335.014 332.589 309.692 358 278.622 358ZM278.622 254.52C252.884 254.52 231.894 275.584 231.894 301.412C231.894 327.24 252.884 348.304 278.622 348.304C304.361 348.304 325.351 327.24 325.351 301.412C325.351 275.584 304.361 254.52 278.622 254.52Z" fill="white"/>
<path d="M278.623 329.246C263.297 329.246 250.886 316.791 250.886 301.411C250.886 286.032 263.297 273.577 278.623 273.577C293.949 273.577 306.36 286.032 306.36 301.411C306.36 316.791 293.866 329.246 278.623 329.246ZM278.623 283.273C268.628 283.273 260.548 291.381 260.548 301.411C260.548 311.442 268.628 319.55 278.623 319.55C288.619 319.55 296.698 311.442 296.698 301.411C296.698 291.381 288.535 283.273 278.623 283.273Z" fill="white"/>
<rect x="680.95" y="304.048" width="5.60629" height="17.7158" transform="rotate(-90 680.95 304.048)" fill="white"/>
<rect x="517.624" y="304.048" width="5.60629" height="58.2842" transform="rotate(-90 517.624 304.048)" fill="white"/>
<rect x="330.734" y="304.048" width="5.60629" height="58.2842" transform="rotate(-90 330.734 304.048)" fill="white"/>
<path d="M541.754 150.455C540.671 150.455 539.505 150.037 538.588 149.285C536.589 147.53 536.34 144.521 538.089 142.431L567.409 107.91C569.158 105.904 572.156 105.653 574.239 107.408C576.238 109.164 576.488 112.173 574.739 114.262L545.419 148.784C544.502 149.954 543.086 150.455 541.754 150.455Z" fill="white"/>
<path d="M543.503 186.565C542.42 186.565 541.254 186.147 540.338 185.395C538.338 183.639 538.089 180.63 539.838 178.541L572.989 139.506C574.738 137.5 577.737 137.249 579.819 139.004C581.819 140.76 582.068 143.769 580.319 145.858L547.251 184.893C546.251 185.98 544.919 186.565 543.503 186.565Z" fill="white"/>
<path d="M535.34 199.688H512.934V209.384H535.34V199.688Z" fill="white"/>
<path fill-rule="evenodd" clip-rule="evenodd" d="M150.583 72.4414V249.672L155.414 254.52H485.514L490.345 249.672V72.4414H480.683V244.824H160.245V72.4414H150.583ZM241.783 9.69601H394.466V0H241.783V9.69601Z" fill="white"/>
<rect x="712.659" y="210.595" width="5.60625" height="10.7803" transform="rotate(90 712.659 210.595)" fill="white"/>
<rect x="728.427" y="250.266" width="5.67076" height="6.40796" transform="rotate(90 728.427 250.266)" fill="white"/>
<rect x="556.625" y="178.93" width="5.60074" height="17.9569" transform="rotate(90 556.625 178.93)" fill="white"/>
<path d="M228.607 109.273C231.559 109.273 233.792 110.073 235.307 111.674C236.848 113.248 237.619 115.569 237.619 118.635V128.405C237.619 131.472 236.848 133.806 235.307 135.407C233.792 136.981 231.559 137.768 228.607 137.768H213.326V109.273H228.607ZM230.566 118.635C230.566 116.193 229.391 114.972 227.04 114.972H220.379V132.069H227.04C229.391 132.069 230.566 130.848 230.566 128.405V118.635Z" fill="white"/>
<path d="M260.334 117.007C260.334 115.379 259.55 114.565 257.983 114.565H251.322C249.755 114.565 248.971 115.379 248.971 117.007V130.034C248.971 131.662 249.755 132.476 251.322 132.476H257.983C259.55 132.476 260.334 131.662 260.334 130.034V117.007ZM267.387 130.034C267.387 132.883 266.76 134.959 265.506 136.262C264.278 137.538 262.293 138.175 259.55 138.175H249.755C247.012 138.175 245.014 137.538 243.76 136.262C242.532 134.959 241.918 132.883 241.918 130.034V117.007C241.918 114.158 242.532 112.095 243.76 110.819C245.014 109.517 247.012 108.865 249.755 108.865H259.55C262.293 108.865 264.278 109.517 265.506 110.819C266.76 112.095 267.387 114.158 267.387 117.007V130.034Z" fill="white"/>
<path d="M271.676 131.866C278.833 132.273 283.678 132.476 286.212 132.476C286.813 132.476 287.283 132.3 287.623 131.947C287.988 131.567 288.171 131.065 288.171 130.441V126.777H279.159C276.417 126.777 274.418 126.139 273.165 124.864C271.937 123.561 271.323 121.485 271.323 118.635V117.414C271.323 114.565 271.937 112.502 273.165 111.227C274.418 109.924 276.417 109.273 279.159 109.273H292.912V114.972H280.727C279.159 114.972 278.376 115.786 278.376 117.414V118.228C278.376 119.857 279.159 120.671 280.727 120.671H287.779C290.339 120.671 292.22 121.295 293.422 122.543C294.623 123.792 295.224 125.746 295.224 128.405V130.441C295.224 133.1 294.623 135.054 293.422 136.303C292.22 137.551 290.339 138.175 287.779 138.175C286.447 138.175 285.037 138.148 283.548 138.094L279.943 137.931C277.279 137.795 274.523 137.605 271.676 137.361V131.866Z" fill="white"/>
<path d="M311.293 137.768H304.24V114.972H296.012V109.273H319.521V114.972H311.293V137.768Z" fill="white"/>
<path d="M325.587 137.768H317.947L328.33 109.273H336.166L346.549 137.768H338.909L337.146 132.68H327.35L325.587 137.768ZM329.113 127.388H335.382L332.248 117.821L329.113 127.388Z" fill="white"/>
<path d="M358.486 129.22L365.147 109.273H372.787L362.404 137.768H354.568L344.185 109.273H351.825L358.486 129.22Z" fill="white"/>
<path d="M397.666 137.768H375.92V109.273H397.666V114.972H382.973V120.467H394.532V126.166H382.973V132.069H397.666V137.768Z" fill="white"/>
<path d="M401.967 109.273H418.424C421.166 109.273 423.152 109.924 424.379 111.227C425.633 112.502 426.26 114.565 426.26 117.414V121.078C426.26 123.33 425.894 125.081 425.163 126.329C424.458 127.578 423.321 128.405 421.754 128.813L426.652 137.768H419.011L414.505 129.22H409.02V137.768H401.967V109.273ZM419.207 117.414C419.207 115.786 418.424 114.972 416.856 114.972H409.02V123.52H416.856C418.424 123.52 419.207 122.706 419.207 121.078V117.414Z" fill="white"/>
<rect x="498.005" y="83.9459" width="5.60638" height="15.3194" transform="rotate(90 498.005 83.9459)" fill="white"/>
<rect x="481.84" y="247.978" width="5.60419" height="52.7193" fill="white"/>
<path fill-rule="evenodd" clip-rule="evenodd" d="M205.609 10H188.582C173.118 10 160.582 22.536 160.582 38V42.7766H160.234V115.242C154.231 108.522 150.582 99.655 150.582 89.9356V38C150.582 17.0132 167.595 0 188.582 0H265.241C275.022 0 283.939 3.69497 290.674 9.76514H205.609V10Z" fill="white"/>
</g>
<defs>
<clipPath id="clip0_1_6416">
<rect width="732" height="358" fill="white"/>
</clipPath>
</defs>
</svg>
