<svg width="137" height="138" viewBox="0 0 137 138" fill="none" xmlns="http://www.w3.org/2000/svg">
<g id="Frame" clip-path="url(#clip0_1_4714)">
<g id="Group">
<path id="Vector" d="M84.451 101.622C83.9448 101.369 83.3592 101.325 82.8212 101.501C82.2832 101.677 81.8361 102.057 81.5767 102.56C80.2192 104.814 78.3021 106.679 76.0113 107.974C73.7206 109.268 71.134 109.949 68.5028 109.949C65.8715 109.949 63.2849 109.269 60.994 107.974C58.7031 106.68 56.7859 104.815 55.4282 102.561C55.1729 102.055 54.7268 101.67 54.188 101.492C53.6492 101.314 53.0617 101.357 52.5548 101.612C52.0478 101.867 51.6627 102.313 51.4842 102.851C51.3057 103.39 51.3483 103.977 51.6027 104.485C53.3176 107.448 55.7818 109.909 58.7479 111.619C61.7141 113.33 65.0779 114.23 68.5019 114.23C71.926 114.23 75.2898 113.33 78.2559 111.619C81.2221 109.909 83.6862 107.448 85.4012 104.485C85.6537 103.979 85.6954 103.393 85.5174 102.857C85.3393 102.32 84.9559 101.876 84.451 101.622Z" fill="#4C1978"/>
<path id="Vector_2" d="M53.7432 80.9374C53.9979 81.4439 54.4431 81.8286 54.9812 82.0073C55.5192 82.1859 56.1061 82.1438 56.6132 81.8903C57.1203 81.6368 57.5061 81.1925 57.686 80.6548C57.8659 80.1172 57.8252 79.5302 57.5729 79.0225C56.7788 77.4651 55.5921 76.1418 54.13 75.1835C52.6679 74.2251 50.9811 73.6649 49.2362 73.5581C47.4912 73.6649 45.8044 74.2251 44.3423 75.1835C42.8802 76.1418 41.6935 77.4651 40.8994 79.0225C40.6481 79.5291 40.6073 80.1145 40.786 80.651C40.9648 81.1875 41.3485 81.6315 41.8535 81.886C42.3584 82.1406 42.9436 82.185 43.4812 82.0096C44.0188 81.8342 44.4652 81.4533 44.7229 80.9499C45.1628 80.1014 45.8044 79.3739 46.5914 78.8315C47.3784 78.2891 48.2866 77.9484 49.2362 77.8394C50.1835 77.9478 51.0897 78.2869 51.8755 78.8271C52.6613 79.3672 53.3026 80.0918 53.7432 80.9374Z" fill="#4C1978"/>
<path id="Vector_3" d="M87.7674 73.5581C86.0225 73.6649 84.3356 74.2251 82.8735 75.1835C81.4114 76.1418 80.2247 77.4651 79.4307 79.0225C79.1793 79.5291 79.1385 80.1145 79.3173 80.651C79.496 81.1875 79.8798 81.6315 80.3847 81.886C80.8897 82.1405 81.4748 82.185 82.0124 82.0096C82.55 81.8342 82.9964 81.4533 83.2541 80.9499C83.694 80.1014 84.3357 79.3739 85.1227 78.8315C85.9096 78.2891 86.8179 77.9484 87.7674 77.8394C88.7169 77.9482 89.6251 78.2887 90.4121 78.8309C91.1991 79.3731 91.8408 80.1005 92.2807 80.9489C92.5361 81.4559 92.9825 81.8407 93.5217 82.0186C94.0608 82.1965 94.6486 82.1529 95.1556 81.8974C95.6626 81.642 96.0474 81.1956 96.2253 80.6564C96.4032 80.1173 96.3596 79.5296 96.1041 79.0225C95.3101 77.4651 94.1234 76.1418 92.6613 75.1835C91.1992 74.2251 89.5123 73.6649 87.7674 73.5581Z" fill="#4C1978"/>
<path id="Vector_4" d="M94.3527 39.3071L94.175 39.3082C83.9882 39.3761 74.6188 45.5743 68.5021 56.0924C62.3855 45.5743 53.0161 39.3761 42.8293 39.3082L42.6516 39.3071C34.4725 39.4707 26.6838 42.8359 20.9589 48.6797C17.683 51.9376 15.089 55.8155 13.3285 60.0871C11.568 64.3586 10.6762 68.9381 10.7053 73.5582C10.7053 105.184 65.1344 136.197 67.4517 137.502C67.7725 137.682 68.1342 137.777 68.5021 137.777C68.8701 137.777 69.2318 137.682 69.5526 137.502C71.8699 136.197 126.299 105.184 126.299 73.5582C126.328 68.9381 125.436 64.3586 123.676 60.0871C121.915 55.8155 119.321 51.9376 116.045 48.6797C110.32 42.8359 102.532 39.4707 94.3527 39.3071ZM68.5021 133.16C60.9148 128.677 14.9865 100.419 14.9865 73.5582C14.959 69.5028 15.7399 65.4826 17.2834 61.7324C18.827 57.9822 21.1023 54.5771 23.9765 51.7161C28.8979 46.6677 35.6021 43.7497 42.6505 43.5884L42.8 43.5894C52.4412 43.6542 61.3235 50.3939 66.5622 61.6196C66.7345 61.9888 67.0085 62.3011 67.3522 62.52C67.6958 62.7388 68.0947 62.855 68.5021 62.855C68.9095 62.855 69.3085 62.7388 69.6521 62.52C69.9957 62.3011 70.2698 61.9888 70.4421 61.6196C75.6808 50.3939 84.5631 43.6542 94.2043 43.5894L94.3537 43.5884C101.402 43.7499 108.106 46.6678 113.028 51.7161C115.902 54.5771 118.177 57.9822 119.721 61.7324C121.264 65.4826 122.045 69.5028 122.018 73.5582C122.018 100.419 76.0894 128.677 68.5021 133.16Z" fill="#4C1978"/>
<path id="Vector_5" d="M35.4351 50.2368C34.8624 50.5232 21.4082 57.3872 21.4082 69.2767C21.4082 69.8444 21.6337 70.3889 22.0352 70.7903C22.4366 71.1918 22.9811 71.4173 23.5488 71.4173C24.1166 71.4173 24.661 71.1918 25.0625 70.7903C25.4639 70.3889 25.6895 69.8444 25.6895 69.2767C25.6895 60.0452 37.236 54.124 37.3521 54.0654C37.858 53.8101 38.242 53.3647 38.4201 52.8268C38.5981 52.2888 38.5556 51.7023 38.302 51.1956C38.0483 50.6889 37.6041 50.3035 37.0667 50.1237C36.5293 49.944 35.9426 49.9846 35.4351 50.2367V50.2368Z" fill="#4C1978"/>
<path id="Vector_6" d="M25.6895 75.6987H21.4082V79.98H25.6895V75.6987Z" fill="#4C1978"/>
<path id="Vector_7" d="M10.7051 9.33936C11.2728 9.33936 11.8173 9.11383 12.2187 8.71238C12.6202 8.31094 12.8457 7.76646 12.8457 7.19873V2.91748C12.8457 2.34975 12.6202 1.80528 12.2187 1.40383C11.8173 1.00238 11.2728 0.776855 10.7051 0.776855C10.1373 0.776855 9.59287 1.00238 9.19143 1.40383C8.78998 1.80528 8.56445 2.34975 8.56445 2.91748V7.19873C8.56445 7.76646 8.78998 8.31094 9.19143 8.71238C9.59287 9.11383 10.1373 9.33936 10.7051 9.33936Z" fill="#4C1978"/>
<path id="Vector_8" d="M12.8457 20.0425V15.7612C12.8457 15.1935 12.6202 14.649 12.2187 14.2476C11.8173 13.8461 11.2728 13.6206 10.7051 13.6206C10.1373 13.6206 9.59287 13.8461 9.19143 14.2476C8.78998 14.649 8.56445 15.1935 8.56445 15.7612V20.0425C8.56445 20.6102 8.78998 21.1547 9.19143 21.5561C9.59287 21.9576 10.1373 22.1831 10.7051 22.1831C11.2728 22.1831 11.8173 21.9576 12.2187 21.5561C12.6202 21.1547 12.8457 20.6102 12.8457 20.0425Z" fill="#4C1978"/>
<path id="Vector_9" d="M14.9863 13.6206H19.2676C19.8353 13.6206 20.3798 13.3951 20.7812 12.9936C21.1827 12.5922 21.4082 12.0477 21.4082 11.48C21.4082 10.9123 21.1827 10.3678 20.7812 9.96633C20.3798 9.56489 19.8353 9.33936 19.2676 9.33936H14.9863C14.4186 9.33936 13.8741 9.56489 13.4727 9.96633C13.0712 10.3678 12.8457 10.9123 12.8457 11.48C12.8457 12.0477 13.0712 12.5922 13.4727 12.9936C13.8741 13.3951 14.4186 13.6206 14.9863 13.6206Z" fill="#4C1978"/>
<path id="Vector_10" d="M6.42383 9.33936H2.14258C1.57485 9.33936 1.03037 9.56489 0.628928 9.96633C0.227483 10.3678 0.00195313 10.9123 0.00195312 11.48C0.00195313 12.0477 0.227483 12.5922 0.628928 12.9936C1.03037 13.3951 1.57485 13.6206 2.14258 13.6206H6.42383C6.99156 13.6206 7.53603 13.3951 7.93748 12.9936C8.33892 12.5922 8.56445 12.0477 8.56445 11.48C8.56445 10.9123 8.33892 10.3678 7.93748 9.96633C7.53603 9.56489 6.99156 9.33936 6.42383 9.33936Z" fill="#4C1978"/>
<path id="Vector_11" d="M126.299 26.4644C126.867 26.4644 127.411 26.2388 127.812 25.8374C128.214 25.4359 128.439 24.8915 128.439 24.3237V20.0425C128.439 19.4748 128.214 18.9303 127.812 18.5288C127.411 18.1274 126.867 17.9019 126.299 17.9019C125.731 17.9019 125.187 18.1274 124.785 18.5288C124.384 18.9303 124.158 19.4748 124.158 20.0425V24.3237C124.158 24.8915 124.384 25.4359 124.785 25.8374C125.187 26.2388 125.731 26.4644 126.299 26.4644Z" fill="#4C1978"/>
<path id="Vector_12" d="M126.299 30.7456C125.731 30.7456 125.187 30.9711 124.785 31.3726C124.384 31.774 124.158 32.3185 124.158 32.8862V37.1675C124.158 37.7352 124.384 38.2797 124.785 38.6811C125.187 39.0826 125.731 39.3081 126.299 39.3081C126.867 39.3081 127.411 39.0826 127.812 38.6811C128.214 38.2797 128.439 37.7352 128.439 37.1675V32.8862C128.439 32.3185 128.214 31.774 127.812 31.3726C127.411 30.9711 126.867 30.7456 126.299 30.7456Z" fill="#4C1978"/>
<path id="Vector_13" d="M134.861 26.4644H130.58C130.012 26.4644 129.468 26.6899 129.066 27.0913C128.665 27.4928 128.439 28.0373 128.439 28.605C128.439 29.1727 128.665 29.7172 129.066 30.1186C129.468 30.5201 130.012 30.7456 130.58 30.7456H134.861C135.429 30.7456 135.974 30.5201 136.375 30.1186C136.776 29.7172 137.002 29.1727 137.002 28.605C137.002 28.0373 136.776 27.4928 136.375 27.0913C135.974 26.6899 135.429 26.4644 134.861 26.4644Z" fill="#4C1978"/>
<path id="Vector_14" d="M117.736 30.7456H122.018C122.585 30.7456 123.13 30.5201 123.531 30.1186C123.933 29.7172 124.158 29.1727 124.158 28.605C124.158 28.0373 123.933 27.4928 123.531 27.0913C123.13 26.6899 122.585 26.4644 122.018 26.4644H117.736C117.169 26.4644 116.624 26.6899 116.223 27.0913C115.821 27.4928 115.596 28.0373 115.596 28.605C115.596 29.1727 115.821 29.7172 116.223 30.1186C116.624 30.5201 117.169 30.7456 117.736 30.7456Z" fill="#4C1978"/>
<path id="Vector_15" d="M62.0801 20.0425C62.6478 20.0425 63.1923 19.817 63.5937 19.4155C63.9952 19.0141 64.2207 18.4696 64.2207 17.9019V13.6206C64.2207 13.0529 63.9952 12.5084 63.5937 12.107C63.1923 11.7055 62.6478 11.48 62.0801 11.48C61.5123 11.48 60.9679 11.7055 60.5664 12.107C60.165 12.5084 59.9395 13.0529 59.9395 13.6206V17.9019C59.9395 18.4696 60.165 19.0141 60.5664 19.4155C60.9679 19.817 61.5123 20.0425 62.0801 20.0425Z" fill="#4C1978"/>
<path id="Vector_16" d="M62.0801 24.3237C61.5123 24.3237 60.9679 24.5493 60.5664 24.9507C60.165 25.3522 59.9395 25.8966 59.9395 26.4644V30.7456C59.9395 31.3133 60.165 31.8578 60.5664 32.2593C60.9679 32.6607 61.5123 32.8862 62.0801 32.8862C62.6478 32.8862 63.1923 32.6607 63.5937 32.2593C63.9952 31.8578 64.2207 31.3133 64.2207 30.7456V26.4644C64.2207 25.8966 63.9952 25.3522 63.5937 24.9507C63.1923 24.5493 62.6478 24.3237 62.0801 24.3237Z" fill="#4C1978"/>
<path id="Vector_17" d="M66.3613 24.3237H70.6426C71.2103 24.3237 71.7548 24.0982 72.1562 23.6968C72.5577 23.2953 72.7832 22.7508 72.7832 22.1831C72.7832 21.6154 72.5577 21.0709 72.1562 20.6695C71.7548 20.268 71.2103 20.0425 70.6426 20.0425H66.3613C65.7936 20.0425 65.2491 20.268 64.8477 20.6695C64.4462 21.0709 64.2207 21.6154 64.2207 22.1831C64.2207 22.7508 64.4462 23.2953 64.8477 23.6968C65.2491 24.0982 65.7936 24.3237 66.3613 24.3237Z" fill="#4C1978"/>
<path id="Vector_18" d="M53.5176 24.3237H57.7988C58.3666 24.3237 58.911 24.0982 59.3125 23.6968C59.7139 23.2953 59.9395 22.7508 59.9395 22.1831C59.9395 21.6154 59.7139 21.0709 59.3125 20.6695C58.911 20.268 58.3666 20.0425 57.7988 20.0425H53.5176C52.9498 20.0425 52.4054 20.268 52.0039 20.6695C51.6025 21.0709 51.377 21.6154 51.377 22.1831C51.377 22.7508 51.6025 23.2953 52.0039 23.6968C52.4054 24.0982 52.9498 24.3237 53.5176 24.3237Z" fill="#4C1978"/>
<path id="Vector_19" d="M100.611 20.0425C101.881 20.0425 103.123 19.6658 104.179 18.9602C105.235 18.2546 106.058 17.2516 106.544 16.0782C107.03 14.9047 107.158 13.6135 106.91 12.3678C106.662 11.122 106.05 9.97777 105.152 9.07966C104.254 8.18154 103.11 7.56992 101.864 7.32213C100.618 7.07434 99.3272 7.20151 98.1538 7.68757C96.9803 8.17363 95.9774 8.99673 95.2717 10.0528C94.5661 11.1089 94.1895 12.3505 94.1895 13.6206C94.1913 15.3232 94.8685 16.9556 96.0724 18.1595C97.2764 19.3634 98.9087 20.0406 100.611 20.0425ZM100.611 11.48C101.035 11.48 101.449 11.6055 101.801 11.8407C102.153 12.076 102.427 12.4103 102.589 12.8014C102.751 13.1926 102.793 13.623 102.711 14.0382C102.628 14.4535 102.424 14.8349 102.125 15.1343C101.826 15.4336 101.444 15.6375 101.029 15.7201C100.614 15.8027 100.183 15.7603 99.7921 15.5983C99.401 15.4363 99.0667 15.1619 98.8315 14.8099C98.5962 14.4579 98.4707 14.044 98.4707 13.6206C98.4714 13.0531 98.6972 12.5091 99.0985 12.1078C99.4998 11.7065 100.044 11.4807 100.611 11.48Z" fill="#4C1978"/>
<path id="Vector_20" d="M32.1113 35.0269C33.3815 35.0269 34.6231 34.6502 35.6791 33.9446C36.7352 33.2389 37.5583 32.236 38.0444 31.0625C38.5304 29.8891 38.6576 28.5979 38.4098 27.3521C38.162 26.1064 37.5504 24.9621 36.6523 24.064C35.7542 23.1659 34.6099 22.5543 33.3642 22.3065C32.1185 22.0587 30.8272 22.1859 29.6538 22.6719C28.4803 23.158 27.4774 23.9811 26.7717 25.0372C26.0661 26.0933 25.6895 27.3349 25.6895 28.605C25.6913 30.3076 26.3685 31.9399 27.5724 33.1439C28.7764 34.3478 30.4087 35.025 32.1113 35.0269ZM32.1113 26.4644C32.5347 26.4644 32.9486 26.5899 33.3006 26.8251C33.6526 27.0603 33.927 27.3947 34.089 27.7858C34.251 28.1769 34.2934 28.6074 34.2108 29.0226C34.1282 29.4378 33.9243 29.8193 33.625 30.1186C33.3256 30.418 32.9442 30.6219 32.5289 30.7045C32.1137 30.7871 31.6833 30.7447 31.2921 30.5827C30.901 30.4206 30.5667 30.1463 30.3315 29.7943C30.0962 29.4422 29.9707 29.0284 29.9707 28.605C29.9714 28.0375 30.1972 27.4934 30.5985 27.0921C30.9998 26.6909 31.5438 26.4651 32.1113 26.4644Z" fill="#4C1978"/>
</g>
</g>
<defs>
<clipPath id="clip0_1_4714">
<rect width="137" height="137" fill="white" transform="translate(0.00195312 0.776855)"/>
</clipPath>
</defs>
</svg>
