<svg width="60" height="41" viewBox="0 0 60 41" fill="none" xmlns="http://www.w3.org/2000/svg">
<rect y="0.683594" width="60" height="40" rx="20" fill="#48DB45"/>
<path d="M36.0482 21.7986L36.04 21.8673C34.0242 20.8627 33.8134 20.7288 33.553 21.1193C33.3725 21.3897 32.8463 22.003 32.6877 22.1845C32.5273 22.3632 32.3678 22.377 32.0955 22.2532C31.8205 22.1157 30.9378 21.827 29.8928 20.892C29.0788 20.1632 28.5325 19.2695 28.3711 18.9945C28.1025 18.5307 28.6645 18.4647 29.176 17.4967C29.2676 17.3042 29.2209 17.1529 29.153 17.0163C29.0843 16.8788 28.537 15.5313 28.3079 14.9942C28.0879 14.4588 27.8615 14.5267 27.6919 14.5267C27.1639 14.4808 26.778 14.4882 26.4379 14.842C24.9584 16.4682 25.3315 18.1457 26.5974 19.9295C29.0852 23.1855 30.4107 23.785 32.8344 24.6173C33.4889 24.8254 34.0856 24.7961 34.5577 24.7282C35.0839 24.6448 36.1775 24.0673 36.4057 23.4211C36.6395 22.7748 36.6395 22.2386 36.5707 22.1148C36.5029 21.9911 36.3232 21.9223 36.0482 21.7986Z" fill="white"/>
<path d="M38.81 11.8451C31.7617 5.0315 20.0972 9.97325 20.0926 19.5854C20.0926 21.5067 20.5958 23.3804 21.5547 25.035L20 30.6835L25.8071 29.1692C33.0533 33.0833 41.9963 27.8858 42 19.5909C42 16.6796 40.8633 13.9397 38.7962 11.8808L38.81 11.8451ZM40.1685 19.5607C40.163 26.5576 32.4822 30.9273 26.4075 27.356L26.0775 27.1598L22.64 28.0536L23.5612 24.7123L23.3422 24.3686C19.5618 18.3507 23.905 10.4857 31.066 10.4857C33.4988 10.4857 35.7822 11.4344 37.5019 13.1532C39.2207 14.8572 40.1685 17.1407 40.1685 19.5607Z" fill="white"/>
</svg>
